<?xml version="1.0" encoding="utf-8"?>
<!-- Generator: Adobe Illustrator 25.0.0, SVG Export Plug-In . SVG Version: 6.00 Build 0)  -->
<svg version="1.1" id="Layer_1" xmlns="http://www.w3.org/2000/svg" xmlns:xlink="http://www.w3.org/1999/xlink" x="0px" y="0px"
	 viewBox="0 0 720 720" style="enable-background:new 0 0 720 720;" xml:space="preserve">
<style type="text/css">
	.st0{fill:#FFFFFF;stroke:#010101;stroke-width:8;stroke-miterlimit:10;}
	.st1{display:none;}
	.st2{display:inline;}
	.st3{fill:none;stroke:#000000;stroke-miterlimit:10;}
</style>
<g id="Layer_1_1_">
	<g>
		<polygon class="st0" points="360,14.5 422.6,126.4 532.8,60.7 531,189 659.3,187.2 593.6,297.4 705.5,360 593.6,422.6 
			659.3,532.8 531,531 532.8,659.3 422.6,593.6 360,705.5 297.4,593.6 187.2,659.3 189,531 60.7,532.8 126.4,422.6 14.5,360 
			126.4,297.4 60.7,187.2 189,189 187.2,60.7 297.4,126.4 		"/>
	</g>
</g>
<g id="Layer_2_1_" class="st1">
	<g class="st2">
		<line class="st3" x1="248.3" y1="270.9" x2="248.3" y2="449.1"/>
		<line class="st3" x1="471.7" y1="270.9" x2="471.7" y2="449.1"/>
		<line class="st3" x1="360" y1="382.4" x2="360" y2="560.6"/>
		<line class="st3" x1="248.3" y1="270.9" x2="360" y2="382.4"/>
		<line class="st3" x1="471.7" y1="270.9" x2="360" y2="382.4"/>
		<line class="st3" x1="248.3" y1="270.9" x2="360" y2="159.4"/>
		<line class="st3" x1="471.7" y1="270.9" x2="360" y2="159.4"/>
		<line class="st3" x1="248.3" y1="449.1" x2="360" y2="560.6"/>
		<line class="st3" x1="471.7" y1="449.1" x2="360" y2="560.6"/>
	</g>
</g>
</svg>
