<?xml version="1.0" encoding="utf-8"?>
<!-- Generator: Adobe Illustrator 25.0.0, SVG Export Plug-In . SVG Version: 6.00 Build 0)  -->
<svg version="1.1" xmlns="http://www.w3.org/2000/svg" xmlns:xlink="http://www.w3.org/1999/xlink" x="0px" y="0px"
	 viewBox="0 0 720 720" style="enable-background:new 0 0 720 720;" xml:space="preserve">
<style type="text/css">
	.st0{fill:#FFFFFF;stroke:#000000;stroke-width:8;stroke-miterlimit:10;}
	.st1{fill:#FFFFFF;stroke:#EC2390;stroke-width:8;stroke-miterlimit:10;}
	.st2{display:none;}
	.st3{display:inline;}
	.st4{fill:none;stroke:#010101;stroke-miterlimit:10;}
	.st5{fill:none;stroke:#010101;stroke-width:4;stroke-linecap:round;stroke-miterlimit:10;}
	.st6{fill:none;stroke:#000000;stroke-width:8;stroke-miterlimit:10;}
	.st7{fill:none;stroke:#000000;stroke-width:8;stroke-linecap:round;stroke-miterlimit:10;}
</style>
<g id="Layer_1">
	<g>
		<polygon class="st0" points="360,14.5 422.6,126.4 532.8,60.7 531,189 659.3,187.2 593.6,297.4 705.5,360 593.6,422.6 
			659.3,532.8 531,531 532.8,659.3 422.6,593.6 360,705.5 297.4,593.6 187.2,659.3 189,531 60.7,532.8 126.4,422.6 14.5,360 
			126.4,297.4 60.7,187.2 189,189 187.2,60.7 297.4,126.4 		"/>
	</g>
</g>
<g id="Layer_2" class="st2">
	<g class="st3">
		<line class="st4" x1="248.3" y1="270.9" x2="248.3" y2="449.1"/>
		<line class="st4" x1="471.7" y1="270.9" x2="471.7" y2="449.1"/>
		<line class="st4" x1="360" y1="382.4" x2="360" y2="560.6"/>
		<line class="st4" x1="248.3" y1="270.9" x2="360" y2="382.4"/>
		<line class="st4" x1="471.7" y1="270.9" x2="360" y2="382.4"/>
		<line class="st4" x1="248.3" y1="270.9" x2="360" y2="159.4"/>
		<line class="st4" x1="471.7" y1="270.9" x2="360" y2="159.4"/>
		<line class="st4" x1="248.3" y1="449.1" x2="360" y2="560.6"/>
		<line class="st4" x1="471.7" y1="449.1" x2="360" y2="560.6"/>
	</g>
</g>
<g id="furn" class="st2">
	<g class="st3">
		<polyline class="st5" points="360,560.6 360,483.9 260.7,384.6 260.7,283.3 		"/>
		<line class="st5" x1="260.7" y1="384.6" x2="372.4" y2="273.1"/>
		<line class="st5" x1="372.4" y1="171.8" x2="260.7" y2="283.3"/>
		<line class="st5" x1="360" y1="483.9" x2="471.7" y2="372.4"/>
		<polyline class="st5" points="457.8,463 457.8,405.7 373.9,489.6 373.9,546.7 360,560.6 360,560.6 346.1,546.7 346.1,489.7 
			260.7,404.3 260.7,461.5 		"/>
		<polyline class="st5" points="443.9,419.6 443.9,449.1 457.8,463 471.7,449.1 471.7,372.4 372.4,273.1 372.4,171.8 360,159.4 
			248.3,270.9 248.3,449.1 260.7,461.5 274.6,447.3 274.6,418.2 		"/>
		<line class="st5" x1="248.3" y1="270.9" x2="260.7" y2="283.3"/>
	</g>
</g>
<g id="arch" class="st2">
	<g class="st3">
		<polygon class="st6" points="248.3,312.6 248.3,424.1 360,535.6 471.7,424.1 471.7,312.6 415.8,190.1 360,200.8 		"/>
		<polyline class="st6" points="415.8,190.1 304.1,301.7 248.3,312.6 304.1,301.7 360,424.1 360,535.6 360,424.1 471.7,312.6 		"/>
	</g>
</g>
<g id="graph">
	<g>
		<path class="st6" d="M423,218.3c-22.4-10.1-115.1-51.8-151.8-14.9c-15.9,16-17.2,42.7-18.7,72c-2.1,43.1,10.7,56.7-0.6,78.7
			c-13,25.2-36,19.5-47.2,41.7c-14.7,29.4,5.7,79.3,41.2,104.4c38,26.8,94.6,26.2,122.2-0.7c39.5-38.5,6.4-117.7,34.1-129.7
			c22.5-9.7,49.4,40.5,80.4,31.9c28.7-7.9,47.9-62.4,35.3-104.5C505.5,255.5,464.9,237.2,423,218.3z"/>
		<path class="st7" d="M280.6,303.7L280.6,303.7c4.8-0.5,8.3-4.7,8-9.5c-0.2-2.6-0.3-5.4-0.3-8.6c0-4.8-3.8-8.7-8.6-8.9l0,0
			c-5.1-0.3-9.5,3.9-9.4,9c0,3.4,0.1,6.6,0.3,9.6C270.9,300.5,275.4,304.3,280.6,303.7z"/>
		<path class="st7" d="M247.2,395.6l0.1,0.2c2.6,4.5,8.6,5.8,12.9,2.7c7.8-5.7,16.7-14.3,23.7-27.9c7.4-14.3,9-26.9,8.7-38
			c-0.1-5.2-4.7-9.1-9.8-8.6c-0.1,0-0.2,0-0.3,0c-4.6,0.5-8,4.3-7.9,8.9c0.2,9.2-1.2,18.7-6.7,29.4c-5.3,10.2-11.8,16.9-18.4,21.6
			C245.9,386.7,244.9,391.7,247.2,395.6z"/>
	</g>
</g>
</svg>
