<?xml version="1.0" encoding="utf-8"?>
<!-- Generator: Adobe Illustrator 25.0.0, SVG Export Plug-In . SVG Version: 6.00 Build 0)  -->
<svg version="1.1" xmlns="http://www.w3.org/2000/svg" xmlns:xlink="http://www.w3.org/1999/xlink" x="0px" y="0px"
	 viewBox="0 0 720 720" style="enable-background:new 0 0 720 720;" xml:space="preserve">
<style type="text/css">
	.st0{fill:#FFFFFF;stroke:#000000;stroke-width:8;stroke-miterlimit:10;}
	.st1{fill:#FFFFFF;stroke:#EC2390;stroke-width:8;stroke-miterlimit:10;}
	.st2{display:none;}
	.st3{display:inline;}
	.st4{fill:none;stroke:#010101;stroke-miterlimit:10;}
	.st5{fill:none;stroke:#000000;stroke-width:8;stroke-miterlimit:10;}
	.st6{fill:none;stroke:#000000;stroke-width:8;stroke-linecap:round;stroke-miterlimit:10;}
</style>
<g id="Layer_1">
	<g>
		<polygon class="st0" points="360,14.5 422.6,126.4 532.8,60.7 531,189 659.3,187.2 593.6,297.4 705.5,360 593.6,422.6 
			659.3,532.8 531,531 532.8,659.3 422.6,593.6 360,705.5 297.4,593.6 187.2,659.3 189,531 60.7,532.8 126.4,422.6 14.5,360 
			126.4,297.4 60.7,187.2 189,189 187.2,60.7 297.4,126.4 		"/>
	</g>
	<g>
		<path d="M1209.5,804.6l-20.6,28.2l-7.9-0.9l-1.8-11.1c-0.4-2.4-0.6-4.1-0.6-6.9c-1.1,2.2-2.4,4.4-3.4,5.9l-7.3,10.6l-8.1-0.9
			l-6.5-31.1l11.2,1.2l2,9.7c0.4,2.2,0.8,4.3,0.9,7.1c1.3-2.6,1.6-3.2,3.7-6.1l6.4-9.2l7.4,0.8l1.9,9.4c0.6,2.9,0.8,4.5,1,6.7
			c1-2,1.8-3.3,3-5l7-9.7L1209.5,804.6z"/>
		<path d="M1218.5,825.7c-0.3,1-1,3.6,0.2,5.4c0.4,0.7,1.3,1.5,3,2c0.9,0.2,1.9,0.3,3-0.1c1-0.4,1.6-1,2-1.6l11.8,3.1
			c-1.3,2-3,3.5-4.6,4.5c-4.7,2.9-10.4,2.2-13.9,1.3c-6.1-1.6-8.9-4.9-10.2-6.8c-1.4-2.3-2.6-6.2-1.3-11.4c1.5-5.6,4.8-9.1,8-10.8
			c3.2-1.8,7.8-2.9,13.7-1.3c5.5,1.5,8.4,4.3,10,7c2.2,3.8,2,8.4,1,12.2c-0.2,0.8-0.5,1.7-0.8,2.5L1218.5,825.7z M1231,822.6
			c0.3-1.4,0.1-2.9-0.6-3.9c-0.6-0.9-1.7-1.7-3.1-2.1c-1.5-0.4-3-0.2-4.1,0.5c-1.1,0.6-1.9,1.8-2.4,2.8L1231,822.6z"/>
		<path d="M1273.5,805l-22.6,44.2l-10.5-3.8l22.6-44.2L1273.5,805z"/>
		<path d="M1293.4,836l-4.9,8.1c-1.2-2.7-2.3-4-4.5-5c-3.8-1.7-7.9,0.1-9.8,4.2c-1.7,3.6-0.5,6.9,3,8.5c1.8,0.8,3.4,1,6.4,0.4
			l-5,8.1c-4-0.4-5.6-0.8-7.9-1.8c-7.7-3.5-10.5-11.6-6.9-19.6c4.1-8.9,13.4-12.5,22.2-8.5C1289,831.7,1291.3,833.5,1293.4,836z"/>
		<path d="M1321.8,868c-5,8.4-14.7,10.4-23.8,5c-9.3-5.5-12.3-14.7-7.4-22.9c4.8-8.1,14.8-9.9,24.1-4.4
			C1323.8,851.1,1326.6,859.9,1321.8,868z M1312.2,861.8c2-3.3,1.2-6.6-2-8.5c-3.5-2.1-8-0.7-10.4,3.3c-2,3.3-1.2,6.7,2,8.6
			C1305.5,867.3,1309.8,865.9,1312.2,861.8z"/>
		<path d="M1347.4,868.8l-3.3,2.5c4.9-0.7,7.8,0.1,11,2.7c3.4,2.9,4.4,5.4,3.4,9.6c5.1-0.7,8.5,0.3,12,3.2c4.7,3.9,5.3,8.9,1.9,13
			c-0.9,1-1.7,2-4.5,4.6l-11.8,10.9l-8.5-7.1l10.9-10.1c0.8-0.8,1.9-1.9,2.2-2.3c1.6-1.9,1.4-3.9-0.3-5.4c-2.8-2.3-5.2-1.7-9.2,2
			l-10.6,9.9l-8.6-7.2l11.6-10.8c0.8-0.7,1.4-1.3,1.8-1.8c1.4-1.7,1.2-3.6-0.5-5c-2.5-2.1-5.4-1.4-9.1,2.1l-10.6,9.9l-8.6-7.2
			l22.2-20.8L1347.4,868.8z"/>
		<path d="M1377.1,919.9c-0.8,0.7-2.8,2.5-2.8,4.6c0,0.8,0.2,2,1.4,3.4c0.6,0.7,1.4,1.3,2.5,1.6c1,0.3,1.9,0.1,2.5-0.2l8,9.1
			c-2.2,0.9-4.4,1.2-6.3,1.1c-5.5-0.3-9.9-4-12.3-6.7c-4.2-4.8-4.7-9-4.6-11.3c0.1-2.7,1.2-6.6,5.3-10.2c4.4-3.8,9.1-4.8,12.7-4.5
			c3.7,0.3,8.1,1.9,12.1,6.5c3.7,4.3,4.6,8.3,4.4,11.4c-0.3,4.4-3,8-6,10.6c-0.7,0.6-1.4,1.1-2,1.6L1377.1,919.9z M1389.3,924.3
			c1-1,1.6-2.3,1.7-3.5c0-1.1-0.4-2.3-1.4-3.4c-1-1.2-2.4-1.8-3.7-1.9c-1.2-0.1-2.6,0.4-3.6,1L1389.3,924.3z"/>
		<path d="M1460.3,1024.3l-34.7-3.6l-3.3-7.3l8.7-7.1c1.9-1.6,3.2-2.6,5.6-4c-2.5,0.1-5,0.1-6.8,0l-12.9-1l-3.3-7.5l23.6-21.3
			l4.6,10.3l-7.3,6.6c-1.7,1.5-3.3,2.8-5.7,4.4c2.9-0.2,3.6-0.2,7.1,0.1l11.2,0.8l3,6.8l-7.1,6.4c-2.2,1.9-3.5,3-5.3,4.2
			c2.2-0.1,3.8-0.1,5.8,0.1l11.9,1.1L1460.3,1024.3z"/>
		<path d="M1446.6,1042.8c-1,0.3-3.6,1-4.5,2.9c-0.4,0.7-0.7,1.9-0.2,3.6c0.3,0.9,0.7,1.8,1.5,2.5c0.8,0.7,1.6,0.9,2.4,0.9l3.2,11.7
			c-2.3-0.1-4.5-0.8-6.2-1.7c-4.9-2.7-7.2-7.9-8.1-11.4c-1.7-6.1-0.3-10.2,0.8-12.2c1.3-2.4,4-5.4,9.2-6.8
			c5.6-1.5,10.3-0.4,13.4,1.4c3.2,1.9,6.4,5.2,8.1,11.2c1.5,5.5,0.5,9.5-1,12.1c-2.2,3.8-6.2,5.9-10,7c-0.8,0.2-1.7,0.4-2.5,0.6
			L1446.6,1042.8z M1455.7,1052c1.4-0.4,2.5-1.4,3-2.5c0.5-1,0.6-2.3,0.2-3.7c-0.4-1.5-1.4-2.7-2.5-3.3c-1.1-0.6-2.5-0.8-3.6-0.7
			L1455.7,1052z"/>
		<path d="M1492.2,1079.8l-49.6,2.7l-2-11l49.6-2.7L1492.2,1079.8z"/>
		<path d="M1475.5,1112.7l-9.5-0.2c1.7-2.4,2.3-4,2.1-6.4c-0.4-4.2-4-6.8-8.6-6.3c-4,0.4-6.2,3-5.8,6.8c0.2,2,0.9,3.4,2.9,5.7
			l-9.5-0.2c-1.7-3.7-2.2-5.2-2.4-7.8c-0.9-8.4,4.7-15,13.5-15.9c9.8-1,17.6,5.3,18.6,14.9
			C1476.9,1106.7,1476.6,1109.6,1475.5,1112.7z"/>
		<path d="M1462.1,1153.3c-9.7-0.2-16.4-7.6-16.2-18.1c0.2-10.8,6.7-18,16.2-17.9c9.4,0.2,16,7.9,15.8,18.7
			C1477.7,1146.7,1471.5,1153.5,1462.1,1153.3z M1462.7,1142c3.9,0.1,6.3-2.2,6.4-5.9c0.1-4.1-3.4-7.3-8-7.4
			c-3.9-0.1-6.4,2.3-6.5,6.1C1454.5,1138.9,1457.9,1141.9,1462.7,1142z"/>
		<path d="M1474.5,1175.8l-3.9-1.5c3.1,3.9,3.9,6.8,3.2,10.8c-0.7,4.4-2.5,6.5-6.6,7.8c3.2,4,4,7.5,3.3,11.9c-1,6-5,9.1-10.3,8.2
			c-1.3-0.2-2.6-0.5-6.2-1.6l-15.3-4.6l1.8-10.9l14.2,4.2c1.1,0.3,2.6,0.7,3.1,0.8c2.4,0.4,4.1-0.8,4.5-3c0.6-3.5-1.1-5.3-6.4-6.9
			l-13.9-4.1l1.8-11l15.2,4.5c1,0.3,1.8,0.5,2.5,0.6c2.1,0.4,3.7-0.8,4.1-3c0.5-3.2-1.5-5.3-6.4-6.8l-13.9-4.1l1.8-11l29.2,8.6
			L1474.5,1175.8z"/>
		<path d="M1445.4,1227.3c-1-0.3-3.5-1.2-5.4-0.1c-0.7,0.3-1.6,1.2-2.2,2.9c-0.3,0.9-0.4,1.9-0.1,3s0.9,1.6,1.5,2.1l-3.8,11.5
			c-1.9-1.4-3.3-3.2-4.2-4.9c-2.6-4.9-1.5-10.6-0.4-14c2-6,5.4-8.6,7.4-9.7c2.4-1.3,6.3-2.2,11.4-0.5c5.5,1.8,8.7,5.4,10.3,8.6
			c1.6,3.3,2.4,7.9,0.5,13.8c-1.8,5.4-4.9,8.1-7.6,9.5c-3.9,2-8.5,1.5-12.2,0.2c-0.8-0.3-1.6-0.6-2.4-0.9L1445.4,1227.3z
			 M1447.8,1240c1.4,0.4,2.8,0.2,3.9-0.3c1-0.5,1.8-1.5,2.3-3c0.5-1.5,0.4-3-0.2-4.1c-0.6-1.1-1.7-2.1-2.6-2.6L1447.8,1240z"/>
		<path d="M1397.1,1351.7l-14.4-31.8l4.7-6.5l10.5,3.9c2.3,0.8,3.8,1.5,6.3,2.8c-1.4-2.1-2.6-4.2-3.4-5.9l-5.6-11.6l4.8-6.6
			l30.3,9.7l-6.6,9.2l-9.4-3c-2.2-0.7-4.1-1.5-6.6-2.7c1.6,2.4,2,3,3.5,6.2l4.9,10.1l-4.3,6l-9.1-3c-2.8-0.9-4.3-1.5-6.3-2.5
			c1.2,1.9,2,3.2,2.9,5.1l5,10.9L1397.1,1351.7z"/>
		<path d="M1374.3,1349.2c-0.8-0.8-2.7-2.6-4.8-2.5c-0.8,0-2,0.4-3.2,1.7c-0.7,0.7-1.2,1.5-1.4,2.6s0.1,1.9,0.4,2.5l-8.5,8.7
			c-1.1-2.1-1.6-4.3-1.6-6.2c-0.2-5.5,3.2-10.2,5.7-12.8c4.4-4.6,8.6-5.4,10.9-5.5c2.7-0.1,6.7,0.7,10.5,4.5
			c4.2,4.1,5.5,8.7,5.5,12.3c0,3.7-1.3,8.2-5.6,12.6c-4,4.1-7.9,5.2-11,5.3c-4.4,0.1-8.3-2.4-11.1-5.1c-0.6-0.6-1.2-1.3-1.7-1.9
			L1374.3,1349.2z M1370.9,1361.7c1.1,0.9,2.5,1.4,3.7,1.4c1.1-0.1,2.3-0.6,3.3-1.7c1.1-1.1,1.6-2.6,1.6-3.8c0-1.2-0.6-2.6-1.2-3.5
			L1370.9,1361.7z"/>
		<path d="M1365.4,1407.2l-27.5-41.4l8.5-7.3l27.5,41.4L1365.4,1407.2z"/>
		<path d="M1328.6,1409.4l-4.6-8.3c2.9,0.3,4.7-0.1,6.6-1.5c3.4-2.5,3.8-6.9,1.1-10.6c-2.4-3.2-5.7-3.8-8.9-1.6
			c-1.6,1.2-2.5,2.5-3.4,5.4l-4.7-8.3c2.3-3.3,3.4-4.5,5.5-6c6.8-5,15.3-3.5,20.5,3.6c5.8,7.9,4.4,17.8-3.4,23.6
			C1334.6,1407.7,1331.8,1408.8,1328.6,1409.4z"/>
		<path d="M1286.9,1418.6c-4.9-8.4-1.9-17.9,7.2-23.2c9.4-5.4,18.9-3.5,23.6,4.7c4.7,8.1,1.4,17.8-8,23.2
			C1300.6,1428.5,1291.6,1426.7,1286.9,1418.6z M1297,1413.3c1.9,3.3,5.1,4.3,8.4,2.4c3.6-2.1,4.5-6.7,2.2-10.6
			c-1.9-3.3-5.3-4.3-8.5-2.4C1295.5,1404.7,1294.6,1409.2,1297,1413.3z"/>
		<path d="M1273.6,1440.5l-0.6-4.1c-1.8,4.6-3.9,6.8-7.7,8.2c-4.2,1.6-6.9,1.2-10.1-1.8c-1.9,4.8-4.5,7.3-8.6,8.9
			c-5.7,2.2-10.4,0.3-12.3-4.7c-0.5-1.3-0.9-2.5-1.8-6.2l-3.7-15.6l10.4-3.9l3.5,14.4c0.3,1.1,0.7,2.6,0.9,3.1
			c0.9,2.3,2.7,3.2,4.9,2.3c3.4-1.3,4-3.6,2.7-9l-3.5-14.1l10.4-4l3.8,15.4c0.3,1.1,0.5,1.8,0.7,2.5c0.8,2,2.5,2.8,4.7,2
			c3-1.2,3.8-4,2.6-8.9l-3.5-14.1l10.4-4l7.2,29.6L1273.6,1440.5z"/>
		<path d="M1214.5,1441.3c-0.2-1.1-0.8-3.6-2.6-4.7c-0.6-0.4-1.8-0.8-3.6-0.4c-0.9,0.2-1.9,0.6-2.6,1.4c-0.7,0.8-1,1.6-1,2.3
			l-11.9,2.5c0.3-2.3,1.1-4.4,2.1-6c3-4.7,8.3-6.7,11.9-7.4c6.2-1.3,10.2,0.4,12.1,1.5c2.3,1.5,5.1,4.3,6.2,9.6
			c1.2,5.7-0.3,10.3-2.3,13.3c-2.1,3.1-5.6,6.1-11.7,7.3c-5.6,1.2-9.5-0.1-12-1.8c-3.7-2.4-5.5-6.6-6.3-10.4
			c-0.2-0.9-0.3-1.7-0.4-2.5L1214.5,1441.3z M1204.7,1449.8c0.4,1.4,1.2,2.6,2.3,3.2c0.9,0.6,2.2,0.8,3.7,0.5
			c1.5-0.3,2.8-1.2,3.5-2.2c0.7-1,0.9-2.5,0.9-3.6L1204.7,1449.8z"/>
		<path d="M1066.3,1459.1l21.5-27.5l7.9,1.1l1.4,11.1c0.3,2.4,0.4,4.1,0.4,6.9c1.2-2.2,2.5-4.3,3.6-5.8l7.7-10.4l8.1,1.2l5.4,31.3
			l-11.2-1.6l-1.7-9.7c-0.4-2.2-0.6-4.3-0.7-7.1c-1.4,2.5-1.7,3.2-3.9,6l-6.7,9l-7.4-1l-1.6-9.4c-0.5-2.9-0.7-4.5-0.7-6.7
			c-1.1,2-1.9,3.3-3.2,4.9l-7.3,9.5L1066.3,1459.1z"/>
		<path d="M1058,1437.7c0.3-1,1.1-3.6,0-5.4c-0.4-0.7-1.2-1.6-3-2.1c-0.9-0.3-1.9-0.4-3,0c-1,0.3-1.6,0.9-2,1.5l-11.7-3.5
			c1.4-1.9,3.1-3.4,4.8-4.3c4.8-2.7,10.5-1.9,13.9-0.8c6.1,1.8,8.8,5.2,9.9,7.2c1.3,2.4,2.4,6.2,0.9,11.4c-1.7,5.6-5.2,8.9-8.3,10.6
			c-3.3,1.7-7.9,2.7-13.8,0.9c-5.4-1.6-8.3-4.6-9.7-7.3c-2.1-3.9-1.7-8.4-0.6-12.2c0.3-0.8,0.6-1.7,0.9-2.4L1058,1437.7z
			 M1045.4,1440.4c-0.3,1.4-0.2,2.9,0.5,3.9c0.6,0.9,1.6,1.8,3,2.2c1.5,0.4,3,0.3,4.1-0.3c1.1-0.6,2-1.7,2.5-2.7L1045.4,1440.4z"/>
		<path d="M1002.3,1456.5l24.1-43.4l10.3,4.2l-24.1,43.4L1002.3,1456.5z"/>
		<path d="M983.5,1424.8l5.2-7.9c1.1,2.7,2.2,4.1,4.3,5.2c3.8,1.9,7.9,0.2,9.9-3.9c1.8-3.6,0.8-6.9-2.7-8.6
			c-1.8-0.9-3.4-1.1-6.4-0.6l5.2-8c4,0.6,5.6,0.9,7.9,2.1c7.6,3.8,10.1,12,6.2,19.9c-4.4,8.8-13.8,12.1-22.5,7.8
			C987.8,1429.3,985.5,1427.4,983.5,1424.8z"/>
		<path d="M956.2,1392c5.3-8.2,15.1-9.9,23.9-4.2c9.1,5.8,11.8,15.1,6.7,23.2c-5.1,7.9-15.1,9.4-24.2,3.6
			C953.6,1408.7,951.1,1399.9,956.2,1392z M965.5,1398.5c-2.1,3.2-1.5,6.5,1.7,8.5c3.5,2.2,8,0.9,10.5-2.9c2.1-3.2,1.4-6.7-1.7-8.7
			C972.5,1393.2,968.1,1394.5,965.5,1398.5z"/>
		<path d="M930.6,1390.3l3.4-2.4c-4.9,0.5-7.8-0.4-10.9-3.1c-3.3-3-4.2-5.6-3.1-9.7c-5.1,0.5-8.5-0.6-11.8-3.6
			c-4.5-4.1-5-9.1-1.4-13.1c0.9-1,1.8-1.9,4.7-4.4l12.1-10.5l8.3,7.4l-11.2,9.8c-0.9,0.8-2,1.8-2.3,2.2c-1.6,1.8-1.6,3.9,0.2,5.4
			c2.7,2.4,5.1,1.9,9.2-1.7l10.9-9.6l8.3,7.4l-12,10.4c-0.8,0.7-1.4,1.3-1.9,1.8c-1.4,1.6-1.3,3.5,0.4,5.1c2.4,2.2,5.3,1.6,9.1-1.8
			l10.9-9.6l8.3,7.4l-22.9,20.1L930.6,1390.3z"/>
		<path d="M902.6,1338.2c0.8-0.7,2.9-2.4,3-4.5c0.1-0.8-0.1-2-1.3-3.4c-0.6-0.7-1.4-1.4-2.4-1.7c-1-0.3-1.9-0.1-2.5,0.1l-7.7-9.4
			c2.2-0.8,4.4-1.1,6.3-0.9c5.5,0.5,9.8,4.3,12,7.1c4,4.9,4.4,9.2,4.2,11.5c-0.2,2.7-1.5,6.5-5.6,10c-4.5,3.7-9.2,4.5-12.8,4.1
			c-3.7-0.4-8-2.2-11.9-6.9c-3.6-4.4-4.3-8.5-4-11.5c0.4-4.4,3.3-7.9,6.3-10.4c0.7-0.6,1.4-1.1,2.1-1.5L902.6,1338.2z M890.6,1333.4
			c-1.1,1-1.7,2.3-1.8,3.5c-0.1,1.1,0.3,2.3,1.3,3.5c1,1.2,2.4,1.9,3.6,2c1.2,0.1,2.6-0.3,3.6-0.8L890.6,1333.4z"/>
		<path d="M823,1231l34.6,4.8l3,7.4l-8.9,6.8c-1.9,1.5-3.3,2.4-5.8,3.8c2.5-0.1,5,0,6.8,0.2l12.8,1.4l3.1,7.6l-24.3,20.5l-4.3-10.5
			l7.6-6.4c1.8-1.4,3.4-2.7,5.8-4.2c-2.9,0.1-3.6,0.1-7.1-0.3l-11.2-1.2l-2.8-6.9l7.4-6.1c2.2-1.9,3.6-2.8,5.4-4
			c-2.2,0-3.8,0-5.8-0.3l-11.9-1.5L823,1231z"/>
		<path d="M837.3,1213.1c1.1-0.3,3.6-0.9,4.6-2.7c0.4-0.7,0.7-1.8,0.3-3.6c-0.2-0.9-0.7-1.9-1.5-2.6c-0.8-0.7-1.6-0.9-2.3-1
			l-2.8-11.8c2.3,0.2,4.5,0.9,6.1,1.9c4.8,2.8,6.9,8.2,7.7,11.6c1.5,6.2-0.1,10.2-1.2,12.2c-1.4,2.3-4.2,5.2-9.4,6.5
			c-5.7,1.4-10.3,0-13.3-1.9c-3.1-2-6.2-5.5-7.7-11.4c-1.3-5.5-0.2-9.5,1.4-12.1c2.3-3.8,6.4-5.7,10.2-6.6c0.9-0.2,1.7-0.3,2.5-0.5
			L837.3,1213.1z M828.6,1203.5c-1.4,0.4-2.5,1.3-3.1,2.3c-0.5,1-0.7,2.3-0.4,3.7c0.4,1.5,1.3,2.8,2.3,3.4c1.1,0.7,2.5,0.9,3.6,0.8
			L828.6,1203.5z"/>
		<path d="M793,1174.5l49.7-1.1l1.6,11l-49.7,1.1L793,1174.5z"/>
		<path d="M810.8,1142.3l9.5,0.5c-1.8,2.3-2.4,4-2.3,6.3c0.3,4.2,3.8,6.9,8.4,6.6c4-0.3,6.3-2.8,6.1-6.7c-0.1-2-0.8-3.5-2.7-5.8
			l9.5,0.5c1.5,3.8,2,5.3,2.2,7.9c0.6,8.4-5.2,14.8-14,15.4c-9.8,0.7-17.4-5.9-18.1-15.5C809.2,1148.2,809.6,1145.3,810.8,1142.3z"
			/>
		<path d="M825.4,1102.1c9.7,0.4,16.2,8,15.8,18.5c-0.4,10.8-7.1,17.9-16.6,17.5c-9.4-0.4-15.8-8.3-15.3-19.1
			C809.6,1108.4,816,1101.7,825.4,1102.1z M824.5,1113.5c-3.9-0.2-6.4,2-6.5,5.8c-0.2,4.1,3.2,7.4,7.8,7.6c3.9,0.2,6.5-2.2,6.6-5.9
			C832.6,1116.8,829.3,1113.6,824.5,1113.5z"/>
		<path d="M813.9,1079.2l3.8,1.7c-2.9-4-3.6-6.9-2.8-10.9c0.9-4.4,2.7-6.4,6.8-7.6c-3-4.1-3.8-7.7-2.9-12c1.2-6,5.3-8.9,10.6-7.9
			c1.3,0.3,2.6,0.6,6.2,1.8l15.2,5.1l-2.2,10.9l-14.1-4.7c-1.1-0.4-2.5-0.8-3.1-0.9c-2.4-0.5-4.1,0.6-4.6,2.9
			c-0.7,3.5,0.9,5.4,6.2,7.1l13.8,4.6l-2.2,10.9l-15.1-5c-1-0.3-1.8-0.6-2.5-0.7c-2.1-0.4-3.7,0.6-4.2,2.9c-0.6,3.2,1.3,5.4,6.2,7
			l13.8,4.6l-2.2,10.9l-28.9-9.6L813.9,1079.2z"/>
		<path d="M844.7,1028.7c1,0.4,3.5,1.3,5.4,0.3c0.7-0.3,1.6-1.1,2.3-2.8c0.3-0.9,0.5-1.9,0.2-2.9c-0.3-1-0.8-1.7-1.4-2.1l4.2-11.4
			c1.8,1.5,3.2,3.3,4,5c2.4,5,1.2,10.6-0.1,14c-2.2,6-5.7,8.4-7.8,9.5c-2.5,1.2-6.4,2-11.5,0.2c-5.5-2-8.6-5.7-10-9
			c-1.5-3.4-2.1-8,0-13.8c2-5.3,5.1-8,7.9-9.3c4-1.8,8.5-1.2,12.2,0.2c0.8,0.3,1.6,0.7,2.4,1L844.7,1028.7z M842.8,1015.9
			c-1.4-0.4-2.8-0.3-3.9,0.2c-1,0.5-1.8,1.5-2.4,2.9c-0.5,1.5-0.5,3,0.1,4.1c0.5,1.1,1.6,2.1,2.5,2.7L842.8,1015.9z"/>
		<path d="M897.2,906l13.3,32.3l-4.9,6.3l-10.4-4.2c-2.3-0.9-3.8-1.6-6.2-3.1c1.3,2.1,2.5,4.3,3.2,6l5.2,11.8l-5,6.5l-29.9-10.7
			l6.9-8.9l9.3,3.3c2.1,0.8,4.1,1.6,6.6,2.9c-1.5-2.5-1.9-3.1-3.3-6.3l-4.6-10.3l4.5-5.9l9,3.3c2.7,1,4.3,1.7,6.2,2.7
			c-1.2-1.9-1.9-3.3-2.7-5.1l-4.7-11L897.2,906z"/>
		<path d="M919.9,909.3c0.8,0.8,2.6,2.7,4.7,2.6c0.8,0,2-0.3,3.3-1.6c0.7-0.7,1.3-1.5,1.5-2.6c0.2-1,0-1.9-0.3-2.5l8.8-8.4
			c1,2.1,1.4,4.3,1.4,6.2c0,5.5-3.5,10.1-6.1,12.6c-4.6,4.4-8.8,5.1-11.1,5.1c-2.7,0-6.6-0.9-10.4-4.8c-4-4.2-5.2-8.9-5.1-12.4
			c0.1-3.7,1.5-8.1,6-12.4c4.1-3.9,8.1-5,11.1-4.9c4.4,0.1,8.2,2.6,10.9,5.5c0.6,0.6,1.2,1.3,1.7,1.9L919.9,909.3z M923.7,896.9
			c-1-1-2.4-1.5-3.6-1.5c-1.1,0-2.3,0.5-3.4,1.6c-1.1,1.1-1.7,2.5-1.7,3.7s0.5,2.6,1.1,3.5L923.7,896.9z"/>
		<path d="M930.7,851.5l26.1,42.3l-8.7,7L922,858.5L930.7,851.5z"/>
		<path d="M967.5,850.6l4.4,8.4c-2.9-0.4-4.7-0.1-6.6,1.2c-3.5,2.4-4,6.8-1.5,10.6c2.3,3.3,5.6,4,8.8,1.8c1.7-1.1,2.6-2.4,3.6-5.3
			l4.4,8.5c-2.5,3.2-3.6,4.4-5.7,5.8c-7,4.8-15.4,3-20.4-4.3c-5.5-8.1-3.8-18,4.2-23.4C961.5,852.2,964.3,851.1,967.5,850.6z"/>
		<path d="M1009.6,842.8c4.6,8.6,1.3,18-8,23c-9.6,5.1-19,2.9-23.5-5.5c-4.4-8.3-0.8-17.8,8.7-22.9
			C996.2,832.4,1005.2,834.5,1009.6,842.8z M999.4,847.8c-1.8-3.4-5-4.5-8.3-2.7c-3.6,1.9-4.7,6.5-2.6,10.6c1.8,3.4,5.1,4.5,8.4,2.7
			C1000.6,856.4,1001.6,852,999.4,847.8z"/>
		<path d="M1023.6,821.4l0.5,4.1c2-4.5,4.2-6.6,8-7.9c4.2-1.4,6.9-0.9,10,2.1c2-4.7,4.7-7.1,8.9-8.6c5.8-2,10.4,0.1,12.1,5.2
			c0.4,1.3,0.8,2.5,1.6,6.3l3.2,15.7l-10.5,3.6l-3-14.5c-0.2-1.1-0.6-2.6-0.8-3.1c-0.8-2.3-2.6-3.3-4.8-2.5c-3.4,1.2-4.2,3.5-3,8.9
			l3,14.2l-10.6,3.6l-3.2-15.5c-0.2-1.1-0.4-1.9-0.6-2.5c-0.7-2-2.4-2.9-4.6-2.1c-3.1,1-4,3.9-2.9,8.9l3,14.2l-10.6,3.6L1013,825
			L1023.6,821.4z"/>
		<path d="M1082.7,822.6c0.2,1.1,0.6,3.7,2.4,4.8c0.6,0.4,1.8,0.9,3.6,0.5c0.9-0.2,1.9-0.5,2.7-1.3c0.8-0.8,1-1.6,1.1-2.3l12-2.1
			c-0.3,2.3-1.2,4.4-2.3,6c-3.1,4.6-8.6,6.4-12.1,7c-6.3,1.1-10.1-0.7-12.1-1.9c-2.3-1.5-5-4.5-5.9-9.8c-1-5.7,0.6-10.3,2.7-13.2
			c2.2-3,5.8-5.9,11.9-7c5.6-1,9.5,0.4,12,2.2c3.6,2.5,5.3,6.8,6,10.6c0.2,0.9,0.2,1.7,0.3,2.6L1082.7,822.6z M1092.8,814.4
			c-0.3-1.4-1.1-2.6-2.1-3.3c-0.9-0.6-2.2-0.9-3.7-0.6c-1.5,0.3-2.8,1.1-3.5,2.1c-0.7,1-1,2.4-1,3.5L1092.8,814.4z"/>
	</g>
	<circle class="st1" cx="1143.4" cy="360" r="287.1"/>
	<circle class="st1" cx="1143.4" cy="72.9" r="47.6"/>
</g>
<g id="Layer_2" class="st2">
	<g class="st3">
		<line class="st4" x1="248.3" y1="270.9" x2="248.3" y2="449.1"/>
		<line class="st4" x1="471.7" y1="270.9" x2="471.7" y2="449.1"/>
		<line class="st4" x1="360" y1="382.4" x2="360" y2="560.6"/>
		<line class="st4" x1="248.3" y1="270.9" x2="360" y2="382.4"/>
		<line class="st4" x1="471.7" y1="270.9" x2="360" y2="382.4"/>
		<line class="st4" x1="248.3" y1="270.9" x2="360" y2="159.4"/>
		<line class="st4" x1="471.7" y1="270.9" x2="360" y2="159.4"/>
		<line class="st4" x1="248.3" y1="449.1" x2="360" y2="560.6"/>
		<line class="st4" x1="471.7" y1="449.1" x2="360" y2="560.6"/>
	</g>
</g>
<g id="furn">
	<g>
		<polyline class="st5" points="360,560.6 360,483.9 260.7,384.6 260.7,283.3 		"/>
		<path class="st5" d="M457.8,435.2"/>
		<path class="st5" d="M360,159.4"/>
		<line class="st5" x1="260.7" y1="384.6" x2="372.4" y2="273.1"/>
		<line class="st5" x1="372.4" y1="171.8" x2="260.7" y2="283.3"/>
		<line class="st5" x1="360" y1="483.9" x2="471.7" y2="372.4"/>
		<path class="st5" d="M457.8,386.3"/>
		<path class="st5" d="M360,483.9"/>
		<polyline class="st5" points="457.8,463 457.8,405.7 373.9,489.6 373.9,546.7 360,560.6 360,560.6 346.1,546.7 346.1,489.7 
			260.7,404.3 260.7,461.5 		"/>
		<polyline class="st5" points="443.9,419.6 443.9,449.1 457.8,463 471.7,449.1 471.7,372.4 372.4,273.1 372.4,171.8 360,159.4 
			248.3,270.9 248.3,449.1 260.7,461.5 274.6,447.3 274.6,418.2 		"/>
		<line class="st5" x1="248.3" y1="270.9" x2="260.7" y2="283.3"/>
	</g>
</g>
<g id="arch" class="st2">
	<g class="st3">
		<polygon class="st5" points="248.3,312.6 248.3,424.1 360,535.6 471.7,424.1 471.7,312.6 415.8,190.1 360,200.8 		"/>
		<polyline class="st5" points="415.8,190.1 304.1,301.7 248.3,312.6 304.1,301.7 360,424.1 360,535.6 360,424.1 471.7,312.6 		"/>
	</g>
</g>
<g id="graph" class="st2">
	<g class="st3">
		<path class="st5" d="M423,218.3c-22.4-10.1-115.1-51.8-151.8-14.9c-15.9,16-17.2,42.7-18.7,72c-2.1,43.1,10.7,56.7-0.6,78.7
			c-13,25.2-36,19.5-47.2,41.7c-14.7,29.4,5.7,79.3,41.2,104.4c38,26.8,94.6,26.2,122.2-0.7c39.5-38.5,6.4-117.7,34.1-129.7
			c22.5-9.7,49.4,40.5,80.4,31.9c28.7-7.9,47.9-62.4,35.3-104.5C505.5,255.5,464.9,237.2,423,218.3z"/>
		<path class="st6" d="M280.6,303.7L280.6,303.7c4.8-0.5,8.3-4.7,8-9.5c-0.2-2.6-0.3-5.4-0.3-8.6c0-4.8-3.8-8.7-8.6-8.9l0,0
			c-5.1-0.3-9.5,3.9-9.4,9c0,3.4,0.1,6.6,0.3,9.6C270.9,300.5,275.4,304.3,280.6,303.7z"/>
		<path class="st6" d="M247.2,395.6l0.1,0.2c2.6,4.5,8.6,5.8,12.9,2.7c7.8-5.7,16.7-14.3,23.7-27.9c7.4-14.3,9-26.9,8.7-38
			c-0.1-5.2-4.7-9.1-9.8-8.6c-0.1,0-0.2,0-0.3,0c-4.6,0.5-8,4.3-7.9,8.9c0.2,9.2-1.2,18.7-6.7,29.4c-5.3,10.2-11.8,16.9-18.4,21.6
			C245.9,386.7,244.9,391.7,247.2,395.6z"/>
	</g>
</g>
</svg>
