<?xml version="1.0" encoding="utf-8"?>
<!-- Generator: Adobe Illustrator 25.0.0, SVG Export Plug-In . SVG Version: 6.00 Build 0)  -->
<svg version="1.1" xmlns="http://www.w3.org/2000/svg" xmlns:xlink="http://www.w3.org/1999/xlink" x="0px" y="0px"
	 viewBox="0 0 1728 1728" style="enable-background:new 0 0 1728 1728;" xml:space="preserve">
<style type="text/css">
	.st0{fill:none;stroke:#000000;stroke-width:0.75;stroke-linecap:round;stroke-linejoin:round;}
	.st1{fill:none;stroke:#000000;stroke-width:0.5;stroke-linecap:round;stroke-linejoin:round;}
	.st2{fill:none;stroke:#000000;stroke-width:1.25;stroke-linecap:round;stroke-linejoin:round;}
	.st3{fill:none;stroke:#000000;stroke-width:1.75;stroke-linecap:round;stroke-linejoin:round;}
</style>
<g id="new_for_web::Visible::Curves::cuts">
	<path class="st0" d="M844.5,1112.5c0,1.7,0,3.4,0,5.1c-22.8-13.2-46.1-29.2-68.6-40.6c-22.5-11.4-44.4-18.1-66.7-27.5
		c-22.3-9.5-45-21.7-68.2-37.2c-23.2-15.5-46.8-34.2-70.1-50.1c-23.2-15.9-46.1-29.1-68.9-42.3"/>
	<path class="st0" d="M1089.2,1395.7c0-46.5,0-78.3,0-110.1c-86-8.5-137.6-64.5-221.1-127.6c0-10.6,0-21.2,0-31.8
		c-7.9-4.6-15.8-9.1-23.7-13.7c42.4-73.4,84.8-146.8,127.1-220.2"/>
	<polyline class="st0" points="995.3,937.7 900,1102.9 868.2,1158 	"/>
	<line class="st0" x1="995.3" y1="906" x2="868.2" y2="1126.2"/>
	<line class="st0" x1="1216.4" y1="1065.4" x2="1089.2" y2="1285.6"/>
</g>
<g id="new_for_web::Visible::Curves::3d_segment_2">
	<path class="st1" d="M1200.5,1203c0-46.5,0-78.3,0-110.1c-86-8.5-137.6-64.5-221.1-127.6c0-10.6,0-21.2,0-31.8
		c-7.9-4.6-15.8-9.1-23.7-13.7"/>
	<path class="st1" d="M688.5,929.6c-23.1-15.5-46.7-34.1-69.9-50c-23.2-15.9-46.1-29.1-68.9-42.3"/>
	<path class="st1" d="M1121,1340.6c0-46.5,0-78.3,0-110.1c-86-8.5-137.6-64.5-221.1-127.6c0-10.6,0-21.2,0-31.8
		c-7.9-4.6-15.8-9.1-23.7-13.7"/>
	<path class="st1" d="M688.5,891c-18-12.8-36.1-26.7-54.1-39c-23.2-15.9-46.1-29.1-68.9-42.3"/>
	<path class="st1" d="M1152.8,1285.6c0-46.5,0-78.3,0-110.1c-86-8.5-137.6-64.5-221.1-127.6c0-10.6,0-21.2,0-31.8
		c-7.9-4.6-15.8-9.1-23.7-13.7"/>
	<path class="st1" d="M789.4,1013.6c-2.2-0.9-4.4-1.8-6.5-2.7"/>
	<path class="st1" d="M743.6,995.5c-0.9-0.4-1.7-0.7-2.6-1.1c-2-0.9-4.1-1.7-6.1-2.7"/>
	<path class="st1" d="M688.5,852c-12.7-9.3-25.5-18.8-38.2-27.5c-23.2-15.9-46.1-29.1-68.9-42.3"/>
	<path class="st1" d="M1168.7,1258.1c0-46.5,0-78.3,0-110.1c-86-8.5-137.6-64.5-221.1-127.6c0-10.6,0-21.2,0-31.8
		c-7.9-4.6-15.8-9.1-23.7-13.7"/>
	<path class="st1" d="M844.5,1080.5c-11.7-7.2-23.5-14.7-35.1-21.5"/>
	<path class="st1" d="M688.5,812.8c-7.4-5.4-14.9-10.8-22.3-15.8c-23.2-15.9-46.1-29.1-68.9-42.3"/>
	<line class="st1" x1="1216.4" y1="1175.5" x2="1089.2" y2="1395.7"/>
	<path class="st1" d="M688.5,773.9c-2.1-1.5-4.3-3-6.4-4.4c-23.2-15.9-46.1-29.1-68.9-42.3"/>
	<path class="st1" d="M1184.6,1230.5c0-46.5,0-78.3,0-110.1c-86-8.5-137.6-64.5-221.1-127.6c0-10.6,0-21.2,0-31.8
		c-7.9-4.6-15.8-9.1-23.7-13.7"/>
	<path class="st1" d="M688.5,967.2c-5.2-3.2-10.5-6.6-15.8-10.1c-23.2-15.5-46.8-34.2-70.1-50.1c-23.2-15.9-46.1-29.1-68.9-42.3"/>
	<path class="st1" d="M844.5,1043.2c-5.5-3.4-10.9-6.7-16.4-10"/>
	<path class="st1" d="M688.5,735.5c-20-13.1-39.7-24.5-59.4-35.9"/>
	<path class="st1" d="M995.3,906c-7.9-4.6-15.8-9.1-23.7-13.7"/>
	<path class="st1" d="M995.3,937.7c0-10.6,0-21.2,0-31.8"/>
	<path class="st1" d="M1216.4,1065.4c-86-8.5-137.6-64.5-221.1-127.6"/>
	<path class="st1" d="M1216.4,1175.5c0-46.5,0-78.3,0-110.1"/>
	<path class="st1" d="M502,1056.6c195.8,113,391.5,226,587.3,339.1"/>
	<path class="st1" d="M502,919.8c0,40.7,0,81.4,0,136.8"/>
	<path class="st1" d="M789.4,1048.3c-8.6-4.2-17.1-7.8-25.5-11.1"/>
	<line class="st1" x1="629.1" y1="699.6" x2="502" y2="919.8"/>
	<path class="st1" d="M1136.9,1313.1c0-46.5,0-78.3,0-110.1c-86-8.5-137.6-64.5-221.1-127.6c0-10.6,0-21.2,0-31.8
		c-7.9-4.6-15.8-9.1-23.7-13.7"/>
	<path class="st1" d="M743.6,1029.3c-6.1-2.4-12.3-4.8-18.5-7.4c-4.1-1.7-8.2-3.6-12.4-5.5"/>
	<path class="st1" d="M688.5,1004c-10.5-5.8-21-12.2-31.7-19.3c-23.2-15.5-46.8-34.2-70.1-50.1c-23.2-15.9-46.1-29.1-68.9-42.3"/>
	<path class="st1" d="M1105.1,1368.2c0-46.5,0-78.3,0-110.1c-86-8.5-137.6-64.5-221.1-127.6c0-10.6,0-21.2,0-31.8
		c-7.9-4.6-15.8-9.1-23.7-13.7"/>
</g>
<g id="new_for_web::Visible::Curves::wood">
	<line class="st0" x1="836.7" y1="973.2" x2="835.4" y2="975.5"/>
	<line class="st0" x1="836.7" y1="973.2" x2="836.7" y2="970.6"/>
	<polyline class="st0" points="835.4,975.5 835.4,972.9 835.4,970.2 	"/>
	<polyline class="st0" points="840.7,961 840.7,958.4 840.7,955.7 	"/>
	<line class="st0" x1="807.9" y1="959.6" x2="835.4" y2="975.5"/>
	<line class="st0" x1="866.2" y1="795.1" x2="875.9" y2="800.7"/>
	<line class="st0" x1="839.7" y1="867.5" x2="844.5" y2="870.3"/>
	<line class="st0" x1="839.7" y1="872.8" x2="844.5" y2="875.6"/>
	<line class="st0" x1="834.4" y1="882" x2="844.5" y2="887.8"/>
	<line class="st0" x1="834.4" y1="887.3" x2="844.5" y2="893.1"/>
	<polyline class="st0" points="842,961.4 842,958.8 842,956.1 	"/>
	<line class="st0" x1="829.1" y1="901.7" x2="844.5" y2="910.6"/>
	<line class="st0" x1="823.8" y1="910.9" x2="844.5" y2="922.9"/>
	<line class="st0" x1="823.8" y1="916.2" x2="844.5" y2="928.2"/>
	<line class="st0" x1="818.5" y1="925.4" x2="844.5" y2="940.4"/>
	<line class="st0" x1="818.5" y1="930.7" x2="844.5" y2="945.7"/>
	<line class="st0" x1="813.2" y1="939.9" x2="840.7" y2="955.7"/>
	<line class="st0" x1="813.2" y1="945.2" x2="840.7" y2="961"/>
	<line class="st0" x1="807.9" y1="954.3" x2="835.4" y2="970.2"/>
	<polyline class="st0" points="807.9,954.3 807.9,957 807.9,959.6 	"/>
	<polyline class="st0" points="813.2,939.9 813.2,942.5 813.2,945.2 	"/>
	<polyline class="st0" points="818.5,925.4 818.5,928 818.5,930.7 	"/>
	<line class="st0" x1="743.5" y1="728.7" x2="738.8" y2="725.9"/>
	<polyline class="st0" points="823.8,910.9 823.8,913.6 823.8,916.2 	"/>
	<line class="st0" x1="827.7" y1="471.4" x2="831.5" y2="473.6"/>
	<polyline class="st0" points="829.1,896.4 829.1,899.1 829.1,901.7 	"/>
	<polyline class="st0" points="834.4,882 834.4,884.6 834.4,887.3 	"/>
	<polyline class="st0" points="839.7,867.5 839.7,870.1 839.7,872.8 	"/>
	<line class="st0" x1="842" y1="956.1" x2="844.5" y2="951.8"/>
	<polyline class="st0" points="818.5,930.7 814.5,937.6 813.2,939.9 	"/>
	<polyline class="st0" points="829.1,901.7 825.1,908.6 823.8,910.9 	"/>
	<line class="st0" x1="871.5" y1="496.7" x2="877.4" y2="500.1"/>
	<polyline class="st0" points="834.4,887.3 830.4,894.1 829.1,896.4 	"/>
	<polyline class="st0" points="839.7,872.8 835.7,879.7 834.4,882 	"/>
	<polyline class="st0" points="866.2,795.1 866.2,797.8 866.2,799.4 	"/>
	<line class="st0" x1="844.5" y1="890.9" x2="872" y2="906.8"/>
	<line class="st0" x1="736.8" y1="976.7" x2="810.2" y2="1019.1"/>
	<line class="st0" x1="825.2" y1="515.8" x2="815.6" y2="510.3"/>
	<line class="st0" x1="839.4" y1="751.4" x2="844.5" y2="742.6"/>
	<polyline class="st0" points="871.4,785.9 867.5,792.8 866.2,795.1 	"/>
	<polyline class="st0" points="871.4,780.6 871.4,783.3 871.4,785.9 	"/>
	<polyline class="st0" points="876.7,766.2 876.7,768.8 876.7,771.5 	"/>
	<line class="st0" x1="810.2" y1="1019.1" x2="835.4" y2="975.5"/>
	<line class="st0" x1="789.4" y1="921.2" x2="783.2" y2="917.6"/>
	<line class="st0" x1="810.2" y1="1021.8" x2="835.4" y2="978.2"/>
	<polyline class="st0" points="876.7,771.5 872.8,778.4 871.4,780.6 	"/>
	<line class="st0" x1="736.8" y1="979.4" x2="810.2" y2="1021.8"/>
	<line class="st0" x1="871.4" y1="785.9" x2="877.3" y2="789.3"/>
	<line class="st0" x1="762" y1="933.1" x2="736.8" y2="976.7"/>
	<line class="st0" x1="871.4" y1="780.6" x2="877.3" y2="784"/>
	<line class="st0" x1="789.4" y1="949" x2="762" y2="933.1"/>
	<line class="st0" x1="876.7" y1="771.5" x2="877.3" y2="771.8"/>
	<line class="st0" x1="876.7" y1="766.2" x2="877.3" y2="766.5"/>
	<line class="st0" x1="760.2" y1="705.7" x2="789.4" y2="722.6"/>
	<line class="st0" x1="824.1" y1="518.2" x2="821.9" y2="516.9"/>
	<line class="st0" x1="839.4" y1="754.1" x2="839.4" y2="751.4"/>
	<line class="st0" x1="877.4" y1="500.1" x2="870.7" y2="511.8"/>
	<line class="st0" x1="877.4" y1="502.8" x2="870.7" y2="514.4"/>
	<line class="st0" x1="877.4" y1="500.1" x2="877.4" y2="502.8"/>
	<polyline class="st0" points="785.5,918.9 787.2,916 788.5,913.7 	"/>
	<polyline class="st0" points="780.2,922.8 781.9,919.9 783.2,917.6 	"/>
	<polyline class="st0" points="769.6,930.6 771.3,927.7 772.6,925.4 	"/>
	<polyline class="st0" points="764.3,934.5 766,931.6 767.3,929.3 	"/>
	<line class="st0" x1="831.5" y1="473.6" x2="844.1" y2="480.9"/>
	<line class="st0" x1="810.2" y1="1021.8" x2="810.2" y2="1019.1"/>
	<line class="st0" x1="736.8" y1="979.4" x2="736.8" y2="976.7"/>
	<line class="st0" x1="835.4" y1="978.2" x2="835.4" y2="975.5"/>
	<polyline class="st0" points="872,906.8 985.9,709.5 1015.1,659.1 	"/>
	<polyline class="st0" points="774.9,926.7 776.6,923.8 777.9,921.5 	"/>
	<polyline class="st0" points="732.2,725.2 732.2,722.5 732.2,719.9 	"/>
	<polyline class="st0" points="971.6,736.9 985.9,712.2 1015.1,661.7 	"/>
	<line class="st0" x1="857.7" y1="855.7" x2="863" y2="858.8"/>
	<line class="st0" x1="709.9" y1="712.3" x2="732.2" y2="725.2"/>
	<line class="st0" x1="723.8" y1="697.5" x2="737.5" y2="705.4"/>
	<line class="st0" x1="720.6" y1="700.9" x2="737.5" y2="710.7"/>
	<line class="st0" x1="713.2" y1="708.9" x2="732.2" y2="719.9"/>
	<line class="st0" x1="688.5" y1="737.3" x2="679.5" y2="752.9"/>
	<line class="st0" x1="872" y1="909.5" x2="971.6" y2="736.9"/>
	<line class="st0" x1="877.3" y1="765.2" x2="876.7" y2="766.2"/>
	<polyline class="st0" points="844.5,859.1 841,865.2 839.7,867.5 	"/>
	<polyline class="st0" points="844.5,949.2 842,953.5 840.7,955.7 	"/>
	<polyline class="st0" points="737.5,710.7 733.5,717.6 732.2,719.9 	"/>
	<polyline class="st0" points="737.5,710.7 737.5,708 737.5,705.4 	"/>
	<line class="st0" x1="738.8" y1="725.9" x2="733.5" y2="722.9"/>
	<line class="st0" x1="760.2" y1="799.4" x2="789.4" y2="816.3"/>
	<polyline class="st0" points="738.8,703.1 738.8,703.1 737.5,705.4 	"/>
	<polyline class="st0" points="733.5,720.2 737.5,713.3 738.8,711 	"/>
	<line class="st0" x1="874.3" y1="539.1" x2="870.7" y2="537.1"/>
	<line class="st0" x1="732.2" y1="725.2" x2="733.5" y2="722.9"/>
	<line class="st0" x1="733.5" y1="722.9" x2="733.5" y2="720.2"/>
	<line class="st0" x1="857.7" y1="858.4" x2="861.9" y2="860.8"/>
	<line class="st0" x1="708.6" y1="769.6" x2="743.6" y2="789.8"/>
	<line class="st0" x1="806.1" y1="825.9" x2="844.5" y2="848.1"/>
	<line class="st0" x1="861.9" y1="860.8" x2="861.9" y2="860.8"/>
	<line class="st0" x1="679.5" y1="752.9" x2="688.5" y2="758"/>
	<line class="st0" x1="1015.1" y1="659.1" x2="971.6" y2="634"/>
	<line class="st0" x1="679.5" y1="755.5" x2="688.5" y2="760.7"/>
	<line class="st0" x1="679.5" y1="755.5" x2="679.5" y2="752.9"/>
	<line class="st0" x1="1015.1" y1="661.7" x2="1015.1" y2="659.1"/>
	<line class="st0" x1="806.1" y1="828.6" x2="844.5" y2="850.7"/>
	<line class="st0" x1="760.2" y1="802.1" x2="789.4" y2="819"/>
	<line class="st0" x1="863" y1="858.8" x2="861.9" y2="860.8"/>
	<line class="st0" x1="872" y1="909.5" x2="872" y2="906.8"/>
	<line class="st0" x1="789.4" y1="914.3" x2="788.5" y2="913.7"/>
	<line class="st0" x1="708.6" y1="772.3" x2="743.5" y2="792.5"/>
	<line class="st0" x1="789.4" y1="755.1" x2="760.2" y2="738.3"/>
	<line class="st0" x1="720.1" y1="682.6" x2="743.5" y2="696.1"/>
	<line class="st0" x1="806.1" y1="732.2" x2="839.4" y2="751.4"/>
	<line class="st0" x1="870.7" y1="537.1" x2="853.9" y2="527.3"/>
	<line class="st0" x1="844.5" y1="786.9" x2="806.1" y2="764.8"/>
	<polyline class="st0" points="823.8,916.2 819.8,923.1 818.5,925.4 	"/>
	<polyline class="st0" points="813.2,945.2 809.2,952 807.9,954.3 	"/>
	<line class="st0" x1="889.5" y1="812.9" x2="857.7" y2="794.6"/>
	<line class="st0" x1="861.9" y1="860.8" x2="844.5" y2="890.9"/>
	<polyline class="st0" points="836.7,970.6 840.7,963.7 842,961.4 	"/>
	<polyline class="st0" points="840.7,961 836.7,967.9 835.4,970.2 	"/>
	<line class="st0" x1="789.4" y1="942" x2="767.3" y2="929.3"/>
	<line class="st0" x1="844.5" y1="893.6" x2="844.5" y2="890.9"/>
	<line class="st0" x1="844.5" y1="893.6" x2="872" y2="909.5"/>
	<line class="st0" x1="789.4" y1="935.1" x2="772.6" y2="925.4"/>
	<line class="st0" x1="789.4" y1="928.2" x2="777.9" y2="921.5"/>
	<line class="st0" x1="971.6" y1="670.7" x2="889.5" y2="812.9"/>
	<line class="st0" x1="829.1" y1="896.4" x2="844.5" y2="905.3"/>
</g>
<g id="new_for_web::Visible::Curves::work_v2">
	<line class="st0" x1="844.5" y1="786.9" x2="844.5" y2="786.1"/>
	<path class="st0" d="M899.9,492.8c-3.5,5.5-6.9,11-10.2,16.6c-5.6,9.7-10.7,19.6-15.4,29.7"/>
	<line class="st0" x1="831" y1="769.5" x2="844.5" y2="777.3"/>
	<line class="st0" x1="831" y1="769.5" x2="831" y2="749.2"/>
	<line class="st0" x1="738.8" y1="711" x2="738.8" y2="725.9"/>
	<line class="st0" x1="906.8" y1="422.8" x2="906.8" y2="482.6"/>
	<line class="st0" x1="815.6" y1="522.4" x2="815.6" y2="513"/>
	<path class="st0" d="M916.6,376.7c-16.3,19.8-31.6,40.4-45.9,61.7"/>
	<path class="st0" d="M742.5,982.7c-2.5,3-5.1,6.1-7.7,9.1c-10.1,11.8-20.7,23.2-31.5,34.4c-4.8,4.7-9.8,9.3-14.8,13.8
		c0-101.5,0-202.9,0-304.4"/>
	<line class="st0" x1="815.6" y1="513" x2="815.6" y2="493.1"/>
	<line class="st0" x1="815.6" y1="431" x2="815.6" y2="332.3"/>
	<line class="st0" x1="899.9" y1="438.8" x2="899.9" y2="438.8"/>
	<path class="st0" d="M812.5,832.3c-2.1,2.9-4.3,5.7-6.4,8.5"/>
	<path class="st0" d="M827.1,776.9c1.3-2.5,2.6-4.9,3.9-7.4"/>
	<line class="st0" x1="971.6" y1="634" x2="971.6" y2="410"/>
	<line class="st0" x1="789.4" y1="1084.3" x2="789.4" y2="1009.7"/>
	<line class="st0" x1="854" y1="464.3" x2="854" y2="417.5"/>
	<line class="st0" x1="789.4" y1="949" x2="789.4" y2="596.9"/>
	<line class="st0" x1="743.5" y1="1062.9" x2="743.5" y2="983.3"/>
	<line class="st0" x1="743.5" y1="965.1" x2="743.5" y2="575.6"/>
	<line class="st0" x1="870.7" y1="537.1" x2="870.7" y2="511.8"/>
	<line class="st0" x1="916.6" y1="469.2" x2="916.6" y2="376.7"/>
	<path class="st0" d="M743.5,1062.9c14.7-17.9,28.7-36.4,41.8-55.6"/>
	<line class="st0" x1="899.9" y1="492.8" x2="899.9" y2="438.8"/>
	<line class="st0" x1="870.7" y1="511.8" x2="870.7" y2="498.1"/>
	<path class="st0" d="M743.5,575.6c27-32.8,51.4-67.9,72.7-104.8c21.3-36.9,39.5-75.6,54.4-115.4"/>
	<line class="st0" x1="760.2" y1="713.5" x2="760.2" y2="575.8"/>
	<path class="st0" d="M760.2,799.5C760.2,799.5,760.2,799.5,760.2,799.5"/>
	<line class="st0" x1="760.2" y1="819.5" x2="760.2" y2="799.5"/>
	<line class="st0" x1="760.2" y1="799.4" x2="760.2" y2="734.7"/>
	<path class="st0" d="M844.5,786.1c-0.1,0.2-0.3,0.4-0.4,0.6"/>
	<path class="st0" d="M708.6,798.4c5.4-5.5,10.7-11.2,15.9-17"/>
	<line class="st0" x1="971.6" y1="892.3" x2="971.6" y2="736.9"/>
	<line class="st0" x1="807.9" y1="959.6" x2="789.4" y2="984.2"/>
	<path class="st0" d="M854,464.3c-3.4,5.5-6.7,11-9.9,16.6"/>
	<path class="st0" d="M789.4,1084.3c19.8-24.1,38.2-49.4,55.1-75.7"/>
	<path class="st0" d="M789.4,596.9c27-32.8,51.4-67.9,72.7-104.8c21.3-36.9,39.5-75.6,54.4-115.4"/>
	<line class="st0" x1="877.3" y1="797.8" x2="893" y2="806.9"/>
	<line class="st0" x1="708.6" y1="713.6" x2="708.6" y2="798.4"/>
	<path class="st0" d="M971.6,410c-20.1,17.8-38.7,37.7-55.1,59.2"/>
	<path class="st0" d="M729.6,690.7c-6.7,7.9-13.8,15.6-21.1,22.9"/>
	<line class="st0" x1="688.5" y1="735.5" x2="688.5" y2="552.5"/>
	<line class="st0" x1="738.8" y1="696" x2="738.8" y2="711"/>
	<path class="st0" d="M870.7,355.3c-19.8,24.1-38.2,49.4-55.1,75.7"/>
	<line class="st0" x1="785.1" y1="748.2" x2="785.1" y2="722.7"/>
	<path class="st0" d="M760.2,734.7c4.7-6.1,9.2-12.2,13.7-18.4"/>
	<line class="st0" x1="785.1" y1="748.2" x2="789.4" y2="750.7"/>
	<line class="st0" x1="844.5" y1="1112.5" x2="844.5" y2="893.6"/>
	<line class="st0" x1="760.2" y1="799.5" x2="760.2" y2="799.4"/>
	<line class="st0" x1="844.5" y1="890.9" x2="844.5" y2="786.9"/>
	<line class="st0" x1="854" y1="527.4" x2="854" y2="527.1"/>
	<path class="st0" d="M762.9,710c-0.9,1.2-1.8,2.4-2.7,3.6"/>
	<path class="st0" d="M688.5,552.5c42.4-73.4,84.8-146.8,127.1-220.2"/>
	<line class="st0" x1="860.9" y1="401.4" x2="860.9" y2="453.4"/>
	<line class="st0" x1="844.5" y1="786.1" x2="844.5" y2="630.2"/>
	<path class="st0" d="M815.6,332.3C807,374.4,792,415.6,770.4,453c-21.6,37.4-49.8,71-81.9,99.5"/>
	<path class="st0" d="M844.5,630.2c42.4-73.4,84.8-146.8,127.1-220.2"/>
	<path class="st0" d="M874.3,804.1c1-2.1,2-4.2,3-6.3"/>
	<line class="st0" x1="877.3" y1="797.8" x2="877.3" y2="753.5"/>
	<line class="st0" x1="857.7" y1="868" x2="857.7" y2="787.4"/>
	<line class="st0" x1="857.7" y1="787.4" x2="894.8" y2="723.1"/>
	<line class="st0" x1="860.9" y1="515.5" x2="860.9" y2="531.4"/>
	<line class="st0" x1="870.7" y1="438.3" x2="870.7" y2="355.3"/>
	<line class="st0" x1="894.8" y1="723.1" x2="894.8" y2="803.8"/>
	<line class="st0" x1="806.1" y1="734.9" x2="806.1" y2="597.1"/>
	<path class="st0" d="M783.3,751.6c0.6-1.1,1.2-2.3,1.8-3.4"/>
	<path class="st0" d="M769.3,807.4c-3,4.1-6,8.1-9.1,12.1"/>
	<path class="st0" d="M827.7,471.4c9.5-17.6,18.2-35.7,26.3-54"/>
	<path class="st0" d="M870.7,498.1c10.6-19.3,20.3-39.1,29.2-59.3"/>
	<line class="st0" x1="806.1" y1="840.8" x2="806.1" y2="756.1"/>
	<line class="st0" x1="971.6" y1="634" x2="971.6" y2="670.7"/>
	<path class="st0" d="M853.9,527.3c0.1-0.1,0.1-0.2,0.2-0.3"/>
	<path class="st0" d="M824.1,517.9c0,0.1-0.1,0.2-0.1,0.2"/>
	<path class="st0" d="M807.4,733.2c-0.4,0.6-0.9,1.1-1.3,1.7"/>
	<path class="st0" d="M806.1,756.1c3.8-4.9,7.4-9.8,11.1-14.8"/>
</g>
<g id="new_for_web::SceneSilhouetteCurves::prof2">
	<line class="st2" x1="806.1" y1="597.1" x2="806.1" y2="734.9"/>
	<path class="st2" d="M899.9,438.8c2.3-5.3,4.6-10.7,6.8-16"/>
	<polyline class="st2" points="894.8,723.1 857.7,787.4 857.7,868 	"/>
	<polyline class="st2" points="806.1,840.8 806.1,756.1 817.2,741.3 	"/>
	<path class="st2" d="M760.2,575.8c20.5-26.7,39.3-54.7,56.1-83.8c3.9-6.8,7.7-13.6,11.4-20.5"/>
	<polyline class="st2" points="773.9,716.3 760.2,734.7 760.2,819.5 	"/>
	<polyline class="st2" points="708.6,798.4 708.6,713.6 729.6,690.7 	"/>
	<line class="st2" x1="789.4" y1="596.9" x2="789.4" y2="984.2"/>
	<line class="st2" x1="789.4" y1="1009.7" x2="789.4" y2="1084.3"/>
	<line class="st2" x1="743.5" y1="965.1" x2="743.5" y2="575.6"/>
	<line class="st2" x1="743.5" y1="1062.9" x2="743.5" y2="983.3"/>
	<polyline class="st2" points="877.3,753.5 877.3,797.8 874.3,804.1 	"/>
	<path class="st2" d="M854,417.5c2.3-5.3,4.6-10.7,6.8-16"/>
	<polyline class="st2" points="831,749.2 831,769.5 827.1,776.9 	"/>
	<path class="st2" d="M815.6,431c-6.1,9.6-12,19.3-17.7,29.1c-21.3,36.9-39.5,75.6-54.4,115.4"/>
	<line class="st2" x1="844.5" y1="1117.6" x2="844.5" y2="630.2"/>
	<line class="st2" x1="688.5" y1="1039.9" x2="688.5" y2="725.7"/>
	<line class="st2" x1="713.1" y1="774.9" x2="708.6" y2="782.6"/>
	<path class="st2" d="M874.3,539.1c-13.5,29.1-23.4,59.8-29.8,91"/>
	<path class="st2" d="M870.7,438.3c-5.7,8.6-11.3,17.2-16.7,26"/>
	<path class="st2" d="M844.1,480.9c-0.1,0.2-0.2,0.4-0.3,0.6c-6.9,12-13.5,24.1-19.7,36.4"/>
	<path class="st2" d="M824,518.1c-13,25.6-24.5,51.9-34.6,78.8"/>
	<polyline class="st2" points="785.1,722.7 785.1,748.2 783.3,751.6 	"/>
	<line class="st2" x1="738.8" y1="696" x2="738.8" y2="711"/>
	<polyline class="st2" points="835.4,978.2 810.2,1021.8 736.8,979.4 736.8,976.7 762,933.1 764.3,934.5 767.3,929.3 769.6,930.6 
		772.6,925.4 774.9,926.7 777.9,921.5 780.2,922.8 783.2,917.6 785.5,918.9 788.5,913.7 789.4,914.3 	"/>
	<line class="st2" x1="764.3" y1="934.5" x2="789.4" y2="949"/>
	<line class="st2" x1="769.6" y1="930.6" x2="789.4" y2="942"/>
	<line class="st2" x1="774.9" y1="926.7" x2="789.4" y2="935.1"/>
	<path class="st2" d="M916.6,469.2c-5.8,7.7-11.4,15.6-16.7,23.7"/>
	<line class="st2" x1="780.2" y1="922.8" x2="789.4" y2="928.2"/>
	<line class="st2" x1="785.5" y1="918.9" x2="789.4" y2="921.2"/>
	<polyline class="st2" points="807.9,959.6 807.9,954.3 813.2,945.2 813.2,942.5 813.2,939.9 818.5,930.7 818.5,925.4 823.8,916.2 
		823.8,910.9 829.1,901.7 829.1,896.4 834.4,887.3 834.4,882 839.7,872.8 839.7,867.5 844.5,859.1 	"/>
	<line class="st2" x1="861.9" y1="860.8" x2="857.7" y2="858.4"/>
	<line class="st2" x1="844.5" y1="850.7" x2="806.1" y2="828.6"/>
	<line class="st2" x1="789.4" y1="819" x2="760.2" y2="802.1"/>
	<path class="st2" d="M806.1,597.1c17.2-22.4,33.1-45.7,47.8-69.8"/>
	<line class="st2" x1="760.2" y1="713.5" x2="760.2" y2="575.8"/>
	<path class="st2" d="M854,527c2.8-4.6,5.5-9.2,8.1-13.8c2.9-5,5.7-10.1,8.5-15.2"/>
	<line class="st2" x1="743.5" y1="792.5" x2="708.6" y2="772.3"/>
	<polyline class="st2" points="688.5,760.7 679.5,755.5 679.5,752.9 688.5,737.3 	"/>
	<polyline class="st2" points="844.5,893.6 872,909.5 971.6,736.9 	"/>
	<line class="st2" x1="971.6" y1="670.7" x2="971.6" y2="634"/>
	<line class="st2" x1="760.2" y1="708.4" x2="789.4" y2="725.2"/>
	<line class="st2" x1="839.4" y1="754.1" x2="844.5" y2="745.2"/>
	<line class="st2" x1="720.1" y1="685.2" x2="743.6" y2="698.8"/>
	<line class="st2" x1="743.5" y1="641.9" x2="720.1" y2="682.6"/>
	<line class="st2" x1="806.1" y1="734.9" x2="839.4" y2="754.1"/>
	<line class="st2" x1="720.1" y1="685.2" x2="720.1" y2="682.6"/>
	<polyline class="st2" points="760.2,613.1 804.6,536.1 806,533.8 809.9,526.9 811.3,524.7 	"/>
	<line class="st2" x1="824.1" y1="517.9" x2="815.6" y2="513"/>
	<line class="st2" x1="818.6" y1="528.9" x2="811.3" y2="524.7"/>
	<line class="st2" x1="821.3" y1="523.5" x2="818.9" y2="522.1"/>
	<polyline class="st2" points="813.6,526 815.2,523.1 815.6,522.4 	"/>
	<line class="st2" x1="815.6" y1="522.4" x2="816.6" y2="520.8"/>
	<polyline class="st2" points="818.9,522.1 820.5,519.2 821.9,516.9 	"/>
	<line class="st2" x1="818.9" y1="522.1" x2="816.6" y2="520.8"/>
</g>
<g id="new_for_web::SceneSilhouetteCurves">
	<path class="st3" d="M1216.4,1175.5c0-46.5,0-78.3,0-110.1"/>
	<line class="st3" x1="827.7" y1="471.4" x2="831.5" y2="473.6"/>
	<path class="st3" d="M827.7,471.4c9.5-17.6,18.2-35.7,26.3-54"/>
	<path class="st3" d="M870.7,498.1c10.6-19.3,20.3-39.1,29.2-59.3"/>
	<line class="st3" x1="871.5" y1="496.7" x2="877.4" y2="500.1"/>
	<line class="st3" x1="870.7" y1="438.3" x2="870.7" y2="355.3"/>
	<path class="st3" d="M502,919.8c0,40.7,0,81.4,0,136.8"/>
	<path class="st3" d="M502,1056.6c195.8,113,391.5,226,587.3,339.1"/>
	<path class="st3" d="M1216.4,1065.4c-86-8.5-137.6-64.5-221.1-127.6"/>
	<path class="st3" d="M995.3,937.7c0-10.6,0-21.2,0-31.8"/>
	<path class="st3" d="M995.3,906c-7.9-4.6-15.8-9.1-23.7-13.7"/>
	<path class="st3" d="M688.5,552.5c42.4-73.4,84.8-146.8,127.1-220.2"/>
	<path class="st3" d="M688.5,735.5c-20-13.1-39.7-24.5-59.4-35.9"/>
	<line class="st3" x1="688.5" y1="735.5" x2="688.5" y2="552.5"/>
	<path class="st3" d="M870.7,355.3c-19.8,24.1-38.2,49.4-55.1,75.7"/>
	<path class="st3" d="M971.6,410c-20.1,17.8-38.7,37.7-55.1,59.2"/>
	<line class="st3" x1="877.4" y1="502.8" x2="870.7" y2="514.4"/>
	<line class="st3" x1="1216.4" y1="1175.5" x2="1089.2" y2="1395.7"/>
	<line class="st3" x1="629.1" y1="699.6" x2="502" y2="919.8"/>
	<line class="st3" x1="877.4" y1="500.1" x2="877.4" y2="502.8"/>
	<line class="st3" x1="831.5" y1="473.6" x2="844.1" y2="480.9"/>
	<path class="st3" d="M854,464.3c-3.4,5.5-6.7,11-9.9,16.6"/>
	<line class="st3" x1="971.6" y1="892.3" x2="971.6" y2="736.9"/>
	<polyline class="st3" points="971.6,736.9 985.9,712.2 1015.1,661.7 	"/>
	<line class="st3" x1="899.9" y1="492.8" x2="899.9" y2="438.8"/>
	<line class="st3" x1="916.6" y1="469.2" x2="916.6" y2="376.7"/>
	<line class="st3" x1="738.8" y1="725.9" x2="733.5" y2="722.9"/>
	<line class="st3" x1="870.7" y1="537.1" x2="870.7" y2="511.8"/>
	<line class="st3" x1="874.3" y1="539.1" x2="870.7" y2="537.1"/>
	<polyline class="st3" points="733.5,720.2 737.5,713.3 738.8,711 	"/>
	<line class="st3" x1="854" y1="464.3" x2="854" y2="417.5"/>
	<line class="st3" x1="733.5" y1="722.9" x2="733.5" y2="720.2"/>
	<line class="st3" x1="815.6" y1="431" x2="815.6" y2="332.3"/>
	<line class="st3" x1="971.6" y1="634" x2="971.6" y2="410"/>
	<path class="st3" d="M916.6,376.7c-16.3,19.8-31.6,40.4-45.9,61.7"/>
	<line class="st3" x1="1015.1" y1="659.1" x2="971.6" y2="634"/>
	<line class="st3" x1="738.8" y1="711" x2="738.8" y2="725.9"/>
	<line class="st3" x1="1015.1" y1="661.7" x2="1015.1" y2="659.1"/>
	<path class="st3" d="M899.9,492.8c-3.5,5.5-6.9,11-10.2,16.6c-5.6,9.7-10.7,19.6-15.4,29.7"/>
	<path class="st3" d="M824.1,517.9c0,0.1-0.1,0.2-0.1,0.2"/>
</g>
</svg>
