<?xml version="1.0" encoding="utf-8"?>
<!-- Generator: Adobe Illustrator 25.0.0, SVG Export Plug-In . SVG Version: 6.00 Build 0)  -->
<svg version="1.1" id="Layer_1" xmlns="http://www.w3.org/2000/svg" xmlns:xlink="http://www.w3.org/1999/xlink" x="0px" y="0px"
	 viewBox="0 0 18 18" style="enable-background:new 0 0 18 18;" xml:space="preserve">
<style type="text/css">
	.st0{fill:none;stroke:#010101;stroke-width:8;stroke-miterlimit:10;}
	.st1{fill:#FFFFFF;stroke:#010101;stroke-width:0.5;stroke-miterlimit:10;}
</style>
<polygon class="st1" points="9,1 10.6,3 13,2.1 13.4,4.6 15.9,5 15,7.4 17,9 15,10.6 15.9,13 13.4,13.4 13,15.9 10.6,15 9,17 
	7.4,15 5,15.9 4.6,13.4 2.1,13 3,10.6 1,9 3,7.4 2.1,5 4.6,4.6 5,2.1 7.4,3 "/>
<g>
	<path d="M12.7,4.9l-1.1,1.9C11,6.2,10.5,6,9.9,6C9.3,6,8.9,6.3,8.9,6.9c0,0.5,0.2,0.7,1.2,1.2c1.6,0.8,2.1,1.4,2.1,2.7
		c0,1.9-1.5,3.3-3.7,3.3c-1.2,0-2-0.3-3.3-1.1l1.1-1.9c0.9,0.6,1.4,0.8,2,0.8c0.8,0,1.3-0.4,1.3-1c0-0.4-0.2-0.7-1.1-1.1
		C6.9,8.9,6.4,8.3,6.4,7c0-1.8,1.5-3,3.5-3C10.9,4,11.8,4.3,12.7,4.9z"/>
</g>
</svg>
