<?xml version="1.0" encoding="utf-8"?>
<!-- Generator: Adobe Illustrator 25.0.0, SVG Export Plug-In . SVG Version: 6.00 Build 0)  -->
<svg version="1.1" xmlns="http://www.w3.org/2000/svg" xmlns:xlink="http://www.w3.org/1999/xlink" x="0px" y="0px"
	 viewBox="0 0 1728 1728" style="enable-background:new 0 0 1728 1728;" xml:space="preserve">
<style type="text/css">
	.st0{fill:none;stroke:#000000;stroke-width:0.25;stroke-linecap:round;stroke-linejoin:round;}
	.st1{fill:none;stroke:#000000;stroke-width:0.5;stroke-linecap:round;stroke-linejoin:round;}
	.st2{fill:none;stroke:#000000;stroke-linecap:round;stroke-linejoin:round;}
</style>
<g id="new_for_web::Visible::Curves::Default">
	<line class="st0" x1="810.3" y1="570.9" x2="809.4" y2="570.4"/>
	<polyline class="st0" points="882.8,342.6 797.4,490.4 780.9,518.9 	"/>
	<path class="st0" d="M803.7,597.4c-0.7,1.3-2,0.1-2.7-0.7c-0.7-1-1.4-1.8-0.6-3.1"/>
	<line class="st0" x1="787.6" y1="586.2" x2="787.8" y2="585.8"/>
	<line class="st0" x1="791.4" y1="589" x2="791.2" y2="589.4"/>
	<path class="st0" d="M790.8,590c-0.7,1.3-2,0.1-2.7-0.7c-0.7-1-1.4-1.8-0.6-3.1"/>
	<line class="st0" x1="782.4" y1="519.8" x2="782.4" y2="519.6"/>
	<line class="st0" x1="809.9" y1="535.6" x2="809.9" y2="535.5"/>
	<path class="st0" d="M791,589.5c0,0.2-0.1,0.3-0.2,0.5"/>
	<line class="st0" x1="791.2" y1="589.4" x2="791.1" y2="589.6"/>
	<line class="st0" x1="804.2" y1="596.4" x2="803.7" y2="597.4"/>
	<line class="st0" x1="899" y1="467.1" x2="913.7" y2="475.6"/>
	<line class="st0" x1="957.3" y1="621.8" x2="957.3" y2="620.7"/>
	<line class="st0" x1="1059.1" y1="445.4" x2="1059.1" y2="444.4"/>
	<line class="st0" x1="809.4" y1="1313" x2="809.4" y2="570.4"/>
	<line class="st0" x1="810.3" y1="570.9" x2="825" y2="545.4"/>
	<line class="st0" x1="810.3" y1="1317.6" x2="810.3" y2="570.9"/>
	<line class="st0" x1="957.3" y1="621.8" x2="1059.1" y2="445.4"/>
	<line class="st0" x1="824.2" y1="544.8" x2="809.4" y2="570.4"/>
	<line class="st0" x1="1059.1" y1="444.4" x2="882.8" y2="342.6"/>
	<path class="st0" d="M815.9,564.3c-0.5-0.2-0.8,0.8-1,1.1c-0.2,0.5-0.4,1-0.5,1.5c-0.1,0.5-0.8,2.6-0.1,3"/>
	<line class="st0" x1="774.9" y1="699" x2="793.8" y2="666.4"/>
	<path class="st0" d="M823.3,551.5c-0.6-0.3-0.8,0.7-1,1.1c-0.2,0.5-0.4,1-0.5,1.5c-0.1,0.5-0.8,2.6-0.1,3"/>
	<polyline class="st0" points="808.9,675.2 808.9,674.2 808.9,640.2 	"/>
	<line class="st0" x1="686.8" y1="647" x2="774.9" y2="697.9"/>
	<line class="st0" x1="793.7" y1="666.5" x2="797.4" y2="668.6"/>
	<path class="st0" d="M803.8,1284.3c0,0.3,0,0.5-0.1,0.7"/>
	<line class="st0" x1="686.8" y1="648.1" x2="686.8" y2="647"/>
	<path class="st0" d="M803.8,1301.3c0,0.3,0,0.5-0.1,0.7"/>
	<line class="st0" x1="774.9" y1="699" x2="774.9" y2="697.9"/>
	<line class="st0" x1="686.8" y1="648.1" x2="774.9" y2="699"/>
	<path class="st0" d="M814.4,569.9c0.5,0.2,0.8-0.8,1-1.1c0.2-0.5,0.4-1,0.5-1.5c0.1-0.5,0.2-1,0.3-1.5c0-0.3,0-0.5,0-0.8
		c0-0.3,0.1-0.6-0.3-0.7"/>
	<line class="st0" x1="737.7" y1="558.9" x2="686.8" y2="647"/>
	<path class="st0" d="M821.7,557.1c0.6,0.3,0.8-0.7,1-1.1c0.2-0.5,0.4-1,0.5-1.5c0.1-0.5,0.9-2.6,0.1-3"/>
	<line class="st0" x1="808" y1="673.6" x2="808" y2="641.8"/>
	<line class="st0" x1="808.9" y1="675.2" x2="809.4" y2="674.3"/>
	<line class="st0" x1="920" y1="1270.7" x2="921.1" y2="1268.9"/>
	<line class="st0" x1="899" y1="468.2" x2="899" y2="467.1"/>
	<line class="st0" x1="898" y1="468.9" x2="899" y2="467.1"/>
	<line class="st0" x1="791.1" y1="589.6" x2="790.8" y2="590"/>
	<line class="st0" x1="809.9" y1="569.4" x2="809.9" y2="536.7"/>
	<path class="st0" d="M800.4,593.6c0.1-0.1,0.1-0.2,0.2-0.3"/>
	<path class="st0" d="M804.2,596.4c-0.1,0.2-0.2,0.3-0.4,0.4"/>
	<path class="st0" d="M791.4,589c-0.1,0.2-0.2,0.3-0.4,0.4"/>
	<path class="st0" d="M822.7,552c0,1.6-0.3,2.9-1.2,4.2"/>
	<path class="st0" d="M813.8,593c-0.6-0.3-0.8,0.7-1,1.1c-0.2,0.5-0.4,1-0.5,1.5c-0.1,0.5-0.9,2.6-0.1,3"/>
	<line class="st0" x1="913.3" y1="476.3" x2="913.7" y2="475.6"/>
	<line class="st0" x1="921.1" y1="1268.8" x2="921.1" y2="1266.8"/>
	<line class="st0" x1="920" y1="1263.3" x2="920" y2="600.2"/>
	<path class="st0" d="M813.8,580.5c-0.6-0.3-0.8,0.7-1,1.1c-0.2,0.5-0.4,1-0.5,1.5c-0.1,0.5-0.9,2.6-0.1,3"/>
	<line class="st0" x1="890.6" y1="1246.3" x2="890.6" y2="583.3"/>
	<path class="st0" d="M815.1,638.6c-0.6-0.3-0.8,0.7-1,1.1c-0.2,0.5-0.4,1-0.5,1.5c-0.1,0.5-0.9,2.6-0.1,3"/>
	<line class="st0" x1="780.9" y1="583.8" x2="737.7" y2="558.9"/>
	<line class="st0" x1="809" y1="604.1" x2="809.4" y2="604.3"/>
	<path class="st0" d="M815.1,655.6c-0.6-0.3-0.8,0.7-1,1.1c-0.2,0.5-0.4,1-0.5,1.5c-0.1,0.5-0.9,2.6-0.1,3"/>
	<polyline class="st0" points="780.9,583.8 780.9,520 780.9,518.9 	"/>
	<path class="st0" d="M823.1,641.8c-0.6-0.3-0.8,0.7-1,1.1c-0.2,0.5-0.4,1-0.5,1.5c-0.1,0.5-0.9,2.6-0.1,3"/>
	<line class="st0" x1="921.1" y1="600.9" x2="957.3" y2="621.8"/>
	<path class="st0" d="M787.6,586.2c0.3-0.5,0.7-0.6,1.2-0.4c0.5,0.2,0.8,0.4,1.2,0.8c0.7,0.8,1.1,1.5,1.1,2.6"/>
	<path class="st0" d="M803.8,1301.6c-0.3,0.2-0.8,0.1-1.3-0.2c-1-0.6-1.8-2-1.8-3.2c0-0.1,0-0.2,0-0.3"/>
	<path class="st0" d="M800.6,593.3c0,0,0.1-0.1,0.1-0.1"/>
	<line class="st0" x1="898" y1="468.9" x2="912.7" y2="477.4"/>
	<line class="st0" x1="912.7" y1="477.4" x2="913.3" y2="476.3"/>
	<path class="st0" d="M800.8,593.2c1.1-0.6,1.6,0.2,2.2,1c0.6,0.7,0.9,1.4,0.9,2.4"/>
	<path class="st0" d="M791,589.4c-0.9,0.4-1.8-0.5-2.3-1.1c-0.6-0.8-0.9-1.5-0.8-2.5"/>
	<path class="st0" d="M800.3,1281.3c0.1-0.1,0.2-0.3,0.3-0.3c0.3-0.2,0.8-0.2,1.3,0.1c0.5,0.3,1,0.8,1.3,1.4
		c0.2,0.3,0.3,0.6,0.4,0.9c0,0.2,0.1,0.3,0.1,0.4c0,0.1,0,0.2,0,0.2s0,0.1,0,0.2"/>
	<path class="st0" d="M804.1,1284.2c-0.3,0.5-0.9,0.6-1.6,0.2"/>
	<path class="st0" d="M803.8,596.8c-1.8,0.9-3.8-2.5-2.9-4.2"/>
	<line class="st0" x1="797.4" y1="1306" x2="809.4" y2="1313"/>
	<line class="st0" x1="800.4" y1="593.6" x2="800.9" y2="592.7"/>
	<line class="st0" x1="797.4" y1="1306" x2="797.4" y2="668.6"/>
	<path class="st0" d="M791,589.1c0,0.1,0,0.2,0,0.4"/>
	<line class="st0" x1="809.4" y1="1351" x2="809.4" y2="1313"/>
	<path class="st0" d="M803.9,596.5c0,0.3,0,0.6-0.2,0.8"/>
	<line class="st0" x1="810.3" y1="1351.5" x2="809.4" y2="1351"/>
	<path class="st0" d="M813.9,593.2c0-0.1-0.1-0.1-0.1-0.2"/>
	<path class="st0" d="M813.9,580.7c0-0.1-0.1-0.1-0.1-0.2"/>
	<path class="st0" d="M815.4,639.6c0-0.3,0.2-0.7-0.3-0.9"/>
	<path class="st0" d="M814.5,639.1c0,1.6-0.3,2.9-1.2,4.2"/>
	<path class="st0" d="M815.4,656.6c0-0.3,0.2-0.7-0.3-0.9"/>
	<path class="st0" d="M814.5,656c0,1.6-0.3,2.9-1.2,4.2"/>
	<path class="st0" d="M823.3,642.8c0-0.3,0.2-0.7-0.3-0.9"/>
	<path class="st0" d="M822.4,642.3c0,1.6-0.3,2.9-1.2,4.2"/>
	<path class="st0" d="M812.2,598.6c0.4,0.2,0.4-0.1,0.6-0.3c0.2-0.2,0.3-0.4,0.4-0.6c0.2-0.5,0.4-0.9,0.5-1.4c0.3-1,0.7-1.8,0.2-3"
		/>
	<path class="st0" d="M812.2,586.1c0.4,0.2,0.4-0.1,0.6-0.3c0.2-0.2,0.3-0.4,0.4-0.6c0.2-0.5,0.4-0.9,0.5-1.4c0.3-1,0.7-1.8,0.2-3"
		/>
	<path class="st0" d="M813.5,644.2c0.3,0.2,0.4-0.1,0.5-0.3c0.1-0.2,0.2-0.4,0.4-0.6c0.2-0.4,0.4-0.8,0.5-1.2
		c0.3-0.8,0.5-1.7,0.5-2.6"/>
	<path class="st0" d="M813.5,661.2c0.3,0.2,0.4-0.1,0.5-0.3c0.1-0.2,0.2-0.4,0.4-0.6c0.2-0.4,0.4-0.8,0.5-1.2
		c0.3-0.8,0.5-1.7,0.5-2.6"/>
	<line class="st0" x1="821.5" y1="647.4" x2="821.3" y2="647.3"/>
	<path class="st0" d="M821.5,647.4c0.3,0.2,0.4-0.1,0.5-0.3c0.1-0.2,0.2-0.4,0.4-0.6c0.2-0.4,0.4-0.8,0.5-1.2
		c0.3-0.8,0.5-1.7,0.5-2.6"/>
	<line class="st0" x1="800.3" y1="1281.3" x2="800.9" y2="1280.4"/>
	<line class="st0" x1="804.1" y1="1284.2" x2="803.7" y2="1285"/>
	<path class="st0" d="M803.6,1285.1c-0.1,0.1-0.2,0.3-0.3,0.3c-0.3,0.2-0.8,0.2-1.3-0.1c-0.5-0.3-1-0.8-1.3-1.4
		c-0.2-0.3-0.3-0.6-0.4-0.9c0-0.2-0.1-0.3-0.1-0.5c0-0.1,0-0.1,0-0.2s0-0.1,0-0.2c0-0.3,0-0.5,0.1-0.7"/>
	<line class="st0" x1="800.3" y1="1298.3" x2="800.6" y2="1297.9"/>
	<path class="st0" d="M803.6,1302.1c-0.1,0.1-0.2,0.3-0.3,0.3c-0.3,0.2-0.8,0.2-1.3-0.1c-0.5-0.3-1-0.8-1.3-1.4
		c-0.2-0.3-0.3-0.6-0.4-0.9c0-0.2-0.1-0.3-0.1-0.5c0-0.1,0-0.1,0-0.2c0-0.1,0-0.1,0-0.2c0-0.3,0-0.5,0.1-0.7"/>
	<path class="st0" d="M815.3,564.8c0,1.5-0.3,2.8-1.2,4.1"/>
	<path class="st0" d="M813.1,593.5c0,1.6-0.3,2.9-1.2,4.2"/>
	<path class="st0" d="M813.1,581c0,1.6-0.3,2.9-1.2,4.2"/>
	<line class="st0" x1="815.7" y1="564.2" x2="815.9" y2="564.4"/>
	<line class="st0" x1="813.6" y1="592.9" x2="813.8" y2="593"/>
	<line class="st0" x1="814.9" y1="638.5" x2="815.1" y2="638.6"/>
	<line class="st0" x1="814.4" y1="655.2" x2="815.1" y2="655.6"/>
	<path class="st0" d="M814.3,655.2c0.1,0.3,0.1,0.5,0.1,0.8"/>
	<line class="st0" x1="803.7" y1="1285" x2="803.6" y2="1285.1"/>
	<path class="st0" d="M804.1,1301.2c-0.1,0.2-0.2,0.3-0.4,0.4"/>
	<line class="st0" x1="804.1" y1="1301.2" x2="803.6" y2="1302"/>
	<line class="st0" x1="797.4" y1="668.6" x2="808.9" y2="675.2"/>
	<polyline class="st0" points="780.9,518.9 809.4,535.4 957.3,620.7 	"/>
	<line class="st0" x1="827.3" y1="546.7" x2="890.7" y2="583.3"/>
	<line class="st0" x1="809.4" y1="570.4" x2="809.4" y2="536.4"/>
	<path class="st0" d="M800.3,1298.3c0.1-0.1,0.2-0.3,0.3-0.3c0.3-0.2,0.8-0.2,1.3,0.1c0.5,0.3,1,0.8,1.3,1.4
		c0.2,0.3,0.3,0.6,0.4,0.9c0,0.2,0.1,0.3,0.1,0.4c0,0.1,0,0.2,0,0.2c0,0.1,0,0.1,0,0.2"/>
	<line class="st0" x1="890.7" y1="583.3" x2="921.1" y2="600.9"/>
	<line class="st0" x1="827.3" y1="1220.3" x2="827.3" y2="546.7"/>
	<line class="st0" x1="827.3" y1="1288.1" x2="827.3" y2="1220.3"/>
	<line class="st0" x1="813.4" y1="661.1" x2="813.3" y2="661"/>
	<line class="st0" x1="803.6" y1="1302" x2="803.6" y2="1302.1"/>
	<path class="st0" d="M802.5,1284.4C802.5,1284.4,802.5,1284.4,802.5,1284.4c-1-0.6-1.8-2-1.8-3.2c0-0.1,0-0.3,0-0.4"/>
	<line class="st0" x1="780.9" y1="587.9" x2="780.9" y2="583.8"/>
	<line class="st0" x1="809.4" y1="536.4" x2="827.3" y2="546.7"/>
	<line class="st0" x1="921.1" y1="1266.8" x2="921.1" y2="600.9"/>
	<line class="st0" x1="794.2" y1="665.7" x2="808" y2="673.6"/>
	<line class="st0" x1="774.9" y1="697.9" x2="809.4" y2="638.2"/>
	<line class="st0" x1="793.8" y1="666.4" x2="808.9" y2="640.2"/>
	<polyline class="st0" points="780.9,587.9 781.9,588.4 809,604.1 	"/>
	<line class="st0" x1="957.3" y1="620.7" x2="1059.1" y2="444.4"/>
</g>
<g id="new_for_web::Visible::Curves::JOINTS">
	<line class="st0" x1="839.7" y1="1367.4" x2="839.7" y2="1335.6"/>
	<polyline class="st0" points="920,1270.7 920,1264.4 920,1263.3 	"/>
	<line class="st0" x1="919.5" y1="1272.7" x2="919.5" y2="1265.3"/>
	<line class="st0" x1="916.2" y1="1270.8" x2="919.5" y2="1272.7"/>
	<line class="st0" x1="809.4" y1="627.6" x2="809" y2="628.3"/>
	<line class="st0" x1="916.3" y1="1270.8" x2="919.5" y2="1265.3"/>
	<line class="st0" x1="811.3" y1="537.5" x2="810" y2="539.7"/>
	<path class="st0" d="M801.2,1280.9c0.2,1.2,0.7,2,1.8,2.7"/>
	<line class="st0" x1="809.9" y1="542.8" x2="810.5" y2="543.1"/>
	<line class="st0" x1="825.1" y1="1325.9" x2="825" y2="1326"/>
	<line class="st0" x1="906.3" y1="1288.2" x2="916.3" y2="1270.8"/>
	<polyline class="st0" points="890.6,1246.4 890.6,1246.3 831.9,1212.4 	"/>
	<line class="st0" x1="810.5" y1="543.1" x2="810.5" y2="568.5"/>
	<line class="st0" x1="810.5" y1="543.1" x2="813.1" y2="538.5"/>
	<line class="st0" x1="782.4" y1="612.9" x2="782.4" y2="588.7"/>
	<line class="st0" x1="869.1" y1="1352.6" x2="906.3" y2="1288.2"/>
	<line class="st0" x1="801.9" y1="1299.3" x2="802.4" y2="1298.4"/>
	<polyline class="st0" points="810.3,1351.5 839.7,1368.5 869.1,1385.4 	"/>
	<polyline class="st0" points="869.1,1351.5 919.5,1264.2 920,1263.3 	"/>
	<line class="st0" x1="831.9" y1="1212.4" x2="827.3" y2="1220.3"/>
	<polyline class="st0" points="869.1,1384.4 919.5,1297.1 920,1296.2 	"/>
	<line class="st0" x1="839.7" y1="1367.4" x2="869.1" y2="1384.4"/>
	<line class="st0" x1="840.3" y1="1366.5" x2="840.3" y2="1335.9"/>
	<line class="st0" x1="839.7" y1="1367.4" x2="840.3" y2="1366.5"/>
	<polyline class="st0" points="869.1,1385.4 915.4,1305.3 919.5,1298.2 920,1297.3 	"/>
	<line class="st0" x1="839.7" y1="1335.6" x2="869.1" y2="1352.6"/>
	<line class="st0" x1="920" y1="1297.3" x2="919.6" y2="1297"/>
	<line class="st0" x1="920" y1="1297.3" x2="920" y2="1296.2"/>
	<polyline class="st0" points="810.3,1317.6 839.7,1334.5 869.1,1351.5 	"/>
	<line class="st0" x1="920" y1="1296.2" x2="906.3" y2="1288.2"/>
	<polyline class="st0" points="827.3,1288.2 815.1,1309.3 810.9,1316.6 810.3,1317.6 	"/>
	<line class="st0" x1="795" y1="620.2" x2="782.4" y2="612.9"/>
	<line class="st0" x1="809" y1="628.3" x2="809" y2="604"/>
	<line class="st0" x1="869.1" y1="1385.4" x2="869.1" y2="1384.4"/>
	<polyline class="st0" points="921.6,1269 921.1,1270 920,1271.8 919.5,1272.7 	"/>
	<path class="st0" d="M801.2,1297.8c0.2,1.2,0.7,2.1,1.8,2.7"/>
	<line class="st0" x1="920" y1="1263.3" x2="890.6" y2="1246.4"/>
	<line class="st0" x1="869.1" y1="1352.6" x2="869.1" y2="1351.5"/>
	<line class="st0" x1="921.6" y1="1265.9" x2="921.6" y2="1269"/>
	<line class="st0" x1="921.6" y1="1265.9" x2="921.1" y2="1265.6"/>
	<line class="st0" x1="921.1" y1="1266.8" x2="921.6" y2="1265.9"/>
	<path class="st0" d="M803,1300.5c0.2,0.1,0.4,0.2,0.7,0.2"/>
	<path class="st0" d="M803,1283.5c0.2,0.1,0.5,0.2,0.8,0.2"/>
	<line class="st0" x1="809" y1="628.3" x2="795.9" y2="620.7"/>
</g>
<g id="new_for_web::Visible">
	<line class="st0" x1="921.1" y1="1268.9" x2="921.1" y2="1268.8"/>
	<line class="st0" x1="899" y1="468.2" x2="899" y2="469.5"/>
	<line class="st0" x1="795.9" y1="620.7" x2="795" y2="620.2"/>
</g>
<g id="new_for_web::SceneSilhouetteCurves::prof_2">
	<line class="st1" x1="840.3" y1="1335.9" x2="840.3" y2="1366.5"/>
	<polyline class="st1" points="840.3,1335.9 869.1,1352.6 906.3,1288.2 	"/>
	<line class="st1" x1="809.4" y1="1313" x2="809.4" y2="604.3"/>
	<line class="st1" x1="809.4" y1="570.4" x2="824.1" y2="544.9"/>
	<line class="st1" x1="827.3" y1="546.7" x2="809.4" y2="536.4"/>
	<line class="st1" x1="809.9" y1="536.7" x2="809.9" y2="569.4"/>
	<polyline class="st1" points="780.9,583.8 780.9,587.9 809.4,604.3 	"/>
	<line class="st1" x1="782.4" y1="612.9" x2="782.4" y2="588.7"/>
	<line class="st1" x1="890.6" y1="583.3" x2="921.1" y2="600.9"/>
	<polyline class="st1" points="797.4,668.6 808.9,675.2 809.4,674.3 	"/>
</g>
<g id="new_for_web::SceneSilhouetteCurves">
	<line class="st2" x1="921.1" y1="1266.8" x2="921.1" y2="600.9"/>
	<line class="st2" x1="827.3" y1="1220.3" x2="827.3" y2="546.7"/>
	<line class="st2" x1="827.3" y1="546.7" x2="890.7" y2="583.3"/>
	<line class="st2" x1="810.3" y1="1351.5" x2="809.4" y2="1351"/>
	<line class="st2" x1="809.4" y1="1351" x2="809.4" y2="1313"/>
	<line class="st2" x1="797.4" y1="1306" x2="797.4" y2="668.6"/>
	<line class="st2" x1="797.4" y1="1306" x2="809.4" y2="1313"/>
	<polyline class="st2" points="890.6,1246.4 890.6,1246.3 831.9,1212.4 	"/>
	<line class="st2" x1="921.1" y1="600.9" x2="957.3" y2="621.8"/>
	<line class="st2" x1="916.2" y1="1270.8" x2="919.5" y2="1272.7"/>
	<polyline class="st2" points="780.9,583.8 780.9,520 780.9,518.9 	"/>
	<line class="st2" x1="906.3" y1="1288.2" x2="916.3" y2="1270.8"/>
	<line class="st2" x1="780.9" y1="583.8" x2="737.7" y2="558.9"/>
	<line class="st2" x1="890.6" y1="1246.3" x2="890.6" y2="583.3"/>
	<polyline class="st2" points="810.3,1351.5 839.7,1368.5 869.1,1385.4 	"/>
	<line class="st2" x1="831.9" y1="1212.4" x2="827.3" y2="1220.3"/>
	<polyline class="st2" points="869.1,1385.4 915.4,1305.3 919.5,1298.2 920,1297.3 	"/>
	<line class="st2" x1="920" y1="1297.3" x2="920" y2="1296.2"/>
	<line class="st2" x1="920" y1="1296.2" x2="906.3" y2="1288.2"/>
	<polyline class="st2" points="921.6,1269 921.1,1270 920,1271.8 919.5,1272.7 	"/>
	<line class="st2" x1="921.6" y1="1265.9" x2="921.6" y2="1269"/>
	<line class="st2" x1="921.6" y1="1265.9" x2="921.1" y2="1265.6"/>
	<polyline class="st2" points="882.8,342.6 797.4,490.4 780.9,518.9 	"/>
	<line class="st2" x1="1059.1" y1="445.4" x2="1059.1" y2="444.4"/>
	<line class="st2" x1="957.3" y1="621.8" x2="1059.1" y2="445.4"/>
	<line class="st2" x1="1059.1" y1="444.4" x2="882.8" y2="342.6"/>
	<line class="st2" x1="774.9" y1="699" x2="793.8" y2="666.4"/>
	<line class="st2" x1="793.7" y1="666.5" x2="797.4" y2="668.6"/>
	<line class="st2" x1="686.8" y1="648.1" x2="686.8" y2="647"/>
	<line class="st2" x1="686.8" y1="648.1" x2="774.9" y2="699"/>
	<line class="st2" x1="737.7" y1="558.9" x2="686.8" y2="647"/>
</g>
</svg>
