<?xml version="1.0" encoding="utf-8"?>
<!-- Generator: Adobe Illustrator 25.0.0, SVG Export Plug-In . SVG Version: 6.00 Build 0)  -->
<svg version="1.1" xmlns="http://www.w3.org/2000/svg" xmlns:xlink="http://www.w3.org/1999/xlink" x="0px" y="0px"
	 viewBox="0 0 1728 1728" style="enable-background:new 0 0 1728 1728;" xml:space="preserve">
<style type="text/css">
	.st0{fill:none;stroke:#000000;stroke-width:0.6952;stroke-linecap:round;stroke-linejoin:round;}
	.st1{fill:none;stroke:#000000;stroke-width:1.0429;stroke-linecap:round;stroke-linejoin:round;}
	.st2{fill:none;stroke:#000000;stroke-width:1.3905;stroke-linecap:round;stroke-linejoin:round;}
</style>
<g id="shear::Visible::Curves::Default">
	<line class="st0" x1="987.2" y1="545.7" x2="984.1" y2="540.2"/>
	<line class="st0" x1="984.1" y1="1054.9" x2="984.1" y2="540.2"/>
	<line class="st0" x1="987.2" y1="1060.4" x2="984.1" y2="1054.9"/>
	<line class="st0" x1="991.5" y1="543.2" x2="988.4" y2="537.7"/>
	<line class="st0" x1="984.1" y1="540.2" x2="988.4" y2="537.7"/>
	<line class="st0" x1="991.5" y1="543.2" x2="991.5" y2="1057.9"/>
	<line class="st0" x1="991.5" y1="1057.9" x2="987.2" y2="1060.4"/>
	<line class="st0" x1="620.9" y1="718.4" x2="608.2" y2="696.5"/>
	<line class="st0" x1="608.2" y1="1303.4" x2="608.2" y2="696.5"/>
	<line class="st0" x1="620.9" y1="1325.3" x2="608.2" y2="1303.4"/>
	<line class="st0" x1="1146.5" y1="414.9" x2="1133.9" y2="393"/>
	<line class="st0" x1="608.2" y1="696.5" x2="1133.9" y2="393"/>
	<line class="st0" x1="1146.5" y1="414.9" x2="1146.5" y2="1021.9"/>
	<line class="st0" x1="1146.5" y1="1021.9" x2="620.9" y2="1325.3"/>
	<line class="st0" x1="1129.2" y1="1004.6" x2="1135.6" y2="1015.5"/>
	<line class="st0" x1="631.8" y1="1306.4" x2="1135.6" y2="1015.5"/>
	<line class="st0" x1="1000.1" y1="543.9" x2="1000.1" y2="538.2"/>
	<line class="st0" x1="1000.1" y1="543.9" x2="997" y2="538.5"/>
	<line class="st0" x1="1105" y1="477.7" x2="1101.8" y2="472.2"/>
	<line class="st0" x1="1105" y1="477.7" x2="1105" y2="483.4"/>
	<line class="st0" x1="1105" y1="483.4" x2="1000.1" y2="543.9"/>
	<line class="st0" x1="997" y1="538.5" x2="997" y2="532.7"/>
	<line class="st0" x1="997" y1="532.7" x2="1101.8" y2="472.2"/>
	<line class="st0" x1="1000.1" y1="578.3" x2="1000.1" y2="572.5"/>
	<line class="st0" x1="1000.1" y1="578.3" x2="997" y2="572.8"/>
	<line class="st0" x1="1105" y1="512" x2="1101.8" y2="506.5"/>
	<line class="st0" x1="1105" y1="512" x2="1105" y2="517.7"/>
	<line class="st0" x1="1105" y1="517.7" x2="1000.1" y2="578.3"/>
	<line class="st0" x1="997" y1="572.8" x2="997" y2="567"/>
	<line class="st0" x1="997" y1="567" x2="1101.8" y2="506.5"/>
	<line class="st0" x1="1000.1" y1="712.1" x2="1000.1" y2="706.4"/>
	<line class="st0" x1="1000.1" y1="712.1" x2="997" y2="706.6"/>
	<line class="st0" x1="1067.6" y1="667.4" x2="1064.5" y2="661.9"/>
	<line class="st0" x1="1067.6" y1="667.4" x2="1067.6" y2="673.1"/>
	<line class="st0" x1="1067.6" y1="673.1" x2="1000.1" y2="712.1"/>
	<line class="st0" x1="997" y1="706.6" x2="997" y2="700.9"/>
	<line class="st0" x1="997" y1="700.9" x2="1064.5" y2="661.9"/>
	<line class="st0" x1="1000.1" y1="693" x2="1000.1" y2="687.2"/>
	<line class="st0" x1="1000.1" y1="693" x2="997" y2="687.5"/>
	<line class="st0" x1="1078" y1="642.3" x2="1074.8" y2="636.8"/>
	<line class="st0" x1="1078" y1="642.3" x2="1078" y2="648"/>
	<line class="st0" x1="1078" y1="648" x2="1000.1" y2="693"/>
	<line class="st0" x1="997" y1="687.5" x2="997" y2="681.8"/>
	<line class="st0" x1="997" y1="681.8" x2="1074.8" y2="636.8"/>
	<line class="st0" x1="1000.1" y1="673.9" x2="1000.1" y2="668.1"/>
	<line class="st0" x1="1000.1" y1="673.9" x2="997" y2="668.4"/>
	<line class="st0" x1="1105" y1="607.6" x2="1101.8" y2="602.1"/>
	<line class="st0" x1="1105" y1="607.6" x2="1105" y2="613.3"/>
	<line class="st0" x1="1105" y1="613.3" x2="1000.1" y2="673.9"/>
	<line class="st0" x1="997" y1="668.4" x2="997" y2="662.6"/>
	<line class="st0" x1="997" y1="662.6" x2="1101.8" y2="602.1"/>
	<line class="st0" x1="1000.1" y1="654.7" x2="1000.1" y2="649"/>
	<line class="st0" x1="1000.1" y1="654.7" x2="997" y2="649.3"/>
	<line class="st0" x1="1097.5" y1="592.8" x2="1094.4" y2="587.3"/>
	<line class="st0" x1="1097.5" y1="592.8" x2="1097.5" y2="598.5"/>
	<line class="st0" x1="1097.5" y1="598.5" x2="1000.1" y2="654.7"/>
	<line class="st0" x1="997" y1="649.3" x2="997" y2="643.5"/>
	<line class="st0" x1="997" y1="643.5" x2="1094.4" y2="587.3"/>
	<line class="st0" x1="1000.1" y1="635.6" x2="1000.1" y2="629.9"/>
	<line class="st0" x1="1000.1" y1="635.6" x2="997" y2="630.1"/>
	<line class="st0" x1="1105" y1="569.3" x2="1101.8" y2="563.8"/>
	<line class="st0" x1="1105" y1="569.3" x2="1105" y2="575.1"/>
	<line class="st0" x1="1105" y1="575.1" x2="1000.1" y2="635.6"/>
	<line class="st0" x1="997" y1="630.1" x2="997" y2="624.4"/>
	<line class="st0" x1="997" y1="624.4" x2="1101.8" y2="563.8"/>
	<line class="st0" x1="1000.1" y1="616.5" x2="1000.1" y2="610.8"/>
	<line class="st0" x1="1000.1" y1="616.5" x2="997" y2="611"/>
	<line class="st0" x1="1093.4" y1="556.9" x2="1090.2" y2="551.4"/>
	<line class="st0" x1="1093.4" y1="556.9" x2="1093.4" y2="562.7"/>
	<line class="st0" x1="1093.4" y1="562.7" x2="1000.1" y2="616.5"/>
	<line class="st0" x1="997" y1="611" x2="997" y2="605.3"/>
	<line class="st0" x1="997" y1="605.3" x2="1090.2" y2="551.4"/>
	<line class="st0" x1="1000.1" y1="597.4" x2="1000.1" y2="591.6"/>
	<line class="st0" x1="1000.1" y1="597.4" x2="997" y2="591.9"/>
	<line class="st0" x1="1105" y1="531.1" x2="1101.8" y2="525.6"/>
	<line class="st0" x1="1105" y1="531.1" x2="1105" y2="536.8"/>
	<line class="st0" x1="1105" y1="536.8" x2="1000.1" y2="597.4"/>
	<line class="st0" x1="997" y1="591.9" x2="997" y2="586.2"/>
	<line class="st0" x1="997" y1="586.2" x2="1101.8" y2="525.6"/>
	<line class="st0" x1="1000.1" y1="966.9" x2="1000.1" y2="961.2"/>
	<line class="st0" x1="1000.1" y1="966.9" x2="997" y2="961.5"/>
	<line class="st0" x1="1067.6" y1="922.2" x2="1064.5" y2="916.7"/>
	<line class="st0" x1="1067.6" y1="922.2" x2="1067.6" y2="927.9"/>
	<line class="st0" x1="1067.6" y1="927.9" x2="1000.1" y2="966.9"/>
	<line class="st0" x1="997" y1="961.5" x2="997" y2="955.7"/>
	<line class="st0" x1="997" y1="955.7" x2="1064.5" y2="916.7"/>
	<line class="st0" x1="1000.1" y1="1051.8" x2="1000.1" y2="1046.1"/>
	<line class="st0" x1="1000.1" y1="1051.8" x2="997" y2="1046.3"/>
	<line class="st0" x1="1067.6" y1="1007.1" x2="1064.5" y2="1001.6"/>
	<line class="st0" x1="1067.6" y1="1007.1" x2="1067.6" y2="1012.8"/>
	<line class="st0" x1="1067.6" y1="1012.8" x2="1000.1" y2="1051.8"/>
	<line class="st0" x1="997" y1="1046.3" x2="997" y2="1040.6"/>
	<line class="st0" x1="997" y1="1040.6" x2="1064.5" y2="1001.6"/>
	<line class="st0" x1="1000.1" y1="1003" x2="1000.1" y2="997.3"/>
	<line class="st0" x1="1000.1" y1="1003" x2="997" y2="997.6"/>
	<line class="st0" x1="1099.5" y1="939.9" x2="1096.4" y2="934.4"/>
	<line class="st0" x1="1099.5" y1="939.9" x2="1099.5" y2="945.6"/>
	<line class="st0" x1="1099.5" y1="945.6" x2="1000.1" y2="1003"/>
	<line class="st0" x1="997" y1="997.6" x2="997" y2="991.8"/>
	<line class="st0" x1="997" y1="991.8" x2="1096.4" y2="934.4"/>
	<line class="st0" x1="1000.1" y1="1016.6" x2="1000.1" y2="1010.8"/>
	<line class="st0" x1="1000.1" y1="1016.6" x2="997" y2="1011.1"/>
	<line class="st0" x1="1039.6" y1="988.1" x2="1036.4" y2="982.6"/>
	<line class="st0" x1="1039.6" y1="988.1" x2="1039.6" y2="993.8"/>
	<line class="st0" x1="1039.6" y1="993.8" x2="1000.1" y2="1016.6"/>
	<line class="st0" x1="997" y1="1011.1" x2="997" y2="1005.4"/>
	<line class="st0" x1="997" y1="1005.4" x2="1036.4" y2="982.6"/>
	<line class="st0" x1="1000.1" y1="1038.2" x2="1000.1" y2="1032.5"/>
	<line class="st0" x1="1000.1" y1="1038.2" x2="997" y2="1032.8"/>
	<line class="st0" x1="1054" y1="1001.4" x2="1050.8" y2="995.9"/>
	<line class="st0" x1="1054" y1="1001.4" x2="1054" y2="1007.1"/>
	<line class="st0" x1="1054" y1="1007.1" x2="1000.1" y2="1038.2"/>
	<line class="st0" x1="997" y1="1032.8" x2="997" y2="1027"/>
	<line class="st0" x1="997" y1="1027" x2="1050.8" y2="995.9"/>
	<line class="st0" x1="631.8" y1="1291.8" x2="1129.2" y2="1004.6"/>
	<line class="st0" x1="987.2" y1="1060.4" x2="987.2" y2="545.7"/>
	<line class="st0" x1="987.2" y1="545.7" x2="991.5" y2="543.2"/>
	<line class="st0" x1="620.9" y1="1325.3" x2="620.9" y2="718.4"/>
	<line class="st0" x1="620.9" y1="718.4" x2="1146.5" y2="414.9"/>
	<line class="st0" x1="1129.2" y1="1004.6" x2="1129.2" y2="437.5"/>
	<line class="st0" x1="1135.6" y1="1015.5" x2="1135.6" y2="433.9"/>
	<line class="st0" x1="1135.6" y1="433.9" x2="631.8" y2="724.7"/>
	<line class="st0" x1="631.8" y1="724.7" x2="631.8" y2="1306.4"/>
	<line class="st0" x1="1000.1" y1="538.2" x2="997" y2="532.7"/>
	<line class="st0" x1="1000.1" y1="538.2" x2="1105" y2="477.7"/>
	<line class="st0" x1="1000.1" y1="572.5" x2="997" y2="567"/>
	<line class="st0" x1="1000.1" y1="572.5" x2="1105" y2="512"/>
	<line class="st0" x1="1000.1" y1="706.4" x2="997" y2="700.9"/>
	<line class="st0" x1="1000.1" y1="706.4" x2="1067.6" y2="667.4"/>
	<line class="st0" x1="1000.1" y1="687.2" x2="997" y2="681.8"/>
	<line class="st0" x1="1000.1" y1="687.2" x2="1078" y2="642.3"/>
	<line class="st0" x1="1000.1" y1="668.1" x2="997" y2="662.6"/>
	<line class="st0" x1="1000.1" y1="668.1" x2="1105" y2="607.6"/>
	<line class="st0" x1="1000.1" y1="649" x2="997" y2="643.5"/>
	<line class="st0" x1="1000.1" y1="649" x2="1097.5" y2="592.8"/>
	<line class="st0" x1="1000.1" y1="629.9" x2="997" y2="624.4"/>
	<line class="st0" x1="1000.1" y1="629.9" x2="1105" y2="569.3"/>
	<line class="st0" x1="1000.1" y1="610.8" x2="997" y2="605.3"/>
	<line class="st0" x1="1000.1" y1="610.8" x2="1093.4" y2="556.9"/>
	<line class="st0" x1="1000.1" y1="591.6" x2="997" y2="586.2"/>
	<line class="st0" x1="1000.1" y1="591.6" x2="1105" y2="531.1"/>
	<line class="st0" x1="1000.1" y1="961.2" x2="997" y2="955.7"/>
	<line class="st0" x1="1000.1" y1="961.2" x2="1067.6" y2="922.2"/>
	<line class="st0" x1="1000.1" y1="1046.1" x2="997" y2="1040.6"/>
	<line class="st0" x1="1000.1" y1="1046.1" x2="1067.6" y2="1007.1"/>
	<line class="st0" x1="1000.1" y1="997.3" x2="997" y2="991.8"/>
	<line class="st0" x1="1000.1" y1="997.3" x2="1099.5" y2="939.9"/>
	<line class="st0" x1="1000.1" y1="1010.8" x2="997" y2="1005.4"/>
	<line class="st0" x1="1000.1" y1="1010.8" x2="1039.6" y2="988.1"/>
	<line class="st0" x1="1000.1" y1="1032.5" x2="997" y2="1027"/>
	<line class="st0" x1="1000.1" y1="1032.5" x2="1054" y2="1001.4"/>
</g>
<g id="Layer_3">
	<line class="st1" x1="1135.6" y1="433.9" x2="631.8" y2="724.7"/>
	<line class="st1" x1="631.8" y1="724.7" x2="631.8" y2="1306.4"/>
</g>
<g id="Layer_2">
	<polygon class="st2" points="1146.5,414.9 1133.9,393 608.2,696.5 608.2,1303.4 620.9,1325.3 1146.5,1021.9 	"/>
</g>
</svg>
