<?xml version="1.0" encoding="utf-8"?>
<!-- Generator: Adobe Illustrator 25.2.3, SVG Export Plug-In . SVG Version: 6.00 Build 0)  -->
<svg version="1.1" xmlns="http://www.w3.org/2000/svg" xmlns:xlink="http://www.w3.org/1999/xlink" x="0px" y="0px"
	 viewBox="0 0 576 576" style="enable-background:new 0 0 576 576;" xml:space="preserve">
<style type="text/css">
	.st0{fill:none;stroke:#000000;stroke-linecap:round;stroke-linejoin:round;}
	.st1{fill:none;stroke:#000000;stroke-width:0.25;stroke-linecap:round;stroke-linejoin:round;}
</style>
<g id="FOR_WEBSITE::Visible::SceneSilhouetteCurves::vF::floors">
	<polygon class="st0" points="293,60.9 475.8,166.5 475.8,169.5 475.8,199.5 475.8,201 411.4,312.6 357.2,406.6 296.7,511.3 
		229.3,472.4 223.3,482.7 126,426.6 128.1,413.9 102.2,399 102.2,388.4 102.2,358.4 102.2,355.4 102.2,325.5 102.2,322 162.6,217.3 
		230.1,230.3 194.8,223.5 216.9,185.2 216.9,168.7 216.9,165.7 261.8,87.9 273.5,94.6 	"/>
</g>
<g id="FOR_WEBSITE::Visible::Curves::vF::roof">
	<line class="st1" x1="171.1" y1="337.9" x2="215" y2="261.8"/>
	<line class="st1" x1="171.1" y1="357.3" x2="215" y2="281.3"/>
	<line class="st1" x1="171.1" y1="357.3" x2="171.1" y2="337.9"/>
	<line class="st1" x1="215" y1="281.3" x2="215" y2="261.8"/>
	<line class="st1" x1="292.3" y1="267.2" x2="292.3" y2="271.7"/>
	<line class="st1" x1="231.9" y1="371.9" x2="292.3" y2="267.2"/>
	<polyline class="st1" points="231.9,371.9 231.9,377.4 231.9,395.9 	"/>
	<line class="st1" x1="268.3" y1="327.8" x2="289.7" y2="290.7"/>
	<line class="st1" x1="268.3" y1="313.3" x2="292.3" y2="271.7"/>
	<polyline class="st1" points="268.3,313.3 268.3,314.3 268.3,321.8 268.3,332.8 	"/>
	<line class="st1" x1="289.7" y1="290.7" x2="357.2" y2="303.7"/>
	<line class="st1" x1="216.5" y1="273.7" x2="227.5" y2="254.7"/>
	<polyline class="st1" points="216.5,278.7 216.5,259.2 216.5,258.2 	"/>
	<polyline class="st1" points="227.5,254.7 230.1,255.2 237.9,256.7 292.3,267.2 	"/>
	<line class="st1" x1="298.2" y1="432.2" x2="355.7" y2="332.7"/>
	<line class="st1" x1="298.2" y1="432.2" x2="298.2" y2="411.3"/>
	<line class="st1" x1="355.7" y1="332.7" x2="355.7" y2="311.8"/>
	<polyline class="st1" points="296.7,437.8 296.7,434.8 296.7,413.9 296.7,408.4 	"/>
	<line class="st1" x1="357.2" y1="333.1" x2="357.2" y2="303.7"/>
	<line class="st1" x1="475.8" y1="166.5" x2="444" y2="160.3"/>
	<line class="st1" x1="298.2" y1="411.3" x2="355.7" y2="311.8"/>
	<line class="st1" x1="233.4" y1="393.3" x2="233.4" y2="374.8"/>
	<line class="st1" x1="169.6" y1="359.9" x2="231.9" y2="371.9"/>
	<line class="st1" x1="233.4" y1="393.3" x2="266.8" y2="335.4"/>
	<line class="st1" x1="377.3" y1="192.7" x2="374.4" y2="141"/>
	<line class="st1" x1="162.6" y1="217.3" x2="230.1" y2="230.3"/>
	<line class="st1" x1="169.6" y1="335" x2="230.1" y2="230.3"/>
	<line class="st1" x1="102.2" y1="322" x2="169.6" y2="335"/>
	<line class="st1" x1="379.9" y1="194.3" x2="415.6" y2="132.4"/>
	<line class="st1" x1="231.9" y1="395.9" x2="233.4" y2="393.3"/>
	<line class="st1" x1="296.7" y1="408.4" x2="357.2" y2="303.7"/>
	<line class="st1" x1="428.4" y1="151.4" x2="444" y2="160.3"/>
	<line class="st1" x1="231.9" y1="395.9" x2="296.7" y2="408.4"/>
	<line class="st1" x1="233.4" y1="374.8" x2="266.8" y2="316.9"/>
	<line class="st1" x1="266.7" y1="335.3" x2="266.8" y2="335.4"/>
	<line class="st1" x1="215" y1="281.3" x2="216.5" y2="278.7"/>
	<line class="st1" x1="266.8" y1="335.4" x2="266.8" y2="316.9"/>
	<line class="st1" x1="355.7" y1="332.7" x2="355.5" y2="332.7"/>
	<line class="st1" x1="216.5" y1="258.2" x2="230.1" y2="234.8"/>
	<line class="st1" x1="444" y1="160.3" x2="435" y2="175.9"/>
	<line class="st1" x1="169.6" y1="359.9" x2="171.1" y2="357.3"/>
	<line class="st1" x1="102.2" y1="325.5" x2="102.2" y2="322"/>
	<line class="st1" x1="230.1" y1="230.3" x2="230.1" y2="234.8"/>
	<line class="st1" x1="381.7" y1="195.3" x2="419.4" y2="166.9"/>
	<line class="st1" x1="102.2" y1="322" x2="162.6" y2="217.3"/>
	<line class="st1" x1="266.8" y1="335.4" x2="268.3" y2="332.8"/>
	<line class="st1" x1="380.3" y1="196.3" x2="381.4" y2="195.5"/>
	<line class="st1" x1="421.8" y1="227" x2="431.4" y2="232.5"/>
	<line class="st1" x1="411.4" y1="221" x2="421.7" y2="226.9"/>
	<line class="st1" x1="401.1" y1="215" x2="411.3" y2="220.9"/>
	<line class="st1" x1="369.9" y1="197" x2="380.2" y2="202.9"/>
	<line class="st1" x1="360" y1="191.3" x2="369.8" y2="196.9"/>
	<line class="st1" x1="436" y1="227.1" x2="435" y2="175.9"/>
	<line class="st1" x1="318.7" y1="164.8" x2="303.4" y2="100"/>
	<line class="st1" x1="318.7" y1="164.8" x2="357" y2="98.5"/>
	<line class="st1" x1="253.3" y1="129.7" x2="287.9" y2="91"/>
	<line class="st1" x1="374.4" y1="141" x2="358.9" y2="132"/>
	<line class="st1" x1="253.3" y1="129.7" x2="293" y2="60.9"/>
	<line class="st1" x1="436.1" y1="235.3" x2="475.8" y2="166.5"/>
	<line class="st1" x1="253.3" y1="129.7" x2="356.2" y2="189.1"/>
	<line class="st1" x1="415.6" y1="132.4" x2="428.4" y2="151.4"/>
	<line class="st1" x1="377.6" y1="198.3" x2="380.2" y2="196.4"/>
	<line class="st1" x1="415.6" y1="132.4" x2="383.4" y2="125.4"/>
	<line class="st1" x1="377.6" y1="198.3" x2="377.3" y2="193.1"/>
	<line class="st1" x1="377.6" y1="198.3" x2="379.8" y2="194.5"/>
	<line class="st1" x1="357" y1="98.5" x2="312.4" y2="84.4"/>
	<line class="st1" x1="357" y1="98.5" x2="367.9" y2="116.4"/>
	<line class="st1" x1="318.7" y1="164.8" x2="358.9" y2="132"/>
	<line class="st1" x1="293" y1="60.9" x2="296.9" y2="75.4"/>
	<line class="st1" x1="303.4" y1="100" x2="312.4" y2="84.4"/>
	<line class="st1" x1="296.9" y1="75.4" x2="287.9" y2="91"/>
	<line class="st1" x1="383.4" y1="125.4" x2="374.4" y2="141"/>
	<line class="st1" x1="214.9" y1="281.2" x2="215" y2="281.3"/>
	<line class="st1" x1="293" y1="60.9" x2="475.8" y2="166.5"/>
	<line class="st1" x1="475.8" y1="169.5" x2="475.8" y2="166.5"/>
	<line class="st1" x1="169.6" y1="335" x2="169.6" y2="359.9"/>
</g>
<g id="FOR_WEBSITE::Visible::Curves::vF::skywalks">
	<path class="st1" d="M315.8,265.7c-3.8-2.2-7.6-4.4-11.4-6.6"/>
	<path class="st1" d="M304.5,258.8c3.8,2.2,7.6,4.4,11.4,6.6"/>
	<line class="st1" x1="337.6" y1="248.5" x2="335.4" y2="247.2"/>
	<path class="st1" d="M319.1,265.9c-0.1,0-0.1,0-0.2,0"/>
	<path class="st1" d="M299.5,259.7c0,2.8,0,5.5,0,8.3"/>
	<path class="st1" d="M299.2,268c0-2.8,0-5.5,0-8.3"/>
	<path class="st1" d="M321.9,266.2c-0.1-0.1-0.2-0.1-0.3-0.2"/>
	<line class="st1" x1="338.1" y1="247.8" x2="336.6" y2="251.9"/>
	<line class="st1" x1="326.1" y1="258.2" x2="326.1" y2="256.7"/>
	<line class="st1" x1="323.1" y1="264.9" x2="324.6" y2="262.3"/>
	<line class="st1" x1="321.6" y1="269" x2="323.1" y2="266.4"/>
	<line class="st1" x1="322.3" y1="265.9" x2="319.8" y2="272.7"/>
	<line class="st1" x1="330.6" y1="243.4" x2="322.4" y2="265.6"/>
	<line class="st1" x1="322.1" y1="265.8" x2="320" y2="271.6"/>
	<line class="st1" x1="325.3" y1="257" x2="322.2" y2="265.5"/>
	<line class="st1" x1="330.3" y1="243.3" x2="325.4" y2="256.7"/>
	<line class="st1" x1="335.3" y1="234.6" x2="330.5" y2="243"/>
	<line class="st1" x1="337.9" y1="247.7" x2="335.9" y2="253.1"/>
	<line class="st1" x1="338.3" y1="248.9" x2="338.1" y2="248.8"/>
	<line class="st1" x1="338.9" y1="247.9" x2="338.1" y2="247.5"/>
	<line class="st1" x1="330.7" y1="270.7" x2="330.7" y2="270.7"/>
	<line class="st1" x1="323.1" y1="266" x2="323.1" y2="264.9"/>
	<line class="st1" x1="320.2" y1="272.9" x2="321.6" y2="270.5"/>
	<line class="st1" x1="335.5" y1="253.7" x2="334.4" y2="253.1"/>
	<path class="st1" d="M319.1,265.5c0,0,0.1,0,0.1,0"/>
	<line class="st1" x1="319.1" y1="273.2" x2="319.1" y2="266.6"/>
	<line class="st1" x1="331.9" y1="260.1" x2="330.9" y2="259.5"/>
	<line class="st1" x1="331.6" y1="261.4" x2="330.5" y2="260.7"/>
	<line class="st1" x1="330.4" y1="264.1" x2="329.4" y2="263.6"/>
	<line class="st1" x1="329.8" y1="265.3" x2="329" y2="264.8"/>
	<line class="st1" x1="328.3" y1="267.9" x2="327.9" y2="267.7"/>
	<line class="st1" x1="325.3" y1="267.6" x2="323.1" y2="266.4"/>
	<line class="st1" x1="327.6" y1="269" x2="327.5" y2="268.9"/>
	<line class="st1" x1="325.3" y1="271.1" x2="321.6" y2="269"/>
	<line class="st1" x1="326.1" y1="271.6" x2="325.4" y2="271.2"/>
	<line class="st1" x1="325.3" y1="272.6" x2="321.6" y2="270.5"/>
	<line class="st1" x1="325.5" y1="272.7" x2="325.4" y2="272.7"/>
	<path class="st1" d="M318.6,265.9c-0.7,0-1.4,0-2.1,0"/>
	<path class="st1" d="M346,288.4c0-2.5,0-5,0-7.5"/>
	<path class="st1" d="M346.2,280.9c0,2.5,0,5,0,7.5"/>
	<path class="st1" d="M344.7,278.9c-8.3-4.8-16.7-9.6-25-14.4"/>
	<path class="st1" d="M319.7,264c8.4,4.8,16.8,9.7,25.2,14.5"/>
	<path class="st1" d="M319.7,264.4C319.7,264.4,319.7,264.4,319.7,264.4C319.7,264.4,319.7,264.4,319.7,264.4
		C319.7,264.4,319.7,264.4,319.7,264.4C319.7,264.4,319.7,264.4,319.7,264.4C319.7,264.3,319.7,264.3,319.7,264.4c0-0.1,0-0.1,0-0.1
		c0,0,0,0,0,0c0,0,0,0,0,0c0,0,0,0,0,0c0,0,0,0,0,0s0,0,0,0c0,0,0,0,0,0c0,0,0,0,0,0"/>
	<path class="st1" d="M319.7,264.4c-5.6,9.6-11.1,19.2-16.7,28.8"/>
	<path class="st1" d="M302.8,293.2c5.6-9.7,11.2-19.5,16.9-29.2"/>
	<line class="st1" x1="335.6" y1="282.4" x2="335.6" y2="273.6"/>
	<line class="st1" x1="335.8" y1="273.7" x2="335.8" y2="282.4"/>
	<line class="st1" x1="325.3" y1="276.4" x2="325.3" y2="267.6"/>
	<line class="st1" x1="325.4" y1="267.7" x2="325.4" y2="276.4"/>
	<line class="st1" x1="316.9" y1="278" x2="316.9" y2="269.4"/>
	<line class="st1" x1="317" y1="269.1" x2="317" y2="278"/>
	<line class="st1" x1="310.9" y1="288.3" x2="310.9" y2="279.7"/>
	<line class="st1" x1="311" y1="279.5" x2="311" y2="288.3"/>
	<line class="st1" x1="305" y1="289.9" x2="305" y2="293.6"/>
	<line class="st1" x1="330.6" y1="244.4" x2="335.6" y2="235.7"/>
	<line class="st1" x1="335.6" y1="234.7" x2="330.6" y2="243.4"/>
	<line class="st1" x1="327.6" y1="252.6" x2="329.1" y2="250"/>
	<line class="st1" x1="327.6" y1="254.1" x2="327.6" y2="252.6"/>
	<line class="st1" x1="326.1" y1="256.7" x2="327.6" y2="254.1"/>
	<path class="st1" d="M299.5,268c0,0.1-0.1,0.2-0.2,0.1"/>
	<path class="st1" d="M299.2,259.7c0-0.2,0-0.3,0.1-0.4c0-0.1,0.1-0.2,0.1-0.3c0,0,0-0.1,0.1-0.1c0.1-0.1,0.2-0.2,0.3-0.2
		c0.1,0,0.2-0.1,0.3-0.1"/>
	<path class="st1" d="M300.1,258.9c-0.1,0-0.2,0-0.3,0.1c-0.1,0-0.1,0.1-0.2,0.2c0,0,0,0,0,0.1c0,0.1-0.1,0.1-0.1,0.2
		c0,0.1,0,0.2,0,0.3"/>
	<path class="st1" d="M300.1,258.6c1.3,0,2.5,0,3.8,0"/>
	<path class="st1" d="M303.9,258.9c-1.3,0-2.5,0-3.8,0"/>
	<path class="st1" d="M303.9,258.6c0.1,0,0.2,0,0.3,0.1c0.1,0,0.2,0.1,0.3,0.1"/>
	<path class="st1" d="M304.4,259.1c-0.2-0.1-0.4-0.2-0.5-0.2"/>
	<path class="st1" d="M315.9,265.4c0.2,0.1,0.4,0.2,0.5,0.2"/>
	<path class="st1" d="M316.5,265.9c-0.1,0-0.2,0-0.3-0.1c-0.1,0-0.2-0.1-0.3-0.1"/>
	<path class="st1" d="M316.5,265.5c0.8,0,1.5,0,2.3,0"/>
	<path class="st1" d="M321.1,265.5c0.1,0,0.2,0,0.3,0.1c0.1,0,0.2,0.1,0.3,0.1"/>
	<path class="st1" d="M321.6,266c-0.2-0.1-0.4-0.2-0.5-0.2"/>
	<path class="st1" d="M299.3,268.1c0,0-0.1-0.1-0.1-0.1"/>
	<line class="st1" x1="324.6" y1="262.3" x2="324.6" y2="260.8"/>
	<line class="st1" x1="334" y1="256.3" x2="332.4" y2="255.4"/>
	<line class="st1" x1="333.4" y1="257.5" x2="332.4" y2="256.9"/>
	<line class="st1" x1="432.1" y1="231.4" x2="432.1" y2="224.7"/>
	<path class="st1" d="M321.1,265.9c-0.4,0-0.7,0-1.1,0"/>
	<line class="st1" x1="309.2" y1="261.9" x2="309.2" y2="270.9"/>
	<line class="st1" x1="309.1" y1="270.9" x2="309.1" y2="261.8"/>
	<line class="st1" x1="314.4" y1="281.4" x2="314.4" y2="279.5"/>
	<line class="st1" x1="328.4" y1="267.6" x2="328.4" y2="266.3"/>
	<line class="st1" x1="335.2" y1="247.1" x2="335" y2="247"/>
	<line class="st1" x1="334.8" y1="246.9" x2="330.6" y2="244.4"/>
	<path class="st1" d="M319.9,265.9c-0.2,0-0.3,0-0.5,0"/>
	<line class="st1" x1="332.1" y1="256.7" x2="332" y2="256.6"/>
	<line class="st1" x1="331.7" y1="256.5" x2="327.6" y2="254.1"/>
	<line class="st1" x1="319.2" y1="266.3" x2="319.2" y2="273"/>
	<line class="st1" x1="332.3" y1="251.9" x2="329.1" y2="250"/>
	<line class="st1" x1="333.2" y1="252.4" x2="332.5" y2="252"/>
	<line class="st1" x1="334.2" y1="253" x2="333.5" y2="252.5"/>
	<path class="st1" d="M320,265.5c0.4,0,0.7,0,1.1,0"/>
	<line class="st1" x1="334.7" y1="248.3" x2="334.4" y2="248.1"/>
	<line class="st1" x1="334.1" y1="248" x2="330.6" y2="245.9"/>
	<line class="st1" x1="338.1" y1="247.7" x2="338.1" y2="247.8"/>
	<line class="st1" x1="334.2" y1="251.5" x2="333.9" y2="251.3"/>
	<line class="st1" x1="333.7" y1="251.2" x2="332.9" y2="250.7"/>
	<line class="st1" x1="332.7" y1="250.6" x2="329.1" y2="248.5"/>
	<line class="st1" x1="330.5" y1="243.4" x2="330.6" y2="243.4"/>
	<line class="st1" x1="338" y1="247.6" x2="337.9" y2="247.7"/>
	<path class="st1" d="M319.5,265.5c0.1,0,0.2,0,0.3,0"/>
	<line class="st1" x1="330.7" y1="259.4" x2="326.1" y2="256.7"/>
	<line class="st1" x1="330.2" y1="260.6" x2="326.1" y2="258.2"/>
	<line class="st1" x1="432.2" y1="224.8" x2="432.2" y2="231.1"/>
	<line class="st1" x1="332.1" y1="255.2" x2="327.6" y2="252.6"/>
	<line class="st1" x1="319.9" y1="271.9" x2="319.6" y2="272.6"/>
	<line class="st1" x1="330.4" y1="243.2" x2="330.3" y2="243.3"/>
	<path class="st1" d="M339.6,239C339.6,239,339.6,238.9,339.6,239C339.6,238.9,339.6,238.9,339.6,239
		C339.6,238.9,339.6,238.9,339.6,239c0-0.1,0-0.1,0-0.1c0,0,0,0,0,0c0,0,0,0,0,0c0,0,0,0,0,0c0,0,0,0,0,0c0,0,0,0,0,0c0,0,0,0,0,0
		c0,0,0,0,0,0c0,0,0,0,0,0"/>
	<path class="st1" d="M338.1,247.7C338.1,247.7,338.1,247.7,338.1,247.7"/>
	<path class="st1" d="M338,247.7C338,247.7,338,247.7,338,247.7C338,247.7,338,247.7,338,247.7"/>
	<path class="st1" d="M339.4,247.9C339.4,247.9,339.4,247.9,339.4,247.9"/>
	<path class="st1" d="M332.4,260.5C332.4,260.5,332.4,260.5,332.4,260.5"/>
	<path class="st1" d="M339.4,247.9C339.4,248,339.4,248,339.4,247.9c0.1,0.1,0.1,0,0.1,0"/>
	<line class="st1" x1="339.4" y1="238.9" x2="339.4" y2="238.9"/>
	<path class="st1" d="M339.6,239.1C339.6,239.1,339.6,239.1,339.6,239.1C339.6,239,339.6,239,339.6,239.1
		C339.6,239,339.6,239,339.6,239.1"/>
	<polyline class="st1" points="338.1,239.9 338.1,239.9 338.1,239.9 	"/>
	<line class="st1" x1="329.2" y1="263.4" x2="324.6" y2="260.8"/>
	<line class="st1" x1="328.7" y1="264.7" x2="324.6" y2="262.3"/>
	<line class="st1" x1="360" y1="183.1" x2="360" y2="183.1"/>
	<line class="st1" x1="299.4" y1="292.6" x2="299.4" y2="289.1"/>
	<line class="st1" x1="288.9" y1="292" x2="288.9" y2="284.2"/>
	<line class="st1" x1="347.7" y1="204.2" x2="347.7" y2="213"/>
	<line class="st1" x1="353.7" y1="193.9" x2="353.7" y2="202.6"/>
	<path class="st1" d="M360,183.1C360,183.1,360,183,360,183.1C360,183,360,183,360,183.1C360,183,360,183,360,183.1
		c0-0.1,0-0.1,0-0.1c0,0,0,0,0,0c0,0,0,0,0,0c0,0,0,0,0,0c0,0,0,0,0,0c0,0,0,0,0,0c0,0,0,0,0,0c0,0,0,0,0,0c0,0,0,0,0,0c0,0,0,0,0,0
		c0,0,0,0,0,0c0,0,0,0,0,0"/>
	<line class="st1" x1="314.5" y1="279.1" x2="314.5" y2="281.2"/>
	<line class="st1" x1="289.1" y1="284.3" x2="289.1" y2="291.8"/>
	<path class="st1" d="M337.9,239.6c0.5-0.3,1-0.6,1.5-0.8"/>
	<polyline class="st1" points="337.9,239.6 337.9,239.7 337.9,239.7 	"/>
	<path class="st1" d="M339.5,238.8C339.5,238.8,339.5,238.8,339.5,238.8C339.5,238.8,339.5,238.8,339.5,238.8
		C339.4,238.8,339.4,238.8,339.5,238.8C339.4,238.9,339.4,238.9,339.5,238.8C339.4,238.9,339.4,238.9,339.5,238.8
		c-0.1,0.1-0.1,0.1-0.1,0.1c0,0,0,0,0,0"/>
	<path class="st1" d="M338,247.7C338,247.7,338,247.7,338,247.7C338,247.8,338,247.8,338,247.7C338,247.8,338,247.8,338,247.7
		c0.1,0.1,0.1,0.1,0.1,0c0,0,0,0,0,0c0,0,0,0,0,0c0,0,0,0,0,0c0,0,0,0,0,0"/>
	<line class="st1" x1="335.8" y1="225" x2="335.8" y2="233.8"/>
	<line class="st1" x1="339.5" y1="239.2" x2="339.5" y2="247.9"/>
	<line class="st1" x1="339.4" y1="247.9" x2="339.4" y2="239.4"/>
	<path class="st1" d="M332.1,260.5c0-2.5,0-5,0-7.4"/>
	<path class="st1" d="M332.4,253c0,2.5,0,5,0,7.4"/>
	<path class="st1" d="M332.1,253c0-0.2,0-0.4,0.1-0.7c0-0.3,0.1-0.5,0.2-0.8c0.1-0.3,0.2-0.5,0.3-0.8c0.1-0.2,0.2-0.4,0.3-0.6"/>
	<path class="st1" d="M333.1,250.4c-0.1,0.2-0.2,0.4-0.3,0.6c-0.1,0.3-0.2,0.5-0.2,0.7c-0.1,0.3-0.1,0.5-0.2,0.8
		c0,0.2-0.1,0.4-0.1,0.6"/>
	<path class="st1" d="M332.9,250.1c2.2-3.7,4.3-7.5,6.5-11.2"/>
	<path class="st1" d="M339.6,239.1c-2.2,3.8-4.3,7.5-6.5,11.3"/>
	<path class="st1" d="M339.1,239.4c-0.3,0.2-0.7,0.4-1,0.5"/>
	<path class="st1" d="M338.1,239.9c-0.4,1.1-0.8,2.2-1.2,3.2"/>
	<line class="st1" x1="337.2" y1="249.7" x2="335" y2="248.5"/>
	<line class="st1" x1="337.9" y1="247.7" x2="338" y2="247.7"/>
	<line class="st1" x1="338.1" y1="247.8" x2="338.1" y2="248.8"/>
	<line class="st1" x1="336.1" y1="252.6" x2="334.4" y2="251.6"/>
	<line class="st1" x1="338.2" y1="248.9" x2="338.2" y2="249.2"/>
	<line class="st1" x1="321.6" y1="270.5" x2="321.6" y2="269"/>
	<line class="st1" x1="323.1" y1="266.4" x2="323.1" y2="266.3"/>
	<line class="st1" x1="324.6" y1="260.8" x2="326.1" y2="258.2"/>
	<line class="st1" x1="329.1" y1="250" x2="329.1" y2="248.5"/>
	<line class="st1" x1="329.1" y1="248.5" x2="330.6" y2="245.9"/>
	<line class="st1" x1="330.6" y1="245.9" x2="330.6" y2="244.4"/>
	<line class="st1" x1="335.6" y1="235.7" x2="335.6" y2="234.7"/>
	<line class="st1" x1="330.3" y1="243.3" x2="330.4" y2="243.3"/>
	<line class="st1" x1="335.3" y1="234.6" x2="335.6" y2="234.7"/>
	<line class="st1" x1="335.6" y1="235.7" x2="343.3" y2="240.2"/>
	<line class="st1" x1="338.1" y1="247.8" x2="338.8" y2="248.2"/>
	<path class="st1" d="M336.4,244.7c-1.3,3.6-2.7,7.2-4,10.8"/>
	<path class="st1" d="M332.1,256.2c-1.5,4.1-3,8.2-4.5,12.4"/>
	<path class="st1" d="M327.5,268.9c-0.1,0.3-0.2,0.7-0.4,1"/>
	<path class="st1" d="M326.3,271.2c0.3-0.8,0.6-1.6,0.9-2.5"/>
	<path class="st1" d="M327.3,268.4c1.6-4.3,3.2-8.7,4.8-13"/>
	<path class="st1" d="M332.4,254.8c1.1-2.9,2.1-5.8,3.2-8.7"/>
	<path class="st1" d="M337.9,239.7C337.9,239.7,337.9,239.7,337.9,239.7C337.9,239.7,337.9,239.7,337.9,239.7
		C337.9,239.7,337.9,239.7,337.9,239.7C337.9,239.7,337.9,239.7,337.9,239.7C337.9,239.7,337.9,239.7,337.9,239.7
		C337.9,239.7,337.9,239.7,337.9,239.7c0,0.1,0,0.1,0,0.1c0,0,0,0,0,0c0,0,0,0,0,0c0,0,0,0,0,0s0,0,0,0c0,0,0,0,0,0c0,0,0,0,0,0
		c0,0,0,0,0,0c0,0,0,0,0,0c0,0,0,0,0,0c0,0,0,0,0,0c0,0,0,0,0,0c0,0,0,0,0,0"/>
	<line class="st1" x1="338.1" y1="241.7" x2="338.1" y2="247.7"/>
	<path class="st1" d="M332.1,260.5c0,0.1,0.2,0.2,0.2,0.1"/>
	<path class="st1" d="M336.1,244.5c0.6-1.6,1.2-3.2,1.8-4.8"/>
	<line class="st1" x1="338" y1="247.7" x2="338" y2="241.9"/>
	<path class="st1" d="M338.1,239.9C338.1,239.9,338.1,239.9,338.1,239.9C338.1,239.9,338.1,239.9,338.1,239.9
		C338.1,239.9,338.1,239.9,338.1,239.9"/>
	<line class="st1" x1="334.4" y1="250.1" x2="334.4" y2="255.8"/>
	<line class="st1" x1="334.2" y1="256" x2="334.2" y2="250.5"/>
	<line class="st1" x1="338.1" y1="240" x2="338.1" y2="241.2"/>
	<path class="st1" d="M299.6,289.1C299.5,289.1,299.5,289.1,299.6,289.1C299.5,289.1,299.5,289.1,299.6,289.1
		C299.5,289.1,299.5,289.1,299.6,289.1C299.5,289.1,299.5,289.1,299.6,289.1"/>
	<path class="st1" d="M360,183.1C360,183.1,360,183.1,360,183.1C360,183.1,360,183.1,360,183.1C360,183.1,360,183.1,360,183.1
		C360,183.1,360,183.1,360,183.1C360,183.1,360,183.1,360,183.1"/>
	<line class="st1" x1="360" y1="183.1" x2="360" y2="191.8"/>
	<line class="st1" x1="359.9" y1="191.8" x2="359.9" y2="183.3"/>
	<line class="st1" x1="341.8" y1="214.6" x2="341.8" y2="223.4"/>
	<line class="st1" x1="421.8" y1="218.8" x2="421.8" y2="227.5"/>
	<line class="st1" x1="421.7" y1="227.5" x2="421.7" y2="218.7"/>
	<line class="st1" x1="411.4" y1="212.8" x2="411.4" y2="221.5"/>
	<line class="st1" x1="338" y1="241.4" x2="338" y2="240.3"/>
	<line class="st1" x1="328.5" y1="266" x2="328.5" y2="267.4"/>
	<line class="st1" x1="411.3" y1="221.5" x2="411.3" y2="212.7"/>
	<line class="st1" x1="401.1" y1="206.8" x2="401.1" y2="215.5"/>
	<line class="st1" x1="400.9" y1="215.5" x2="400.9" y2="206.8"/>
	<path class="st1" d="M319.7,264.1C319.7,264.1,319.7,264.1,319.7,264.1C319.7,264,319.7,264,319.7,264.1
		C319.7,264,319.7,264,319.7,264.1C319.7,264,319.7,264,319.7,264.1C319.7,264,319.7,264,319.7,264.1"/>
	<line class="st1" x1="304.9" y1="293.6" x2="304.9" y2="290.1"/>
	<line class="st1" x1="390.7" y1="200.8" x2="390.7" y2="209.5"/>
	<path class="st1" d="M346.2,288.5c-0.1,0.1-0.2,0.1-0.2-0.1"/>
	<line class="st1" x1="390.6" y1="209.5" x2="390.6" y2="200.8"/>
	<line class="st1" x1="380.3" y1="194.8" x2="380.3" y2="203.5"/>
	<line class="st1" x1="380.2" y1="203.5" x2="380.2" y2="194.8"/>
	<line class="st1" x1="369.9" y1="188.9" x2="369.9" y2="197.6"/>
	<line class="st1" x1="369.8" y1="197.6" x2="369.8" y2="188.8"/>
	<line class="st1" x1="330.5" y1="235.6" x2="330.5" y2="243.4"/>
	<line class="st1" x1="330.4" y1="243.3" x2="330.4" y2="236"/>
	<line class="st1" x1="299.6" y1="289.2" x2="299.6" y2="292.6"/>
	<line class="st1" x1="320" y1="264.6" x2="320" y2="272.3"/>
	<line class="st1" x1="327.2" y1="268.8" x2="325.4" y2="267.7"/>
	<path class="st1" d="M311,288.3C311,288.4,311,288.4,311,288.3c-0.1,0.1-0.1,0-0.1,0"/>
	<line class="st1" x1="319.9" y1="271.9" x2="319.9" y2="264.6"/>
	<line class="st1" x1="325.4" y1="249.5" x2="325.4" y2="257.4"/>
	<line class="st1" x1="325.3" y1="257" x2="325.3" y2="249.8"/>
	<line class="st1" x1="327.7" y1="267.5" x2="323.1" y2="264.9"/>
	<path class="st1" d="M330.6,235.5C330.6,235.5,330.6,235.5,330.6,235.5C330.5,235.5,330.5,235.5,330.6,235.5
		C330.5,235.4,330.5,235.4,330.6,235.5C330.5,235.4,330.5,235.4,330.6,235.5C330.5,235.4,330.5,235.4,330.6,235.5
		C330.5,235.4,330.5,235.4,330.6,235.5c-0.1-0.1-0.1-0.1-0.1-0.1c0,0,0,0,0,0c0,0,0,0,0,0c0,0,0,0,0,0c0,0,0,0,0,0c0,0,0,0,0,0
		c0,0,0,0,0,0c0,0,0,0,0,0c0,0,0,0,0,0c0,0,0,0,0,0c0,0,0,0,0,0c0,0,0,0,0,0"/>
	<path class="st1" d="M335.8,224.9C335.8,224.9,335.8,224.9,335.8,224.9C335.8,224.9,335.8,224.8,335.8,224.9
		C335.8,224.8,335.8,224.8,335.8,224.9C335.8,224.8,335.8,224.8,335.8,224.9c0-0.1,0-0.1,0-0.1c0,0,0,0,0,0c0,0,0,0,0,0c0,0,0,0,0,0
		c0,0,0,0,0,0c0,0,0,0,0,0c0,0,0,0,0,0c0,0,0,0,0,0c0,0,0,0,0,0c0,0,0,0,0,0c0,0,0,0,0,0c0,0,0,0,0,0c0,0,0,0,0,0c0,0,0,0,0,0"/>
	<path class="st1" d="M303.2,291.3c-1.2-0.7-2.4-1.4-3.6-2.1"/>
	<path class="st1" d="M435.7,226.8C435.7,226.8,435.7,226.8,435.7,226.8"/>
	<path class="st1" d="M299.5,289.1C299.5,289.1,299.5,289.1,299.5,289.1C299.4,289.1,299.4,289.1,299.5,289.1
		C299.4,289.1,299.4,289.1,299.5,289.1"/>
	<path class="st1" d="M289,284.2C289,284.2,289,284.2,289,284.2C289,284.2,289,284.2,289,284.2"/>
	<path class="st1" d="M360,191.8C360,191.8,360,191.9,360,191.8c-0.1,0.1-0.1,0-0.1,0"/>
	<path class="st1" d="M299.6,289.2C299.6,289.2,299.5,289.2,299.6,289.2C299.5,289.2,299.5,289.2,299.6,289.2
		C299.5,289.2,299.5,289.2,299.6,289.2C299.5,289.2,299.5,289.2,299.6,289.2C299.5,289.1,299.5,289.1,299.6,289.2
		C299.5,289.1,299.5,289.1,299.6,289.2c0-0.1,0-0.1,0-0.1c0,0,0,0,0,0c0,0,0,0,0,0c0,0,0,0,0,0c0,0,0,0,0,0c0,0,0,0,0,0c0,0,0,0,0,0
		c0,0,0,0,0,0c0,0,0,0,0,0c0,0,0,0,0,0c0,0,0,0,0,0c0,0,0,0,0,0c0,0,0,0,0,0c0,0,0,0,0,0c0,0,0,0,0,0"/>
	<path class="st1" d="M286.1,282.5c4.5,2.1,9,4.2,13.6,6.4"/>
	<path class="st1" d="M359.9,191.8C359.9,191.8,359.9,191.8,359.9,191.8"/>
	<path class="st1" d="M421.8,227.5C421.8,227.5,421.8,227.6,421.8,227.5c-0.1,0.1-0.1,0-0.1,0"/>
	<path class="st1" d="M421.7,227.5C421.7,227.5,421.7,227.5,421.7,227.5"/>
	<path class="st1" d="M411.4,221.5C411.4,221.6,411.4,221.6,411.4,221.5c-0.1,0.1-0.1,0-0.1,0"/>
	<path class="st1" d="M411.3,221.5C411.3,221.5,411.3,221.5,411.3,221.5"/>
	<path class="st1" d="M401.1,215.5C401.1,215.6,401,215.6,401.1,215.5c-0.1,0.1-0.1,0-0.1,0"/>
	<path class="st1" d="M400.9,215.5C400.9,215.5,400.9,215.5,400.9,215.5"/>
	<path class="st1" d="M390.7,209.5C390.7,209.6,390.6,209.6,390.7,209.5c-0.1,0.1-0.1,0-0.1,0"/>
	<path class="st1" d="M390.6,209.5C390.6,209.5,390.6,209.5,390.6,209.5"/>
	<path class="st1" d="M380.3,203.5C380.3,203.6,380.3,203.6,380.3,203.5c-0.1,0.1-0.1,0-0.1,0"/>
	<path class="st1" d="M380.2,203.5C380.2,203.5,380.2,203.5,380.2,203.5"/>
	<path class="st1" d="M369.9,197.6C369.9,197.6,369.9,197.6,369.9,197.6c-0.1,0.1-0.1,0-0.1,0"/>
	<path class="st1" d="M369.8,197.6C369.8,197.5,369.8,197.5,369.8,197.6"/>
	<line class="st1" x1="353.6" y1="202.6" x2="353.6" y2="194.1"/>
	<path class="st1" d="M353.7,202.6C353.7,202.7,353.7,202.7,353.7,202.6c-0.1,0.1-0.1,0-0.1,0"/>
	<path class="st1" d="M353.6,202.6C353.6,202.6,353.6,202.6,353.6,202.6"/>
	<line class="st1" x1="347.6" y1="213" x2="347.6" y2="204.5"/>
	<path class="st1" d="M347.7,213C347.7,213,347.7,213.1,347.7,213c-0.1,0.1-0.1,0-0.1,0"/>
	<path class="st1" d="M347.6,213C347.6,213,347.6,213,347.6,213"/>
	<line class="st1" x1="341.6" y1="223.4" x2="341.6" y2="214.8"/>
	<path class="st1" d="M299.6,289.2c-4.5-2.1-9.1-4.3-13.6-6.4"/>
	<path class="st1" d="M311.7,286.1c1.7-4.7,3.5-9.4,5.2-14.2"/>
	<path class="st1" d="M317,271.6c0.8-2.2,1.6-4.5,2.5-6.7"/>
	<path class="st1" d="M319.8,264.1c3.5-9.6,7-19.2,10.6-28.7"/>
	<path class="st1" d="M330.6,235.5c-3.5,9.6-7,19.1-10.5,28.7"/>
	<path class="st1" d="M319.9,264.5c-1,2.6-1.9,5.2-2.9,7.8"/>
	<path class="st1" d="M316.9,272.7c-1.5,4-3,8-4.4,12.1"/>
	<path class="st1" d="M330.3,235.3c1.8-3.5,3.5-7.1,5.3-10.6"/>
	<path class="st1" d="M335.8,224.9c-1.7,3.5-3.5,7.1-5.2,10.6"/>
	<path class="st1" d="M359.9,182.7c25.3,14.6,50.6,29.2,75.9,43.8"/>
	<path class="st1" d="M435.7,226.8c-25.2-14.6-50.5-29.1-75.7-43.7"/>
	<path class="st1" d="M335.6,224.7c8.1-14,16.2-28,24.3-42"/>
	<path class="st1" d="M360,183.1c-8.1,13.9-16.1,27.9-24.2,41.8"/>
	<path class="st1" d="M310.9,288.3C310.9,288.3,310.9,288.3,310.9,288.3"/>
	<path class="st1" d="M317,278C317,278,317,278,317,278c-0.1,0.1-0.1,0-0.1,0"/>
	<path class="st1" d="M316.9,278C316.9,277.9,316.9,277.9,316.9,278"/>
	<path class="st1" d="M325.4,276.4C325.4,276.5,325.4,276.5,325.4,276.4c-0.1,0.1-0.1,0-0.1,0"/>
	<path class="st1" d="M325.3,276.4C325.3,276.4,325.3,276.4,325.3,276.4"/>
	<path class="st1" d="M335.8,282.4C335.8,282.5,335.7,282.5,335.8,282.4c-0.1,0.1-0.1,0-0.1,0"/>
	<path class="st1" d="M335.6,282.4C335.6,282.4,335.6,282.4,335.6,282.4"/>
	<line class="st1" x1="319.7" y1="264" x2="319.7" y2="264"/>
	<path class="st1" d="M344.8,278.5c0.2,0.1,0.4,0.3,0.5,0.4c0.2,0.2,0.3,0.4,0.5,0.6c0.1,0.2,0.2,0.5,0.3,0.7
		c0.1,0.2,0.1,0.5,0.1,0.7"/>
	<path class="st1" d="M346,280.9c0-0.2,0-0.4-0.1-0.5c-0.1-0.2-0.2-0.4-0.3-0.6c-0.1-0.2-0.2-0.4-0.4-0.6c-0.1-0.1-0.3-0.3-0.5-0.4"
		/>
	<path class="st1" d="M346.2,288.4C346.2,288.4,346.2,288.5,346.2,288.4"/>
	<line class="st1" x1="319.7" y1="264.4" x2="319.7" y2="264.4"/>
	<path class="st1" d="M341.8,223.4C341.8,223.4,341.7,223.4,341.8,223.4c-0.1,0.1-0.1,0-0.1,0"/>
	<path class="st1" d="M341.6,223.4C341.6,223.4,341.6,223.4,341.6,223.4"/>
	<line class="st1" x1="335.6" y1="233.8" x2="335.6" y2="225.3"/>
	<path class="st1" d="M335.8,233.8C335.8,233.8,335.7,233.8,335.8,233.8c-0.1,0.1-0.1,0-0.1,0"/>
	<path class="st1" d="M335.6,233.8C335.6,233.7,335.6,233.7,335.6,233.8"/>
	<path class="st1" d="M299.6,288.8c1.2,0.7,2.5,1.4,3.7,2.1"/>
	<path class="st1" d="M330.6,235.5C330.6,235.5,330.6,235.5,330.6,235.5C330.6,235.5,330.6,235.5,330.6,235.5"/>
	<path class="st1" d="M335.8,224.9C335.8,224.9,335.8,224.9,335.8,224.9C335.8,224.9,335.8,224.9,335.8,224.9
		C335.8,224.9,335.8,224.9,335.8,224.9"/>
	<line class="st1" x1="359.9" y1="182.7" x2="359.9" y2="182.7"/>
	<path class="st1" d="M435.8,226.5C435.7,226.5,435.7,226.5,435.8,226.5C435.7,226.5,435.7,226.5,435.8,226.5
		c-0.1,0.1-0.1,0.1-0.1,0.1c0,0,0,0.1,0,0.2"/>
	<path class="st1" d="M435.7,226.8C435.7,226.8,435.7,226.8,435.7,226.8C435.7,226.8,435.7,226.8,435.7,226.8
		c0.1-0.1,0.1-0.1,0.1-0.1c0,0,0-0.1,0-0.1c0,0,0-0.1,0-0.1"/>
	<line class="st1" x1="335.6" y1="224.7" x2="335.6" y2="224.7"/>
	<line class="st1" x1="319.7" y1="264.4" x2="319.7" y2="264.4"/>
	<path class="st1" d="M321.7,265.7c0.1,0.1,0.2,0.1,0.3,0.2"/>
</g>
<g id="FOR_WEBSITE::Visible::Curves::vF::floors">
	<line class="st1" x1="390.6" y1="208.9" x2="380.3" y2="203"/>
	<line class="st1" x1="358.2" y1="277.5" x2="331.6" y2="262.1"/>
	<line class="st1" x1="331.6" y1="260.6" x2="358.8" y2="276.4"/>
	<line class="st1" x1="339.4" y1="247" x2="332.4" y2="259.2"/>
	<line class="st1" x1="332.1" y1="259.7" x2="331.6" y2="260.6"/>
	<line class="st1" x1="335.6" y1="281.8" x2="325.4" y2="275.9"/>
	<line class="st1" x1="185.3" y1="436.4" x2="179.3" y2="446.8"/>
	<line class="st1" x1="230.1" y1="217.7" x2="223.5" y2="229"/>
	<line class="st1" x1="230.1" y1="213.2" x2="221.2" y2="228.6"/>
	<line class="st1" x1="331.6" y1="262.1" x2="331.6" y2="260.6"/>
	<line class="st1" x1="319.5" y1="272.5" x2="317" y2="276.8"/>
	<line class="st1" x1="185.3" y1="436.4" x2="229.3" y2="466.5"/>
	<line class="st1" x1="229.3" y1="466.5" x2="223.3" y2="476.9"/>
	<line class="st1" x1="223.3" y1="476.9" x2="179.3" y2="446.8"/>
	<line class="st1" x1="126" y1="417.5" x2="132" y2="407.1"/>
	<line class="st1" x1="132" y1="407.1" x2="133.9" y2="408.2"/>
	<line class="st1" x1="128.6" y1="419" x2="126" y2="417.5"/>
	<line class="st1" x1="128.6" y1="417.5" x2="128.6" y2="419"/>
	<line class="st1" x1="179.3" y1="446.8" x2="128.6" y2="417.5"/>
	<line class="st1" x1="303.9" y1="277.9" x2="303.9" y2="274.2"/>
	<line class="st1" x1="303.9" y1="274.2" x2="292.3" y2="267.5"/>
	<line class="st1" x1="314.8" y1="249.2" x2="323.4" y2="254.2"/>
	<line class="st1" x1="317.5" y1="276" x2="317" y2="275.7"/>
	<line class="st1" x1="316.9" y1="275.7" x2="316" y2="275.1"/>
	<line class="st1" x1="316.9" y1="277.1" x2="311" y2="287.2"/>
	<line class="st1" x1="297.7" y1="242.3" x2="311.6" y2="250.4"/>
	<line class="st1" x1="310.9" y1="287.4" x2="307.1" y2="294"/>
	<line class="st1" x1="325.3" y1="275.8" x2="319.5" y2="272.5"/>
	<line class="st1" x1="358.8" y1="276.4" x2="354.5" y2="283.8"/>
	<line class="st1" x1="344" y1="239.1" x2="332.2" y2="232.3"/>
	<line class="st1" x1="301.3" y1="268.2" x2="306" y2="260"/>
	<line class="st1" x1="359.9" y1="191.2" x2="356.4" y2="189.2"/>
	<line class="st1" x1="288.7" y1="292.4" x2="282.1" y2="289.4"/>
	<line class="st1" x1="301.3" y1="269.7" x2="298.7" y2="268.2"/>
	<line class="st1" x1="309.9" y1="281.4" x2="310.9" y2="281.9"/>
	<line class="st1" x1="311" y1="282" x2="312.8" y2="283"/>
	<line class="st1" x1="229.3" y1="461.8" x2="185.3" y2="436.4"/>
	<line class="st1" x1="223.2" y1="262.2" x2="222" y2="261.6"/>
	<line class="st1" x1="339.8" y1="300.3" x2="346.8" y2="288.2"/>
	<line class="st1" x1="315.2" y1="256.6" x2="313.9" y2="258.9"/>
	<line class="st1" x1="306.2" y1="259.7" x2="312.2" y2="249.2"/>
	<line class="st1" x1="395.9" y1="269.1" x2="377.2" y2="296.9"/>
	<line class="st1" x1="242" y1="209.7" x2="245.8" y2="211.9"/>
	<line class="st1" x1="273.2" y1="227.7" x2="276.9" y2="229.9"/>
	<line class="st1" x1="275.5" y1="300.8" x2="281.8" y2="304.4"/>
	<line class="st1" x1="261.8" y1="87.9" x2="216.9" y2="165.7"/>
	<line class="st1" x1="320.5" y1="262.8" x2="322.7" y2="264.1"/>
	<line class="st1" x1="346.8" y1="292.7" x2="342.1" y2="300.8"/>
	<line class="st1" x1="299.5" y1="266.9" x2="300.2" y2="265.6"/>
	<line class="st1" x1="431.4" y1="232.5" x2="390.7" y2="209"/>
	<line class="st1" x1="303.9" y1="277.9" x2="309.7" y2="281.3"/>
	<line class="st1" x1="288.3" y1="260" x2="288.3" y2="258.7"/>
	<line class="st1" x1="288.3" y1="260" x2="286.8" y2="262.6"/>
	<line class="st1" x1="298.7" y1="269.5" x2="298.7" y2="268.2"/>
	<line class="st1" x1="286.8" y1="262.6" x2="286.8" y2="264.3"/>
	<line class="st1" x1="273.5" y1="94.6" x2="261.8" y2="87.9"/>
	<line class="st1" x1="344" y1="239.1" x2="339.5" y2="246.8"/>
	<line class="st1" x1="303.9" y1="269.7" x2="301.3" y2="268.2"/>
	<line class="st1" x1="303.9" y1="271.2" x2="301.3" y2="269.7"/>
	<line class="st1" x1="312.2" y1="249.2" x2="314.2" y2="250.4"/>
	<line class="st1" x1="301.3" y1="268.2" x2="301.3" y2="269.7"/>
	<line class="st1" x1="358.5" y1="324.8" x2="357.2" y2="324"/>
	<line class="st1" x1="346" y1="287.8" x2="335.8" y2="281.9"/>
	<line class="st1" x1="325.3" y1="273.1" x2="324.1" y2="275.1"/>
	<line class="st1" x1="346.8" y1="288.2" x2="346.2" y2="287.9"/>
	<line class="st1" x1="377.2" y1="296.9" x2="352.6" y2="282.7"/>
	<line class="st1" x1="299.6" y1="266.6" x2="299.5" y2="266.5"/>
	<line class="st1" x1="369.3" y1="331" x2="358.5" y2="324.8"/>
	<line class="st1" x1="406.2" y1="275" x2="395.9" y2="269.1"/>
	<line class="st1" x1="300.2" y1="265.6" x2="299.5" y2="265.2"/>
	<line class="st1" x1="252.4" y1="215.7" x2="256.1" y2="217.9"/>
	<line class="st1" x1="262.8" y1="221.7" x2="266.5" y2="223.9"/>
	<line class="st1" x1="286.8" y1="262.6" x2="298.7" y2="269.5"/>
	<line class="st1" x1="377.2" y1="296.9" x2="358.5" y2="324.8"/>
	<line class="st1" x1="352.6" y1="282.7" x2="346.8" y2="292.7"/>
	<line class="st1" x1="346.8" y1="288.2" x2="346.8" y2="292.7"/>
	<line class="st1" x1="311.3" y1="257.4" x2="320.3" y2="262.7"/>
	<polyline class="st1" points="291.5,253.2 230.3,217.8 230.1,217.7 	"/>
	<line class="st1" x1="303.9" y1="268.2" x2="303.9" y2="271.2"/>
	<line class="st1" x1="283.5" y1="233.7" x2="287.3" y2="235.9"/>
	<line class="st1" x1="128.6" y1="417.5" x2="134.6" y2="407.1"/>
	<line class="st1" x1="134.6" y1="377.2" x2="229.3" y2="431.8"/>
	<line class="st1" x1="327.6" y1="269" x2="325.4" y2="272.8"/>
	<line class="st1" x1="475.8" y1="201" x2="475.8" y2="199.5"/>
	<line class="st1" x1="288.3" y1="258.7" x2="297.7" y2="242.3"/>
	<line class="st1" x1="411.4" y1="312.6" x2="475.8" y2="201"/>
	<line class="st1" x1="229.3" y1="466.5" x2="229.3" y2="472.4"/>
	<line class="st1" x1="223.3" y1="476.9" x2="223.3" y2="482.7"/>
	<line class="st1" x1="331.6" y1="262.1" x2="327.8" y2="268.7"/>
	<line class="st1" x1="229.3" y1="472.4" x2="223.3" y2="482.7"/>
	<line class="st1" x1="296.7" y1="467.8" x2="296.7" y2="470.8"/>
	<line class="st1" x1="308.1" y1="260.9" x2="314.8" y2="249.2"/>
	<line class="st1" x1="223.3" y1="482.7" x2="126" y2="426.6"/>
	<line class="st1" x1="296.7" y1="500.7" x2="296.7" y2="511.3"/>
	<line class="st1" x1="315.8" y1="275" x2="314.2" y2="274.1"/>
	<line class="st1" x1="295.8" y1="291.9" x2="297.9" y2="288.4"/>
	<line class="st1" x1="298" y1="288.1" x2="303.9" y2="277.9"/>
	<line class="st1" x1="293.9" y1="291.5" x2="296.2" y2="287.6"/>
	<line class="st1" x1="323.1" y1="255.1" x2="315.2" y2="250.6"/>
	<line class="st1" x1="296.3" y1="287.3" x2="303.9" y2="274.2"/>
	<line class="st1" x1="313" y1="283.2" x2="313.3" y2="283.3"/>
	<line class="st1" x1="331.9" y1="232.1" x2="216.9" y2="165.7"/>
	<line class="st1" x1="313.9" y1="274" x2="303.9" y2="268.2"/>
	<line class="st1" x1="102.2" y1="388.4" x2="102.2" y2="399"/>
	<line class="st1" x1="217.8" y1="194.7" x2="230.1" y2="201.8"/>
	<line class="st1" x1="315.2" y1="250.6" x2="311.3" y2="257.4"/>
	<line class="st1" x1="296.7" y1="511.3" x2="229.3" y2="472.4"/>
	<line class="st1" x1="102.2" y1="358.4" x2="102.2" y2="355.4"/>
	<line class="st1" x1="296.7" y1="511.3" x2="357.2" y2="406.6"/>
	<line class="st1" x1="216.5" y1="271.3" x2="217.6" y2="271.9"/>
	<line class="st1" x1="323.7" y1="261.5" x2="321.5" y2="260.2"/>
	<line class="st1" x1="325.5" y1="256.5" x2="325.4" y2="256.5"/>
	<line class="st1" x1="291.7" y1="267.1" x2="286.8" y2="264.3"/>
	<line class="st1" x1="325.4" y1="255.4" x2="325.8" y2="255.6"/>
	<line class="st1" x1="323.6" y1="254.3" x2="325.3" y2="255.3"/>
	<line class="st1" x1="216.5" y1="271.1" x2="222" y2="261.6"/>
	<line class="st1" x1="357.2" y1="406.6" x2="411.4" y2="312.6"/>
	<line class="st1" x1="321.2" y1="260.1" x2="315.2" y2="256.6"/>
	<line class="st1" x1="325.3" y1="256.4" x2="323.3" y2="255.3"/>
	<line class="st1" x1="126" y1="417.5" x2="126" y2="426.6"/>
	<line class="st1" x1="315.2" y1="250.6" x2="315.2" y2="256.6"/>
	<line class="st1" x1="303.9" y1="268.2" x2="308" y2="261.1"/>
	<line class="st1" x1="216.9" y1="168.7" x2="216.9" y2="165.7"/>
	<line class="st1" x1="298.7" y1="268.2" x2="299.2" y2="267.3"/>
	<line class="st1" x1="299.2" y1="266.3" x2="288.3" y2="260"/>
	<line class="st1" x1="299.2" y1="265" x2="288.3" y2="258.7"/>
	<line class="st1" x1="128.1" y1="413.9" x2="102.2" y2="399"/>
</g>
<g id="FOR_WEBSITE::Visible::Curves::vF::door_frames">
	<line class="st1" x1="230.3" y1="195.4" x2="292.6" y2="231.3"/>
	<line class="st1" x1="292.6" y1="251.3" x2="292.6" y2="231.3"/>
	<line class="st1" x1="305" y1="288.2" x2="305.5" y2="288.5"/>
	<line class="st1" x1="230.1" y1="195" x2="235" y2="186.4"/>
	<line class="st1" x1="235.4" y1="209" x2="230.3" y2="217.8"/>
	<line class="st1" x1="297.7" y1="222.6" x2="292.8" y2="231.2"/>
	<line class="st1" x1="292.8" y1="231.2" x2="292.8" y2="250.9"/>
	<line class="st1" x1="305.8" y1="288.6" x2="309.1" y2="290.6"/>
	<line class="st1" x1="230.1" y1="195" x2="230.1" y2="217.7"/>
	<line class="st1" x1="305" y1="288.2" x2="302.1" y2="293.1"/>
	<line class="st1" x1="359.5" y1="330.3" x2="357.2" y2="334.4"/>
	<line class="st1" x1="359.5" y1="330.3" x2="357.2" y2="328.9"/>
	<line class="st1" x1="359.5" y1="348" x2="359.5" y2="330.3"/>
	<line class="st1" x1="230.3" y1="217.8" x2="230.3" y2="195.4"/>
	<line class="st1" x1="230.1" y1="195" x2="292.8" y2="231.2"/>
</g>
<g id="FOR_WEBSITE::Visible::Curves::vF::wood">
	<line class="st1" x1="204.1" y1="408.5" x2="204.1" y2="402.3"/>
	<line class="st1" x1="204.1" y1="402.3" x2="209.5" y2="405.4"/>
	<line class="st1" x1="209.5" y1="405.4" x2="209.5" y2="411.7"/>
	<line class="st1" x1="303.4" y1="99.6" x2="312.1" y2="84.5"/>
	<line class="st1" x1="113.2" y1="354.6" x2="112.4" y2="355.9"/>
	<line class="st1" x1="107.4" y1="344.5" x2="106.6" y2="345.8"/>
	<line class="st1" x1="323.5" y1="254" x2="315.1" y2="249.1"/>
	<line class="st1" x1="325.3" y1="255" x2="323.7" y2="254.1"/>
	<line class="st1" x1="291.5" y1="460.8" x2="290.8" y2="462.1"/>
	<line class="st1" x1="291.5" y1="437.8" x2="281.8" y2="454.7"/>
	<line class="st1" x1="288.2" y1="90.9" x2="303.4" y2="99.6"/>
	<line class="st1" x1="303.4" y1="100" x2="287.9" y2="91"/>
	<line class="st1" x1="145.6" y1="373.3" x2="144.9" y2="374.6"/>
	<line class="st1" x1="355.4" y1="312.7" x2="298.5" y2="411.3"/>
	<line class="st1" x1="112.4" y1="355.9" x2="112.4" y2="349.1"/>
	<line class="st1" x1="355.4" y1="312.7" x2="355.4" y2="332.7"/>
	<line class="st1" x1="298.5" y1="431.3" x2="298.5" y2="411.3"/>
	<line class="st1" x1="355.5" y1="312.2" x2="355.5" y2="332.7"/>
	<line class="st1" x1="355.4" y1="312.2" x2="355.5" y2="312.2"/>
	<line class="st1" x1="112.4" y1="349.1" x2="106.6" y2="345.8"/>
	<line class="st1" x1="285.2" y1="488.3" x2="285.2" y2="482"/>
	<line class="st1" x1="268.7" y1="479.1" x2="274.6" y2="482.4"/>
	<line class="st1" x1="268.7" y1="472.3" x2="268.7" y2="479.1"/>
	<line class="st1" x1="274.3" y1="482" x2="268.9" y2="478.9"/>
	<line class="st1" x1="268.9" y1="478.9" x2="268.9" y2="472.7"/>
	<line class="st1" x1="220.1" y1="418" x2="225.9" y2="421.4"/>
	<line class="st1" x1="220.1" y1="411.3" x2="220.1" y2="418"/>
	<line class="st1" x1="290.6" y1="491.4" x2="285.2" y2="488.3"/>
	<line class="st1" x1="225.7" y1="421" x2="220.3" y2="417.9"/>
	<line class="st1" x1="284.9" y1="481.7" x2="284.9" y2="488.4"/>
	<line class="st1" x1="203.9" y1="401.9" x2="203.9" y2="408.7"/>
	<line class="st1" x1="355.5" y1="332.7" x2="298.3" y2="431.8"/>
	<line class="st1" x1="106.8" y1="352.4" x2="107.6" y2="351.1"/>
	<line class="st1" x1="269.6" y1="447.9" x2="269.6" y2="448.1"/>
	<line class="st1" x1="269.7" y1="447.9" x2="269.6" y2="448.1"/>
	<line class="st1" x1="214.8" y1="262.2" x2="214.9" y2="262.3"/>
	<line class="st1" x1="220.3" y1="417.9" x2="220.3" y2="411.7"/>
	<line class="st1" x1="263.9" y1="444.6" x2="263.9" y2="444.9"/>
	<line class="st1" x1="264.3" y1="422.1" x2="269.5" y2="425.1"/>
	<line class="st1" x1="281.8" y1="454.9" x2="290.8" y2="461.8"/>
	<line class="st1" x1="281.6" y1="454.8" x2="290.6" y2="461.7"/>
	<line class="st1" x1="241.7" y1="433.5" x2="242.4" y2="432.2"/>
	<line class="st1" x1="122.8" y1="361.9" x2="128.7" y2="365.2"/>
	<line class="st1" x1="122.8" y1="355.1" x2="122.8" y2="361.9"/>
	<line class="st1" x1="128.4" y1="364.9" x2="123" y2="361.7"/>
	<line class="st1" x1="123" y1="361.7" x2="123" y2="355.5"/>
	<line class="st1" x1="241.5" y1="433.6" x2="290.8" y2="462.1"/>
	<line class="st1" x1="281.8" y1="454.7" x2="232.5" y2="426.2"/>
	<line class="st1" x1="139.2" y1="371.1" x2="140" y2="369.8"/>
	<line class="st1" x1="298.3" y1="411.3" x2="298.3" y2="431.8"/>
	<line class="st1" x1="355.5" y1="312.2" x2="298.3" y2="411.3"/>
	<line class="st1" x1="284.9" y1="488.4" x2="290.8" y2="491.8"/>
	<line class="st1" x1="144.6" y1="374.2" x2="139.2" y2="371.1"/>
	<line class="st1" x1="139" y1="371.2" x2="144.9" y2="374.6"/>
	<line class="st1" x1="213.3" y1="280.3" x2="214.8" y2="281.2"/>
	<line class="st1" x1="315.1" y1="249.1" x2="315.1" y2="243.1"/>
	<line class="st1" x1="226.7" y1="420.1" x2="225.9" y2="421.4"/>
	<line class="st1" x1="220.8" y1="410" x2="220.1" y2="411.3"/>
	<line class="st1" x1="129.4" y1="363.9" x2="128.7" y2="365.2"/>
	<line class="st1" x1="123.6" y1="353.8" x2="122.8" y2="355.1"/>
	<line class="st1" x1="428.5" y1="151.7" x2="428.5" y2="152.2"/>
	<line class="st1" x1="106.6" y1="345.8" x2="106.6" y2="352.5"/>
	<line class="st1" x1="112.2" y1="349.3" x2="112.2" y2="355.5"/>
	<line class="st1" x1="325.9" y1="255.4" x2="325.4" y2="255.1"/>
	<line class="st1" x1="367.9" y1="116.4" x2="383.4" y2="125.4"/>
	<line class="st1" x1="383.1" y1="125.5" x2="367.9" y2="116.7"/>
	<line class="st1" x1="367.9" y1="116.7" x2="367.9" y2="117.2"/>
	<line class="st1" x1="155.5" y1="374.2" x2="160.9" y2="377.3"/>
	<line class="st1" x1="160.9" y1="377.3" x2="160.9" y2="383.6"/>
	<line class="st1" x1="171.7" y1="383.6" x2="177.1" y2="386.7"/>
	<line class="st1" x1="177.1" y1="386.7" x2="177.1" y2="392.9"/>
	<line class="st1" x1="177.3" y1="386.6" x2="171.5" y2="383.2"/>
	<line class="st1" x1="194.2" y1="401.4" x2="193.5" y2="402.7"/>
	<line class="st1" x1="188.4" y1="391.3" x2="187.7" y2="392.6"/>
	<line class="st1" x1="177.3" y1="393.3" x2="177.3" y2="386.6"/>
	<line class="st1" x1="178" y1="385.3" x2="177.3" y2="386.6"/>
	<line class="st1" x1="106.6" y1="385.4" x2="112.4" y2="388.8"/>
	<line class="st1" x1="112.2" y1="388.4" x2="106.8" y2="385.3"/>
	<line class="st1" x1="252.5" y1="469.7" x2="258.4" y2="473.1"/>
	<line class="st1" x1="252.5" y1="463" x2="252.5" y2="469.7"/>
	<line class="st1" x1="258.1" y1="472.7" x2="252.7" y2="469.6"/>
	<line class="st1" x1="252.7" y1="469.6" x2="252.7" y2="463.3"/>
	<line class="st1" x1="187.9" y1="392.9" x2="193.3" y2="396.1"/>
	<line class="st1" x1="193.3" y1="396.1" x2="193.3" y2="402.3"/>
	<line class="st1" x1="252.7" y1="463.3" x2="258.1" y2="466.4"/>
	<line class="st1" x1="258.1" y1="466.4" x2="258.1" y2="472.7"/>
	<line class="st1" x1="258.4" y1="466.3" x2="252.5" y2="463"/>
	<line class="st1" x1="258.4" y1="473.1" x2="258.4" y2="466.3"/>
	<line class="st1" x1="187.7" y1="399.3" x2="193.5" y2="402.7"/>
	<line class="st1" x1="187.7" y1="392.6" x2="187.7" y2="399.3"/>
	<line class="st1" x1="193.3" y1="402.3" x2="187.9" y2="399.2"/>
	<line class="st1" x1="187.9" y1="399.2" x2="187.9" y2="392.9"/>
	<line class="st1" x1="113.2" y1="387.5" x2="112.4" y2="388.8"/>
	<line class="st1" x1="107.3" y1="377.4" x2="106.6" y2="378.7"/>
	<line class="st1" x1="259.1" y1="471.8" x2="258.4" y2="473.1"/>
	<line class="st1" x1="253.3" y1="461.7" x2="252.5" y2="463"/>
	<line class="st1" x1="252.7" y1="469.6" x2="253.5" y2="468.3"/>
	<line class="st1" x1="275.3" y1="481.1" x2="274.6" y2="482.4"/>
	<line class="st1" x1="269.5" y1="471" x2="268.7" y2="472.3"/>
	<line class="st1" x1="315.6" y1="248.1" x2="315.1" y2="249.1"/>
	<line class="st1" x1="259.1" y1="465" x2="258.4" y2="466.3"/>
	<line class="st1" x1="106.8" y1="385.3" x2="107.6" y2="384"/>
	<line class="st1" x1="171.1" y1="356.3" x2="171.2" y2="356.3"/>
	<line class="st1" x1="325.5" y1="249.2" x2="327.7" y2="250.4"/>
	<line class="st1" x1="268.9" y1="478.9" x2="269.7" y2="477.6"/>
	<line class="st1" x1="106.8" y1="379.1" x2="112.2" y2="382.2"/>
	<line class="st1" x1="112.2" y1="382.2" x2="112.2" y2="388.4"/>
	<line class="st1" x1="374.3" y1="140.6" x2="383.1" y2="125.5"/>
	<line class="st1" x1="359.2" y1="131.9" x2="374.3" y2="140.6"/>
	<line class="st1" x1="367.9" y1="116.7" x2="359.2" y2="131.9"/>
	<line class="st1" x1="358.9" y1="132" x2="367.9" y2="116.4"/>
	<line class="st1" x1="291.5" y1="490.5" x2="290.8" y2="491.8"/>
	<line class="st1" x1="285.7" y1="480.4" x2="284.9" y2="481.7"/>
	<line class="st1" x1="291.5" y1="483.7" x2="290.8" y2="485"/>
	<line class="st1" x1="172.2" y1="381.9" x2="171.5" y2="383.2"/>
	<line class="st1" x1="156" y1="372.5" x2="155.2" y2="373.8"/>
	<line class="st1" x1="296.9" y1="75.4" x2="312.4" y2="84.4"/>
	<line class="st1" x1="312.1" y1="84.5" x2="297" y2="75.8"/>
	<line class="st1" x1="297" y1="75.8" x2="288.2" y2="90.9"/>
	<line class="st1" x1="297" y1="75.8" x2="297" y2="76.3"/>
	<line class="st1" x1="266.6" y1="335.3" x2="233.6" y2="392.4"/>
	<line class="st1" x1="171.2" y1="337.9" x2="171.1" y2="337.8"/>
	<line class="st1" x1="214.8" y1="281.2" x2="171.4" y2="356.4"/>
	<line class="st1" x1="203.9" y1="408.7" x2="209.7" y2="412"/>
	<line class="st1" x1="209.5" y1="411.7" x2="204.1" y2="408.5"/>
	<line class="st1" x1="266.6" y1="317.8" x2="233.6" y2="374.9"/>
	<line class="st1" x1="233.6" y1="392.4" x2="233.6" y2="374.9"/>
	<line class="st1" x1="266.7" y1="317.4" x2="266.7" y2="335.3"/>
	<line class="st1" x1="266.6" y1="317.8" x2="266.6" y2="335.3"/>
	<line class="st1" x1="226.7" y1="413.4" x2="225.9" y2="414.7"/>
	<line class="st1" x1="266.7" y1="335.3" x2="233.5" y2="392.8"/>
	<line class="st1" x1="233.4" y1="392.2" x2="233.5" y2="392.3"/>
	<line class="st1" x1="265.1" y1="334.4" x2="266.6" y2="335.3"/>
	<line class="st1" x1="266.6" y1="317.3" x2="266.7" y2="317.4"/>
	<line class="st1" x1="233.5" y1="374.9" x2="233.5" y2="392.8"/>
	<line class="st1" x1="266.7" y1="317.4" x2="233.5" y2="374.9"/>
	<line class="st1" x1="233.5" y1="374.9" x2="233.4" y2="374.8"/>
	<line class="st1" x1="123" y1="394.7" x2="123.8" y2="393.4"/>
	<line class="st1" x1="123" y1="388.4" x2="128.4" y2="391.6"/>
	<line class="st1" x1="128.4" y1="391.6" x2="128.4" y2="397.8"/>
	<line class="st1" x1="128.7" y1="391.4" x2="122.8" y2="388.1"/>
	<line class="st1" x1="128.7" y1="398.2" x2="128.7" y2="391.4"/>
	<line class="st1" x1="129.4" y1="390.1" x2="128.7" y2="391.4"/>
	<line class="st1" x1="236.5" y1="460.2" x2="237.3" y2="458.9"/>
	<line class="st1" x1="236.5" y1="454" x2="241.9" y2="457.1"/>
	<line class="st1" x1="241.9" y1="457.1" x2="241.9" y2="463.3"/>
	<line class="st1" x1="242.1" y1="457" x2="236.3" y2="453.6"/>
	<line class="st1" x1="242.1" y1="463.7" x2="242.1" y2="457"/>
	<line class="st1" x1="242.9" y1="455.7" x2="242.1" y2="457"/>
	<line class="st1" x1="285.2" y1="482" x2="290.6" y2="485.2"/>
	<line class="st1" x1="290.6" y1="485.2" x2="290.6" y2="491.4"/>
	<line class="st1" x1="139.2" y1="364.9" x2="144.6" y2="368"/>
	<line class="st1" x1="144.6" y1="368" x2="144.6" y2="374.2"/>
	<line class="st1" x1="144.9" y1="367.9" x2="139" y2="364.5"/>
	<line class="st1" x1="123" y1="394.7" x2="123" y2="388.4"/>
	<line class="st1" x1="128.4" y1="397.8" x2="123" y2="394.7"/>
	<line class="st1" x1="122.8" y1="388.1" x2="122.8" y2="394.8"/>
	<line class="st1" x1="122.8" y1="394.8" x2="128.7" y2="398.2"/>
	<line class="st1" x1="236.5" y1="460.2" x2="236.5" y2="454"/>
	<line class="st1" x1="241.9" y1="463.3" x2="236.5" y2="460.2"/>
	<line class="st1" x1="236.3" y1="453.6" x2="236.3" y2="460.3"/>
	<line class="st1" x1="236.3" y1="460.3" x2="242.1" y2="463.7"/>
	<line class="st1" x1="144.9" y1="374.6" x2="144.9" y2="367.9"/>
	<line class="st1" x1="298.2" y1="431.2" x2="298.3" y2="431.2"/>
	<line class="st1" x1="225.9" y1="421.4" x2="225.9" y2="414.7"/>
	<line class="st1" x1="145.6" y1="366.6" x2="144.9" y2="367.9"/>
	<path class="st1" d="M198,413.8c0.3,0.5,0.7,0.9,1.1,1.2"/>
	<line class="st1" x1="225.9" y1="414.7" x2="220.1" y2="411.3"/>
	<line class="st1" x1="220.3" y1="417.9" x2="221.1" y2="416.6"/>
	<line class="st1" x1="123" y1="361.7" x2="123.8" y2="360.4"/>
	<line class="st1" x1="443.6" y1="160.4" x2="428.5" y2="151.7"/>
	<line class="st1" x1="434.9" y1="175.6" x2="443.6" y2="160.4"/>
	<line class="st1" x1="419.7" y1="166.8" x2="434.9" y2="175.6"/>
	<line class="st1" x1="242.9" y1="462.4" x2="242.1" y2="463.7"/>
	<line class="st1" x1="237.1" y1="452.3" x2="236.3" y2="453.6"/>
	<line class="st1" x1="285.2" y1="488.3" x2="285.9" y2="487"/>
	<line class="st1" x1="290.8" y1="485" x2="284.9" y2="481.7"/>
	<line class="st1" x1="290.8" y1="491.8" x2="290.8" y2="485"/>
	<line class="st1" x1="139.2" y1="371.1" x2="139.2" y2="364.9"/>
	<line class="st1" x1="139" y1="364.5" x2="139" y2="371.2"/>
	<line class="st1" x1="139.8" y1="363.2" x2="139" y2="364.5"/>
	<line class="st1" x1="428.5" y1="151.7" x2="419.7" y2="166.8"/>
	<line class="st1" x1="419.4" y1="166.9" x2="428.4" y2="151.4"/>
	<line class="st1" x1="435" y1="175.9" x2="419.4" y2="166.9"/>
	<line class="st1" x1="129.4" y1="396.9" x2="128.7" y2="398.2"/>
	<line class="st1" x1="123.6" y1="386.8" x2="122.8" y2="388.1"/>
	<line class="st1" x1="233.5" y1="386.6" x2="233.5" y2="386.6"/>
	<line class="st1" x1="106.8" y1="346.1" x2="112.2" y2="349.3"/>
	<line class="st1" x1="210.5" y1="410.7" x2="209.7" y2="412"/>
	<line class="st1" x1="106.8" y1="352.4" x2="106.8" y2="346.1"/>
	<line class="st1" x1="204.6" y1="400.6" x2="203.9" y2="401.9"/>
	<line class="st1" x1="113.2" y1="347.8" x2="112.4" y2="349.1"/>
	<line class="st1" x1="242.2" y1="409.4" x2="232.5" y2="426.2"/>
	<line class="st1" x1="232.7" y1="426.6" x2="281.6" y2="454.8"/>
	<line class="st1" x1="275.3" y1="474.4" x2="274.6" y2="475.7"/>
	<line class="st1" x1="274.6" y1="482.4" x2="274.6" y2="475.7"/>
	<line class="st1" x1="274.6" y1="475.7" x2="268.7" y2="472.3"/>
	<line class="st1" x1="274.3" y1="475.8" x2="274.3" y2="482"/>
	<line class="st1" x1="268.9" y1="472.7" x2="274.3" y2="475.8"/>
	<line class="st1" x1="214.9" y1="262.3" x2="171.2" y2="337.9"/>
	<line class="st1" x1="171.2" y1="337.9" x2="171.2" y2="356.9"/>
	<line class="st1" x1="214.9" y1="281.2" x2="171.2" y2="356.9"/>
	<line class="st1" x1="214.9" y1="262.3" x2="214.9" y2="281.2"/>
	<line class="st1" x1="171.4" y1="356.4" x2="171.4" y2="337.9"/>
	<line class="st1" x1="209.7" y1="405.3" x2="203.9" y2="401.9"/>
	<line class="st1" x1="209.7" y1="412" x2="209.7" y2="405.3"/>
	<line class="st1" x1="214.8" y1="262.7" x2="214.8" y2="281.2"/>
	<line class="st1" x1="214.8" y1="262.7" x2="171.4" y2="337.9"/>
	<line class="st1" x1="225.7" y1="414.8" x2="225.7" y2="421"/>
	<line class="st1" x1="220.3" y1="411.7" x2="225.7" y2="414.8"/>
	<line class="st1" x1="129.4" y1="357.2" x2="128.7" y2="358.5"/>
	<line class="st1" x1="128.7" y1="365.2" x2="128.7" y2="358.5"/>
	<line class="st1" x1="128.7" y1="358.5" x2="122.8" y2="355.1"/>
	<line class="st1" x1="355.4" y1="332.7" x2="298.5" y2="431.3"/>
	<line class="st1" x1="298.3" y1="411.3" x2="298.2" y2="411.2"/>
	<line class="st1" x1="128.4" y1="358.6" x2="128.4" y2="364.9"/>
	<line class="st1" x1="123" y1="355.5" x2="128.4" y2="358.6"/>
	<line class="st1" x1="241.7" y1="433.5" x2="290.6" y2="461.7"/>
	<line class="st1" x1="210.5" y1="404" x2="209.7" y2="405.3"/>
	<line class="st1" x1="204.1" y1="408.5" x2="204.8" y2="407.2"/>
	<line class="st1" x1="106.6" y1="352.5" x2="112.4" y2="355.9"/>
	<line class="st1" x1="112.2" y1="355.5" x2="106.8" y2="352.4"/>
	<line class="st1" x1="199.1" y1="414.9" x2="229.3" y2="432.3"/>
	<line class="st1" x1="290.8" y1="461.8" x2="290.8" y2="462.1"/>
	<line class="st1" x1="281.6" y1="454.8" x2="281.8" y2="454.9"/>
	<line class="st1" x1="241.5" y1="433.4" x2="241.7" y2="433.5"/>
	<line class="st1" x1="241.7" y1="433.5" x2="232.7" y2="426.6"/>
	<line class="st1" x1="113.2" y1="380.8" x2="112.4" y2="382.1"/>
	<line class="st1" x1="315.1" y1="243.1" x2="325.3" y2="249"/>
	<line class="st1" x1="281.8" y1="454.9" x2="281.8" y2="454.7"/>
	<line class="st1" x1="290.6" y1="461.7" x2="290.8" y2="461.8"/>
	<line class="st1" x1="232.5" y1="426.2" x2="232.5" y2="426.5"/>
	<line class="st1" x1="241.5" y1="433.6" x2="241.5" y2="433.4"/>
	<line class="st1" x1="241.5" y1="433.4" x2="232.5" y2="426.5"/>
	<line class="st1" x1="232.5" y1="426.5" x2="232.7" y2="426.6"/>
	<line class="st1" x1="269.6" y1="448.1" x2="263.9" y2="444.9"/>
	<line class="st1" x1="155.5" y1="380.5" x2="156.2" y2="379.2"/>
	<line class="st1" x1="155.5" y1="380.5" x2="155.5" y2="374.2"/>
	<line class="st1" x1="160.9" y1="383.6" x2="155.5" y2="380.5"/>
	<line class="st1" x1="155.2" y1="373.8" x2="155.2" y2="380.6"/>
	<line class="st1" x1="161.1" y1="377.2" x2="155.2" y2="373.8"/>
	<line class="st1" x1="161.1" y1="384" x2="161.1" y2="377.2"/>
	<line class="st1" x1="161.8" y1="375.9" x2="161.1" y2="377.2"/>
	<line class="st1" x1="155.2" y1="380.6" x2="161.1" y2="384"/>
	<line class="st1" x1="161.8" y1="382.7" x2="161.1" y2="384"/>
	<line class="st1" x1="171.7" y1="389.8" x2="172.4" y2="388.5"/>
	<line class="st1" x1="171.7" y1="389.8" x2="171.7" y2="383.6"/>
	<line class="st1" x1="177.1" y1="392.9" x2="171.7" y2="389.8"/>
	<line class="st1" x1="171.5" y1="383.2" x2="171.5" y2="389.9"/>
	<line class="st1" x1="171.5" y1="389.9" x2="177.3" y2="393.3"/>
	<line class="st1" x1="178" y1="392" x2="177.3" y2="393.3"/>
	<line class="st1" x1="187.9" y1="399.2" x2="188.6" y2="397.9"/>
	<line class="st1" x1="193.5" y1="395.9" x2="187.7" y2="392.6"/>
	<line class="st1" x1="193.5" y1="402.7" x2="193.5" y2="395.9"/>
	<line class="st1" x1="194.2" y1="394.6" x2="193.5" y2="395.9"/>
	<line class="st1" x1="106.8" y1="385.3" x2="106.8" y2="379.1"/>
	<line class="st1" x1="106.6" y1="378.7" x2="106.6" y2="385.4"/>
	<line class="st1" x1="112.4" y1="382.1" x2="106.6" y2="378.7"/>
	<line class="st1" x1="112.4" y1="388.8" x2="112.4" y2="382.1"/>
	<line class="st1" x1="353.9" y1="331.8" x2="355.4" y2="332.7"/>
</g>
<g id="FOR_WEBSITE::Visible::Curves::vF::doors">
	<line class="st1" x1="156.6" y1="378.9" x2="156.6" y2="374.9"/>
	<line class="st1" x1="160.9" y1="381.3" x2="156.6" y2="378.9"/>
	<line class="st1" x1="213" y1="280.3" x2="212.7" y2="280.1"/>
	<line class="st1" x1="137.3" y1="391.8" x2="147.7" y2="397.8"/>
	<line class="st1" x1="147.7" y1="397.8" x2="147.9" y2="397.5"/>
	<line class="st1" x1="147.9" y1="397.5" x2="147.9" y2="384.9"/>
	<line class="st1" x1="256.8" y1="232.6" x2="262.8" y2="222.2"/>
	<line class="st1" x1="256.1" y1="232.2" x2="256.8" y2="232.6"/>
	<line class="st1" x1="257" y1="231.7" x2="262.5" y2="222.2"/>
	<line class="st1" x1="262.5" y1="222.2" x2="262.2" y2="222"/>
	<line class="st1" x1="140.4" y1="369.5" x2="140.5" y2="369.4"/>
	<line class="st1" x1="168.1" y1="417.4" x2="171.7" y2="411.2"/>
	<line class="st1" x1="167.8" y1="417.2" x2="167.8" y2="396.3"/>
	<line class="st1" x1="167.8" y1="417.2" x2="168.1" y2="417.4"/>
	<line class="st1" x1="168.1" y1="417.4" x2="168.1" y2="396.5"/>
	<line class="st1" x1="246.4" y1="226.6" x2="252.4" y2="216.2"/>
	<line class="st1" x1="245.8" y1="226.2" x2="246.4" y2="226.6"/>
	<line class="st1" x1="246.7" y1="225.7" x2="252.2" y2="216.2"/>
	<line class="st1" x1="252.2" y1="216.2" x2="251.8" y2="216"/>
	<line class="st1" x1="285.9" y1="487" x2="285.9" y2="486.5"/>
	<line class="st1" x1="286.3" y1="487.2" x2="285.9" y2="487"/>
	<line class="st1" x1="124.5" y1="360" x2="124.5" y2="356.3"/>
	<line class="st1" x1="285.9" y1="486.5" x2="285.9" y2="482.5"/>
	<line class="st1" x1="286.3" y1="486.7" x2="286.4" y2="486.6"/>
	<line class="st1" x1="237.3" y1="458.9" x2="237.3" y2="458.4"/>
	<line class="st1" x1="237.7" y1="459.2" x2="237.3" y2="458.9"/>
	<line class="st1" x1="237.7" y1="458.7" x2="237.8" y2="458.6"/>
	<line class="st1" x1="123.8" y1="393.4" x2="123.8" y2="392.9"/>
	<line class="st1" x1="124.2" y1="393.6" x2="123.8" y2="393.4"/>
	<line class="st1" x1="123.8" y1="392.9" x2="123.8" y2="388.9"/>
	<line class="st1" x1="124.2" y1="393.1" x2="124.3" y2="393"/>
	<line class="st1" x1="108.3" y1="383.5" x2="108.3" y2="383.4"/>
	<line class="st1" x1="108.1" y1="383.7" x2="108.1" y2="379.8"/>
	<line class="st1" x1="269.7" y1="477.6" x2="269.7" y2="477.1"/>
	<line class="st1" x1="233.6" y1="388.4" x2="264.8" y2="334.4"/>
	<line class="st1" x1="233.6" y1="388.9" x2="265.1" y2="334.4"/>
	<line class="st1" x1="140" y1="369.3" x2="140" y2="365.3"/>
	<line class="st1" x1="270.1" y1="477.9" x2="269.7" y2="477.6"/>
	<line class="st1" x1="237.8" y1="458.6" x2="237.8" y2="454.7"/>
	<line class="st1" x1="124.3" y1="393" x2="124.3" y2="389.2"/>
	<line class="st1" x1="124.5" y1="392.9" x2="124.5" y2="389.3"/>
	<line class="st1" x1="269.7" y1="477.1" x2="269.7" y2="473.1"/>
	<line class="st1" x1="270.1" y1="477.4" x2="270.2" y2="477.3"/>
	<line class="st1" x1="205.6" y1="406.8" x2="205.6" y2="406.6"/>
	<line class="st1" x1="270.4" y1="477.1" x2="270.5" y2="477"/>
	<line class="st1" x1="209.5" y1="409" x2="205.6" y2="406.8"/>
	<line class="st1" x1="209.5" y1="409.3" x2="205.3" y2="406.9"/>
	<line class="st1" x1="140.4" y1="370" x2="140" y2="369.8"/>
	<line class="st1" x1="311.9" y1="84.9" x2="297" y2="76.3"/>
	<line class="st1" x1="140" y1="369.8" x2="140" y2="369.3"/>
	<line class="st1" x1="189.3" y1="397.4" x2="189.4" y2="397.3"/>
	<line class="st1" x1="297.1" y1="76.9" x2="288.9" y2="91.2"/>
	<line class="st1" x1="160.9" y1="381.8" x2="156.6" y2="379.4"/>
	<line class="st1" x1="156.6" y1="378.9" x2="156.7" y2="378.8"/>
	<line class="st1" x1="173.1" y1="388" x2="173.2" y2="387.9"/>
	<line class="st1" x1="156.2" y1="378.7" x2="156.2" y2="374.6"/>
	<line class="st1" x1="156.6" y1="379.4" x2="156.2" y2="379.2"/>
	<line class="st1" x1="353.7" y1="331.7" x2="353.7" y2="315.7"/>
	<line class="st1" x1="353.9" y1="331.8" x2="353.9" y2="315.3"/>
	<line class="st1" x1="253.5" y1="468.3" x2="253.5" y2="467.8"/>
	<line class="st1" x1="253.9" y1="468.5" x2="253.5" y2="468.3"/>
	<line class="st1" x1="253.5" y1="467.8" x2="253.5" y2="463.8"/>
	<line class="st1" x1="253.9" y1="468" x2="254" y2="467.9"/>
	<line class="st1" x1="353.7" y1="331.7" x2="353.3" y2="331.5"/>
	<line class="st1" x1="156.2" y1="379.2" x2="156.2" y2="378.7"/>
	<line class="st1" x1="297.1" y1="76.9" x2="297.1" y2="77.3"/>
	<line class="st1" x1="124.5" y1="392.9" x2="124.6" y2="392.8"/>
	<line class="st1" x1="286.6" y1="486.5" x2="286.7" y2="486.4"/>
	<line class="st1" x1="290.6" y1="488.8" x2="286.6" y2="486.5"/>
	<line class="st1" x1="286.6" y1="486.5" x2="286.6" y2="482.9"/>
	<line class="st1" x1="254.2" y1="467.8" x2="254.3" y2="467.7"/>
	<line class="st1" x1="144.6" y1="372.5" x2="140.4" y2="370"/>
	<line class="st1" x1="311.4" y1="85.2" x2="297.1" y2="76.9"/>
	<line class="st1" x1="221.8" y1="416.1" x2="221.8" y2="416"/>
	<line class="st1" x1="124.2" y1="393.1" x2="124.2" y2="389.1"/>
	<line class="st1" x1="237.7" y1="458.7" x2="237.7" y2="454.6"/>
	<line class="st1" x1="246.7" y1="204.8" x2="246.7" y2="225.7"/>
	<line class="st1" x1="245.8" y1="226.2" x2="245.8" y2="204.3"/>
	<line class="st1" x1="252.4" y1="216.2" x2="252.4" y2="208.1"/>
	<line class="st1" x1="297" y1="76.3" x2="288.4" y2="91"/>
	<line class="st1" x1="290.6" y1="489.2" x2="286.3" y2="486.7"/>
	<line class="st1" x1="257" y1="210.8" x2="257" y2="231.7"/>
	<line class="st1" x1="316" y1="243.7" x2="316" y2="247.9"/>
	<line class="st1" x1="262.8" y1="222.2" x2="262.8" y2="214.1"/>
	<line class="st1" x1="137.3" y1="391.8" x2="137.3" y2="378.8"/>
	<line class="st1" x1="272.9" y1="228.1" x2="272.9" y2="220"/>
	<line class="st1" x1="290.6" y1="489.7" x2="286.3" y2="487.2"/>
	<line class="st1" x1="177.1" y1="390.3" x2="173.1" y2="388"/>
	<line class="st1" x1="177.1" y1="390.6" x2="172.9" y2="388.2"/>
	<line class="st1" x1="124.2" y1="360.2" x2="124.2" y2="356.2"/>
	<line class="st1" x1="316.4" y1="247.5" x2="316.4" y2="243.9"/>
	<line class="st1" x1="316.2" y1="243.8" x2="316.2" y2="247.7"/>
	<line class="st1" x1="151.6" y1="407.9" x2="151.6" y2="387"/>
	<line class="st1" x1="315.6" y1="243.4" x2="315.6" y2="248.1"/>
	<line class="st1" x1="128.4" y1="363.1" x2="124.2" y2="360.7"/>
	<line class="st1" x1="128.4" y1="362.6" x2="124.2" y2="360.2"/>
	<line class="st1" x1="290.6" y1="489" x2="286.4" y2="486.6"/>
	<line class="st1" x1="225.7" y1="419.3" x2="221.5" y2="416.8"/>
	<line class="st1" x1="225.7" y1="418.8" x2="221.5" y2="416.4"/>
	<line class="st1" x1="140.4" y1="369.5" x2="140.4" y2="365.5"/>
	<line class="st1" x1="286.3" y1="486.7" x2="286.3" y2="482.7"/>
	<line class="st1" x1="238" y1="458.4" x2="238" y2="458.3"/>
	<line class="st1" x1="238" y1="458.4" x2="238" y2="454.8"/>
	<line class="st1" x1="213" y1="280.3" x2="213" y2="265.7"/>
	<line class="st1" x1="213.3" y1="280.3" x2="213.3" y2="265.3"/>
	<line class="st1" x1="286.4" y1="486.6" x2="286.4" y2="482.8"/>
	<line class="st1" x1="382.9" y1="125.9" x2="367.9" y2="117.2"/>
	<line class="st1" x1="193.3" y1="400.6" x2="189.1" y2="398.1"/>
	<line class="st1" x1="209.5" y1="409.4" x2="205.3" y2="407"/>
	<line class="st1" x1="209.5" y1="409.9" x2="205.3" y2="407.5"/>
	<line class="st1" x1="326.6" y1="253.5" x2="325.4" y2="252.8"/>
	<line class="st1" x1="193.3" y1="400.1" x2="189.1" y2="397.6"/>
	<line class="st1" x1="112.2" y1="353.3" x2="108" y2="350.8"/>
	<line class="st1" x1="112.2" y1="386.7" x2="108" y2="384.3"/>
	<line class="st1" x1="303.2" y1="99.4" x2="311.4" y2="85.2"/>
	<line class="st1" x1="303.2" y1="99.4" x2="288.9" y2="91.2"/>
	<line class="st1" x1="112.2" y1="353.8" x2="108" y2="351.3"/>
	<line class="st1" x1="160.9" y1="381" x2="156.9" y2="378.7"/>
	<line class="st1" x1="160.9" y1="381.2" x2="156.7" y2="378.8"/>
	<line class="st1" x1="144.6" y1="371.6" x2="140.7" y2="369.3"/>
	<line class="st1" x1="144.6" y1="371.8" x2="140.5" y2="369.4"/>
	<line class="st1" x1="177.1" y1="390.7" x2="172.8" y2="388.3"/>
	<line class="st1" x1="177.1" y1="391.2" x2="172.8" y2="388.8"/>
	<line class="st1" x1="193.3" y1="399.7" x2="189.3" y2="397.4"/>
	<line class="st1" x1="193.3" y1="399.9" x2="189.1" y2="397.5"/>
	<line class="st1" x1="108" y1="383.8" x2="108" y2="379.8"/>
	<line class="st1" x1="274.3" y1="479.4" x2="270.4" y2="477.1"/>
	<line class="st1" x1="274.3" y1="479.7" x2="270.2" y2="477.3"/>
	<line class="st1" x1="225.7" y1="418.4" x2="221.8" y2="416.1"/>
	<line class="st1" x1="225.7" y1="418.6" x2="221.5" y2="416.2"/>
	<line class="st1" x1="112.2" y1="385.8" x2="108.3" y2="383.5"/>
	<line class="st1" x1="112.2" y1="386.1" x2="108.1" y2="383.7"/>
	<line class="st1" x1="274.3" y1="479.8" x2="270.1" y2="477.4"/>
	<line class="st1" x1="274.3" y1="480.3" x2="270.1" y2="477.9"/>
	<line class="st1" x1="112.2" y1="386.2" x2="108" y2="383.8"/>
	<line class="st1" x1="267.4" y1="216.8" x2="267.4" y2="237.7"/>
	<line class="st1" x1="266.5" y1="238.2" x2="266.5" y2="216.3"/>
	<line class="st1" x1="273.2" y1="228.2" x2="273.2" y2="220.1"/>
	<line class="st1" x1="316" y1="247.9" x2="316.2" y2="247.7"/>
	<line class="st1" x1="316" y1="247.9" x2="324" y2="252.5"/>
	<line class="st1" x1="107.6" y1="384" x2="107.6" y2="383.5"/>
	<line class="st1" x1="258.1" y1="470.5" x2="253.9" y2="468"/>
	<line class="st1" x1="258.1" y1="471" x2="253.9" y2="468.5"/>
	<line class="st1" x1="315.6" y1="248.1" x2="323.9" y2="252.9"/>
	<line class="st1" x1="272.9" y1="228.1" x2="272.6" y2="228"/>
	<line class="st1" x1="258.1" y1="470.1" x2="254.2" y2="467.8"/>
	<line class="st1" x1="258.1" y1="470.3" x2="254" y2="467.9"/>
	<line class="st1" x1="144.6" y1="372" x2="140.4" y2="369.5"/>
	<line class="st1" x1="267.4" y1="237.7" x2="272.9" y2="228.1"/>
	<line class="st1" x1="171.4" y1="352.5" x2="213" y2="280.3"/>
	<line class="st1" x1="266.5" y1="238.2" x2="267.2" y2="238.6"/>
	<line class="st1" x1="267.2" y1="238.6" x2="273.2" y2="228.2"/>
	<line class="st1" x1="140.5" y1="369.4" x2="140.5" y2="365.6"/>
	<line class="st1" x1="189.1" y1="397.6" x2="189.1" y2="393.6"/>
	<line class="st1" x1="188.6" y1="397.4" x2="188.6" y2="393.4"/>
	<line class="st1" x1="205.3" y1="407" x2="205.3" y2="403"/>
	<line class="st1" x1="172.8" y1="388.3" x2="172.8" y2="384.3"/>
	<line class="st1" x1="277.5" y1="244.6" x2="277.5" y2="222.6"/>
	<line class="st1" x1="156.7" y1="378.8" x2="156.7" y2="374.9"/>
	<line class="st1" x1="156.9" y1="378.7" x2="156.9" y2="375.1"/>
	<line class="st1" x1="156.9" y1="378.7" x2="157" y2="378.6"/>
	<line class="st1" x1="124.2" y1="360.2" x2="124.3" y2="360.1"/>
	<line class="st1" x1="123.8" y1="359.9" x2="123.8" y2="355.9"/>
	<line class="st1" x1="124.2" y1="360.7" x2="123.8" y2="360.4"/>
	<line class="st1" x1="123.8" y1="360.4" x2="123.8" y2="359.9"/>
	<line class="st1" x1="108" y1="350.8" x2="108.1" y2="350.7"/>
	<line class="st1" x1="108" y1="351.3" x2="107.6" y2="351.1"/>
	<line class="st1" x1="107.6" y1="351.1" x2="107.6" y2="350.6"/>
	<line class="st1" x1="221.5" y1="416.4" x2="221.5" y2="416.2"/>
	<line class="st1" x1="221.5" y1="416.4" x2="221.5" y2="412.3"/>
	<line class="st1" x1="221.1" y1="416.1" x2="221.1" y2="412.1"/>
	<line class="st1" x1="108" y1="350.8" x2="108" y2="346.8"/>
	<line class="st1" x1="107.6" y1="350.6" x2="107.6" y2="346.6"/>
	<line class="st1" x1="140.7" y1="369.3" x2="140.8" y2="369.2"/>
	<line class="st1" x1="140.7" y1="369.3" x2="140.7" y2="365.7"/>
	<line class="st1" x1="221.5" y1="416.8" x2="221.1" y2="416.6"/>
	<line class="st1" x1="267.2" y1="238.6" x2="267.2" y2="216.7"/>
	<line class="st1" x1="189.3" y1="397.4" x2="189.3" y2="393.8"/>
	<line class="st1" x1="189.1" y1="397.5" x2="189.1" y2="393.7"/>
	<line class="st1" x1="221.1" y1="416.6" x2="221.1" y2="416.1"/>
	<line class="st1" x1="108" y1="383.8" x2="108.1" y2="383.7"/>
	<line class="st1" x1="107.6" y1="383.5" x2="107.6" y2="379.5"/>
	<line class="st1" x1="108" y1="384.3" x2="107.6" y2="384"/>
	<line class="st1" x1="287.9" y1="250.6" x2="287.9" y2="228.6"/>
	<line class="st1" x1="368.1" y1="117.9" x2="359.9" y2="132.2"/>
	<line class="st1" x1="374.2" y1="140.4" x2="382.4" y2="126.2"/>
	<line class="st1" x1="374.2" y1="140.4" x2="359.9" y2="132.2"/>
	<line class="st1" x1="367.9" y1="117.2" x2="359.4" y2="132"/>
	<line class="st1" x1="428.7" y1="152.9" x2="420.4" y2="167.1"/>
	<line class="st1" x1="434.7" y1="175.4" x2="442.9" y2="161.1"/>
	<line class="st1" x1="442.9" y1="161.1" x2="428.7" y2="152.9"/>
	<line class="st1" x1="434.7" y1="175.4" x2="420.4" y2="167.1"/>
	<line class="st1" x1="428.5" y1="152.2" x2="420" y2="167"/>
	<line class="st1" x1="443.4" y1="160.8" x2="428.5" y2="152.2"/>
	<line class="st1" x1="277.8" y1="222.8" x2="277.8" y2="243.7"/>
	<line class="st1" x1="276.9" y1="244.2" x2="276.9" y2="222.3"/>
	<line class="st1" x1="283.5" y1="234.2" x2="283.5" y2="226.1"/>
	<line class="st1" x1="241.8" y1="210.2" x2="241.8" y2="202"/>
	<line class="st1" x1="288.2" y1="228.8" x2="288.2" y2="249.6"/>
	<line class="st1" x1="287.3" y1="250.2" x2="287.3" y2="228.3"/>
	<line class="st1" x1="236" y1="220.6" x2="236" y2="198.7"/>
	<line class="st1" x1="283.3" y1="234.1" x2="283.3" y2="226"/>
	<line class="st1" x1="368.1" y1="117.9" x2="368.1" y2="118.3"/>
	<line class="st1" x1="382.4" y1="126.2" x2="368.1" y2="117.9"/>
	<line class="st1" x1="171.4" y1="353" x2="213.3" y2="280.3"/>
	<line class="st1" x1="428.7" y1="152.9" x2="428.7" y2="153.3"/>
	<line class="st1" x1="283.3" y1="234.1" x2="283" y2="234"/>
	<line class="st1" x1="277.8" y1="243.7" x2="283.3" y2="234.1"/>
	<line class="st1" x1="147.7" y1="397.8" x2="147.7" y2="384.7"/>
	<line class="st1" x1="276.9" y1="244.2" x2="277.5" y2="244.6"/>
	<line class="st1" x1="256.8" y1="232.6" x2="256.8" y2="210.7"/>
	<line class="st1" x1="262.5" y1="222.2" x2="262.5" y2="214"/>
	<line class="st1" x1="246.4" y1="226.6" x2="246.4" y2="204.7"/>
	<line class="st1" x1="252.2" y1="216.2" x2="252.2" y2="208"/>
	<line class="st1" x1="270.4" y1="477.1" x2="270.4" y2="473.5"/>
	<line class="st1" x1="270.2" y1="477.3" x2="270.2" y2="473.4"/>
	<line class="st1" x1="237.3" y1="458.4" x2="237.3" y2="454.4"/>
	<line class="st1" x1="221.8" y1="416.1" x2="221.8" y2="412.5"/>
	<line class="st1" x1="221.5" y1="416.2" x2="221.5" y2="412.4"/>
	<line class="st1" x1="108.3" y1="383.5" x2="108.3" y2="379.9"/>
	<line class="st1" x1="270.1" y1="477.4" x2="270.1" y2="473.4"/>
	<line class="st1" x1="205.6" y1="406.8" x2="205.6" y2="403.1"/>
	<line class="st1" x1="236.3" y1="198.8" x2="236.3" y2="219.7"/>
	<line class="st1" x1="235.4" y1="220.2" x2="235.4" y2="198.3"/>
	<line class="st1" x1="242" y1="210.2" x2="242" y2="202.1"/>
	<line class="st1" x1="151.3" y1="407.7" x2="151.3" y2="386.8"/>
	<line class="st1" x1="205.3" y1="406.9" x2="205.3" y2="403"/>
	<line class="st1" x1="277.5" y1="244.6" x2="283.5" y2="234.2"/>
	<line class="st1" x1="173.1" y1="388" x2="173.1" y2="384.4"/>
	<line class="st1" x1="172.9" y1="388.2" x2="172.9" y2="384.3"/>
	<line class="st1" x1="288.2" y1="249.6" x2="292.6" y2="242"/>
	<line class="st1" x1="287.3" y1="250.2" x2="287.9" y2="250.6"/>
	<line class="st1" x1="253.9" y1="468" x2="253.9" y2="464"/>
	<line class="st1" x1="287.9" y1="250.6" x2="292.6" y2="242.5"/>
	<line class="st1" x1="128.4" y1="362.5" x2="124.3" y2="360.1"/>
	<line class="st1" x1="128.4" y1="362.2" x2="124.5" y2="360"/>
	<line class="st1" x1="298.5" y1="427.9" x2="353.9" y2="331.8"/>
	<line class="st1" x1="298.5" y1="427.4" x2="353.7" y2="331.7"/>
	<line class="st1" x1="254.2" y1="467.8" x2="254.2" y2="464.2"/>
	<line class="st1" x1="254" y1="467.9" x2="254" y2="464"/>
	<line class="st1" x1="112.2" y1="353.1" x2="108.1" y2="350.7"/>
	<line class="st1" x1="112.2" y1="352.9" x2="108.3" y2="350.6"/>
	<line class="st1" x1="316.4" y1="247.4" x2="316.4" y2="247.5"/>
	<line class="st1" x1="172.8" y1="388.3" x2="172.9" y2="388.2"/>
	<line class="st1" x1="172.4" y1="388" x2="172.4" y2="384"/>
	<line class="st1" x1="172.8" y1="388.8" x2="172.4" y2="388.5"/>
	<line class="st1" x1="108.3" y1="350.6" x2="108.3" y2="350.5"/>
	<line class="st1" x1="108.3" y1="350.6" x2="108.3" y2="347"/>
	<line class="st1" x1="108.1" y1="350.7" x2="108.1" y2="346.9"/>
	<line class="st1" x1="264.8" y1="334.4" x2="264.5" y2="334.2"/>
	<line class="st1" x1="124.3" y1="360.1" x2="124.3" y2="356.2"/>
	<line class="st1" x1="233.4" y1="389.3" x2="233.5" y2="389.1"/>
	<line class="st1" x1="233.4" y1="388.8" x2="233.5" y2="388.6"/>
	<line class="st1" x1="265.1" y1="334.4" x2="265.1" y2="320.4"/>
	<line class="st1" x1="264.8" y1="334.4" x2="264.8" y2="320.8"/>
	<line class="st1" x1="172.4" y1="388.5" x2="172.4" y2="388"/>
	<line class="st1" x1="205.3" y1="407" x2="205.3" y2="406.9"/>
	<line class="st1" x1="204.8" y1="406.7" x2="204.8" y2="402.7"/>
	<line class="st1" x1="205.3" y1="407.5" x2="204.8" y2="407.2"/>
	<line class="st1" x1="204.8" y1="407.2" x2="204.8" y2="406.7"/>
	<line class="st1" x1="189.1" y1="397.6" x2="189.1" y2="397.5"/>
	<line class="st1" x1="189.1" y1="398.1" x2="188.6" y2="397.9"/>
	<line class="st1" x1="188.6" y1="397.9" x2="188.6" y2="397.4"/>
	<line class="st1" x1="241.8" y1="210.2" x2="241.5" y2="210"/>
	<line class="st1" x1="236.3" y1="219.7" x2="241.8" y2="210.2"/>
	<line class="st1" x1="233.5" y1="387.1" x2="233.5" y2="387.1"/>
	<line class="st1" x1="124.5" y1="360" x2="124.6" y2="359.8"/>
	<line class="st1" x1="325.4" y1="253" x2="326.5" y2="253.7"/>
	<line class="st1" x1="324.4" y1="252.4" x2="325.3" y2="252.9"/>
	<line class="st1" x1="235.4" y1="220.2" x2="236" y2="220.6"/>
	<line class="st1" x1="236" y1="220.6" x2="242" y2="210.2"/>
	<line class="st1" x1="325.4" y1="253.8" x2="326.3" y2="254.3"/>
	<line class="st1" x1="324.1" y1="253" x2="325.3" y2="253.7"/>
	<line class="st1" x1="325.4" y1="253.3" x2="326.5" y2="253.9"/>
	<line class="st1" x1="324.3" y1="252.6" x2="325.3" y2="253.2"/>
	<line class="st1" x1="316.2" y1="247.7" x2="324.1" y2="252.3"/>
	<line class="st1" x1="241.9" y1="461.1" x2="237.7" y2="458.7"/>
	<line class="st1" x1="241.9" y1="461.6" x2="237.7" y2="459.2"/>
	<line class="st1" x1="128.4" y1="395.6" x2="124.2" y2="393.1"/>
	<line class="st1" x1="128.4" y1="396.1" x2="124.2" y2="393.6"/>
	<line class="st1" x1="156.5" y1="399.4" x2="156.5" y2="389.8"/>
	<line class="st1" x1="298.2" y1="427.8" x2="298.3" y2="427.6"/>
	<line class="st1" x1="325.3" y1="252.7" x2="324.4" y2="252.2"/>
	<line class="st1" x1="324.2" y1="252.1" x2="316.4" y2="247.5"/>
	<line class="st1" x1="128.4" y1="395.2" x2="124.5" y2="392.9"/>
	<line class="st1" x1="128.4" y1="395.4" x2="124.3" y2="393"/>
	<line class="st1" x1="151.6" y1="407.9" x2="156.5" y2="399.4"/>
	<line class="st1" x1="241.9" y1="460.7" x2="238" y2="458.4"/>
	<line class="st1" x1="151.3" y1="407.7" x2="151.6" y2="407.9"/>
	<line class="st1" x1="171.1" y1="352.9" x2="171.2" y2="352.7"/>
	<line class="st1" x1="171.1" y1="353.4" x2="171.2" y2="353.2"/>
	<line class="st1" x1="241.9" y1="461" x2="237.8" y2="458.6"/>
	<line class="st1" x1="298.2" y1="428.3" x2="298.3" y2="428.1"/>
	<line class="st1" x1="256.1" y1="232.2" x2="256.1" y2="210.3"/>
</g>
<g id="FOR_WEBSITE::Visible::Curves::vF::win">
	<line class="st1" x1="251.8" y1="216" x2="251.8" y2="207.8"/>
	<line class="st1" x1="298.5" y1="426.6" x2="353.3" y2="331.5"/>
	<line class="st1" x1="112.2" y1="385.7" x2="108.3" y2="383.4"/>
	<line class="st1" x1="193.3" y1="399.5" x2="189.4" y2="397.3"/>
	<line class="st1" x1="267.4" y1="236.9" x2="272.6" y2="228"/>
	<line class="st1" x1="277.8" y1="242.9" x2="283" y2="234"/>
	<line class="st1" x1="233.6" y1="387.7" x2="264.5" y2="334.2"/>
	<line class="st1" x1="353.3" y1="331.5" x2="353.3" y2="316.3"/>
	<line class="st1" x1="225.7" y1="418.3" x2="221.8" y2="416"/>
	<line class="st1" x1="382.2" y1="126.4" x2="368.1" y2="118.3"/>
	<line class="st1" x1="241.5" y1="210" x2="241.5" y2="201.8"/>
	<line class="st1" x1="288.2" y1="248.9" x2="292.6" y2="241.3"/>
	<line class="st1" x1="246.7" y1="224.9" x2="251.8" y2="216"/>
	<line class="st1" x1="311.2" y1="85.5" x2="297.1" y2="77.3"/>
	<line class="st1" x1="205.6" y1="406.6" x2="205.6" y2="403.2"/>
	<line class="st1" x1="108.3" y1="383.4" x2="108.3" y2="380"/>
	<line class="st1" x1="221.8" y1="416" x2="221.8" y2="412.5"/>
	<line class="st1" x1="108.3" y1="350.5" x2="108.3" y2="347"/>
	<line class="st1" x1="286.7" y1="486.4" x2="286.7" y2="482.9"/>
	<line class="st1" x1="262.2" y1="222" x2="262.2" y2="213.8"/>
	<line class="st1" x1="189.4" y1="397.3" x2="189.4" y2="393.8"/>
	<line class="st1" x1="274.3" y1="479.3" x2="270.5" y2="477"/>
	<line class="st1" x1="258.1" y1="469.9" x2="254.3" y2="467.7"/>
	<line class="st1" x1="316.4" y1="243.9" x2="316.4" y2="247.4"/>
	<line class="st1" x1="124.6" y1="392.8" x2="124.6" y2="389.3"/>
	<line class="st1" x1="368.1" y1="118.3" x2="360.1" y2="132.3"/>
	<line class="st1" x1="128.4" y1="395" x2="124.6" y2="392.8"/>
	<line class="st1" x1="290.6" y1="488.6" x2="286.7" y2="486.4"/>
	<line class="st1" x1="112.2" y1="352.7" x2="108.3" y2="350.5"/>
	<line class="st1" x1="272.6" y1="228" x2="272.6" y2="219.8"/>
	<line class="st1" x1="128.4" y1="362.1" x2="124.6" y2="359.8"/>
	<line class="st1" x1="236.3" y1="218.9" x2="241.5" y2="210"/>
	<line class="st1" x1="177.1" y1="390.2" x2="173.2" y2="387.9"/>
	<line class="st1" x1="144.6" y1="371.4" x2="140.8" y2="369.2"/>
	<line class="st1" x1="428.7" y1="153.3" x2="420.6" y2="167.2"/>
	<line class="st1" x1="442.8" y1="161.4" x2="428.7" y2="153.3"/>
	<line class="st1" x1="140.8" y1="369.2" x2="140.8" y2="365.7"/>
	<line class="st1" x1="173.2" y1="387.9" x2="173.2" y2="384.5"/>
	<line class="st1" x1="254.3" y1="467.7" x2="254.3" y2="464.2"/>
	<line class="st1" x1="270.5" y1="477" x2="270.5" y2="473.6"/>
	<line class="st1" x1="233.4" y1="388.1" x2="233.5" y2="387.9"/>
	<line class="st1" x1="241.9" y1="460.6" x2="238" y2="458.3"/>
	<line class="st1" x1="283" y1="234" x2="283" y2="225.8"/>
	<line class="st1" x1="171.4" y1="351.7" x2="212.7" y2="280.1"/>
	<line class="st1" x1="212.7" y1="280.1" x2="212.7" y2="266.3"/>
	<line class="st1" x1="157" y1="378.6" x2="157" y2="375.1"/>
	<line class="st1" x1="160.9" y1="380.8" x2="157" y2="378.6"/>
	<line class="st1" x1="209.5" y1="408.9" x2="205.6" y2="406.6"/>
	<line class="st1" x1="124.6" y1="359.8" x2="124.6" y2="356.4"/>
	<line class="st1" x1="257" y1="230.9" x2="262.2" y2="222"/>
	<line class="st1" x1="316.4" y1="247.4" x2="324.2" y2="251.9"/>
	<line class="st1" x1="238" y1="458.3" x2="238" y2="454.8"/>
	<line class="st1" x1="325.4" y1="252.6" x2="326.7" y2="253.3"/>
	<line class="st1" x1="324.5" y1="252.1" x2="325.3" y2="252.6"/>
	<line class="st1" x1="298.2" y1="427" x2="298.3" y2="426.8"/>
	<line class="st1" x1="171.1" y1="352.2" x2="171.2" y2="351.9"/>
	<line class="st1" x1="297.1" y1="77.3" x2="289.1" y2="91.3"/>
	<line class="st1" x1="264.5" y1="334.2" x2="264.5" y2="321.4"/>
</g>
<g id="FOR_WEBSITE::Visible::Curves::vF::walls">
	<line class="st1" x1="297.7" y1="222.6" x2="297.7" y2="242.3"/>
	<line class="st1" x1="314.8" y1="242.7" x2="314.8" y2="249.2"/>
	<line class="st1" x1="436.1" y1="235.3" x2="436.1" y2="227.8"/>
	<line class="st1" x1="374.1" y1="324.8" x2="373.2" y2="324.3"/>
	<line class="st1" x1="216.9" y1="185.2" x2="216.9" y2="168.7"/>
	<path class="st1" d="M434.5,227.1c0.1-0.1,0.1-0.2,0.2-0.3c0.1-0.1,0.2-0.2,0.3-0.1"/>
	<line class="st1" x1="325.6" y1="249" x2="327.8" y2="250.2"/>
	<line class="st1" x1="156" y1="372.5" x2="161.8" y2="375.9"/>
	<line class="st1" x1="161.8" y1="375.9" x2="161.8" y2="382.7"/>
	<line class="st1" x1="435.1" y1="226.6" x2="436" y2="227.1"/>
	<line class="st1" x1="200.5" y1="224.6" x2="217.8" y2="194.7"/>
	<path class="st1" d="M436,227.1c-0.1-0.1-0.3,0.1-0.3,0.1c-0.1,0.1-0.2,0.2-0.2,0.3"/>
	<line class="st1" x1="296.7" y1="467.8" x2="296.7" y2="437.8"/>
	<line class="st1" x1="475.8" y1="199.5" x2="475.8" y2="169.5"/>
	<line class="st1" x1="216.9" y1="185.2" x2="194.8" y2="223.5"/>
	<line class="st1" x1="217.8" y1="185.7" x2="216.9" y2="185.2"/>
	<line class="st1" x1="269.5" y1="425.1" x2="291.5" y2="437.8"/>
	<line class="st1" x1="217.8" y1="194.7" x2="217.8" y2="185.7"/>
	<line class="st1" x1="291.5" y1="437.8" x2="291.5" y2="460.8"/>
	<line class="st1" x1="242.2" y1="409.4" x2="264.3" y2="422.1"/>
	<line class="st1" x1="195.8" y1="223.7" x2="217.8" y2="185.7"/>
	<line class="st1" x1="123.6" y1="353.8" x2="129.4" y2="357.2"/>
	<line class="st1" x1="357.2" y1="354.1" x2="357.2" y2="333.1"/>
	<line class="st1" x1="129.4" y1="357.2" x2="129.4" y2="363.9"/>
	<line class="st1" x1="188.4" y1="391.3" x2="194.2" y2="394.6"/>
	<line class="st1" x1="220.8" y1="410" x2="226.7" y2="413.4"/>
	<line class="st1" x1="102.2" y1="355.4" x2="102.2" y2="325.5"/>
	<path class="st1" d="M436.1,227.8c0-0.1,0-0.6-0.2-0.7"/>
	<line class="st1" x1="434.5" y1="227.1" x2="410.6" y2="268.6"/>
	<line class="st1" x1="410.6" y1="268.6" x2="373.2" y2="324.3"/>
	<line class="st1" x1="314.8" y1="242.7" x2="325.4" y2="248.8"/>
	<line class="st1" x1="374.1" y1="324.8" x2="411.4" y2="269.1"/>
	<line class="st1" x1="357.2" y1="354.1" x2="374.1" y2="324.8"/>
	<line class="st1" x1="411.4" y1="269.1" x2="435.4" y2="227.6"/>
	<line class="st1" x1="373.2" y1="324.3" x2="357.2" y2="352.1"/>
	<line class="st1" x1="145.6" y1="366.6" x2="145.6" y2="373.3"/>
	<line class="st1" x1="139.8" y1="363.2" x2="145.6" y2="366.6"/>
	<line class="st1" x1="147.9" y1="397.5" x2="151.3" y2="399.5"/>
	<line class="st1" x1="113.2" y1="347.8" x2="113.2" y2="354.6"/>
	<line class="st1" x1="172.2" y1="381.9" x2="178" y2="385.3"/>
	<line class="st1" x1="107.4" y1="344.5" x2="113.2" y2="347.8"/>
	<line class="st1" x1="178" y1="385.3" x2="178" y2="392"/>
	<line class="st1" x1="134.6" y1="407.1" x2="136.1" y2="404.5"/>
	<line class="st1" x1="171.7" y1="411.2" x2="171.7" y2="398.6"/>
	<line class="st1" x1="177.3" y1="414.5" x2="171.7" y2="411.2"/>
	<line class="st1" x1="177.3" y1="414.5" x2="182.8" y2="405"/>
	<line class="st1" x1="102.2" y1="388.4" x2="102.2" y2="358.4"/>
	<line class="st1" x1="113.2" y1="380.8" x2="113.2" y2="387.5"/>
	<line class="st1" x1="291.5" y1="483.7" x2="291.5" y2="490.5"/>
	<line class="st1" x1="285.7" y1="480.4" x2="291.5" y2="483.7"/>
	<line class="st1" x1="136.1" y1="390.7" x2="137.3" y2="391.4"/>
	<line class="st1" x1="134.6" y1="407.1" x2="134.6" y2="377.2"/>
	<line class="st1" x1="177.3" y1="414.5" x2="177.3" y2="401.8"/>
	<line class="st1" x1="296.7" y1="500.7" x2="296.7" y2="470.8"/>
	<line class="st1" x1="194.2" y1="394.6" x2="194.2" y2="401.4"/>
	<line class="st1" x1="204.6" y1="400.6" x2="210.5" y2="404"/>
	<line class="st1" x1="210.5" y1="404" x2="210.5" y2="410.7"/>
	<line class="st1" x1="226.7" y1="413.4" x2="226.7" y2="420.1"/>
	<line class="st1" x1="235" y1="186.4" x2="297.7" y2="222.6"/>
	<line class="st1" x1="269.5" y1="471" x2="275.3" y2="474.4"/>
	<line class="st1" x1="136.1" y1="404.5" x2="136.1" y2="378"/>
	<line class="st1" x1="229.3" y1="461.8" x2="229.3" y2="431.8"/>
	<line class="st1" x1="129.4" y1="390.1" x2="129.4" y2="396.9"/>
	<line class="st1" x1="123.6" y1="386.8" x2="129.4" y2="390.1"/>
	<line class="st1" x1="242.9" y1="455.7" x2="242.9" y2="462.4"/>
	<line class="st1" x1="237.1" y1="452.3" x2="242.9" y2="455.7"/>
	<line class="st1" x1="275.3" y1="474.4" x2="275.3" y2="481.1"/>
	<line class="st1" x1="253.3" y1="461.7" x2="259.1" y2="465"/>
	<line class="st1" x1="259.1" y1="465" x2="259.1" y2="471.8"/>
	<line class="st1" x1="107.4" y1="377.4" x2="113.2" y2="380.8"/>
	<line class="st1" x1="411.4" y1="269.1" x2="410.6" y2="268.6"/>
</g>
</svg>
