<?xml version="1.0" encoding="utf-8"?>
<!-- Generator: Adobe Illustrator 25.0.0, SVG Export Plug-In . SVG Version: 6.00 Build 0)  -->
<svg version="1.1" xmlns="http://www.w3.org/2000/svg" xmlns:xlink="http://www.w3.org/1999/xlink" x="0px" y="0px"
	 viewBox="0 0 1728 1728" style="enable-background:new 0 0 1728 1728;" xml:space="preserve">
<style type="text/css">
	.st0{fill:none;stroke:#000000;stroke-width:1.25;stroke-linecap:round;stroke-linejoin:round;}
	.st1{fill:none;stroke:#000000;stroke-width:1.5;stroke-linecap:round;stroke-linejoin:round;}
	.st2{fill:none;stroke:#000000;stroke-width:0.5;stroke-linecap:round;stroke-linejoin:round;}
	.st3{fill:none;stroke:#000000;stroke-width:0.75;stroke-linecap:round;stroke-linejoin:round;}
</style>
<g id="new_for_web::prof::prof2">
	<polyline class="st0" points="1020.1,388.1 979.1,459.1 949.2,441.9 	"/>
	<polyline class="st0" points="761.8,1054.3 761.8,1036.3 784.3,997.4 815.5,1015.4 963.4,759.1 	"/>
	<polyline class="st0" points="981.4,655.9 932.2,741.1 932.2,813 	"/>
	<polyline class="st0" points="912.1,847.9 912.1,777.5 888.7,764 888.7,746 742.6,999.1 	"/>
	<line class="st0" x1="906.7" y1="774.4" x2="906.7" y2="804.8"/>
	<polyline class="st0" points="898.9,662.4 799.3,835 799.3,799 906.7,612.9 	"/>
	<line class="st0" x1="956.6" y1="598.5" x2="956.6" y2="573"/>
	<polyline class="st0" points="984.5,524.7 931.4,616.7 931.4,706.7 	"/>
	<polyline class="st0" points="981.4,727.9 981.4,645.6 1039.1,545.7 	"/>
	<polyline class="st0" points="1012.6,745.9 1012.6,663.5 1070.2,563.7 	"/>
	<line class="st0" x1="932.2" y1="748.7" x2="893.2" y2="726.2"/>
	<line class="st0" x1="967.9" y1="751.3" x2="944.5" y2="737.8"/>
	<line class="st0" x1="682.1" y1="1156.4" x2="746.2" y2="1045.3"/>
	<polyline class="st0" points="824.1,1072.3 752.2,1196.8 666.5,1147.5 	"/>
	<line class="st0" x1="728.8" y1="1324.3" x2="728.8" y2="1363.4"/>
	<polyline class="st0" points="724.3,1321.7 747.7,1335.2 747.7,1371.2 	"/>
</g>
<g id="new_for_web::prof">
	<polygon class="st1" points="565.2,1089 560.7,1096.8 560.7,1317.2 568.5,1321.7 570.3,1318.5 662,1371.4 662,1375.7 724.3,1411.7 
		747.7,1371.2 747.7,1425.2 755.5,1429.7 1100.4,832.2 1100.4,760.2 1106.6,749.4 1106.6,631 1185,495.3 1185,382.9 1063.6,312.7 
		1020.1,388.1 990.2,370.8 949.2,441.9 905.7,416.7 713.6,749.5 713.6,849.9 637.1,982.4 637.1,1094.8 655.1,1105.2 655.1,1145.3 
		573,1097.8 573,1093.5 	"/>
</g>
<g id="new_for_web::Visible::Curves::i1.1::all_walls_3_x3F_::windows">
	<line class="st2" x1="861.3" y1="877.5" x2="832.6" y2="843.3"/>
	<line class="st2" x1="862.8" y1="876.5" x2="833.6" y2="841.6"/>
	<line class="st2" x1="824.1" y1="941.8" x2="795.5" y2="907.5"/>
	<line class="st2" x1="825.7" y1="940.7" x2="796.5" y2="905.9"/>
	<line class="st2" x1="825.1" y1="941.7" x2="795.9" y2="906.9"/>
	<line class="st2" x1="782.4" y1="1000.6" x2="758.4" y2="971.8"/>
	<line class="st2" x1="783.4" y1="998.9" x2="759.4" y2="970.2"/>
	<line class="st2" x1="898.4" y1="813.2" x2="869.8" y2="779"/>
	<line class="st2" x1="896.4" y1="875.2" x2="899.9" y2="812.2"/>
	<line class="st2" x1="894.7" y1="878.1" x2="898.4" y2="813.2"/>
	<line class="st2" x1="895.8" y1="876.2" x2="899.3" y2="813.2"/>
	<line class="st2" x1="899.9" y1="812.2" x2="870.7" y2="777.3"/>
	<line class="st2" x1="741.8" y1="1107" x2="727" y2="1098.4"/>
	<line class="st2" x1="768.2" y1="782.5" x2="767.7" y2="783.3"/>
	<line class="st2" x1="1069.4" y1="565.1" x2="1046.9" y2="552.1"/>
	<line class="st2" x1="1012.6" y1="743.8" x2="990.1" y2="730.8"/>
	<line class="st2" x1="787.7" y1="1011.6" x2="810.2" y2="1024.6"/>
	<line class="st2" x1="945.4" y1="738.2" x2="981.4" y2="675.8"/>
	<line class="st2" x1="702.4" y1="1121.3" x2="643.3" y2="1087.2"/>
	<line class="st2" x1="782.9" y1="999.9" x2="758.8" y2="971.1"/>
	<line class="st2" x1="859.3" y1="939.5" x2="862.8" y2="876.5"/>
	<line class="st2" x1="857.6" y1="942.4" x2="861.3" y2="877.5"/>
	<line class="st2" x1="858.7" y1="940.4" x2="862.2" y2="877.4"/>
	<line class="st2" x1="822.2" y1="1003.8" x2="825.7" y2="940.7"/>
	<line class="st2" x1="820.5" y1="1006.7" x2="824.1" y2="941.8"/>
	<line class="st2" x1="821.6" y1="1004.7" x2="825.1" y2="941.7"/>
	<line class="st2" x1="840.7" y1="971.6" x2="844.2" y2="908.6"/>
	<line class="st2" x1="839" y1="974.5" x2="842.7" y2="909.6"/>
	<line class="st2" x1="770.5" y1="871.3" x2="770.5" y2="802.8"/>
	<line class="st2" x1="767.7" y1="873.2" x2="767.7" y2="783.3"/>
	<line class="st2" x1="877.8" y1="907.3" x2="881.3" y2="844.3"/>
	<line class="st2" x1="876.2" y1="910.2" x2="879.8" y2="845.4"/>
	<line class="st2" x1="805.1" y1="1009.4" x2="807.1" y2="972.9"/>
	<line class="st2" x1="803.6" y1="1008.5" x2="805.6" y2="973.9"/>
	<line class="st2" x1="727.7" y1="1005.4" x2="658.4" y2="965.3"/>
	<line class="st2" x1="658.4" y1="965.3" x2="650.3" y2="979.5"/>
	<line class="st2" x1="984.5" y1="616.5" x2="926.9" y2="716.3"/>
	<line class="st2" x1="926.9" y1="716.3" x2="906.7" y2="704.7"/>
	<line class="st2" x1="774.9" y1="1033.5" x2="787.6" y2="1011.5"/>
	<line class="st2" x1="1012.7" y1="663.3" x2="990.1" y2="650.3"/>
	<line class="st2" x1="990.1" y1="730.8" x2="990.1" y2="650.3"/>
	<line class="st2" x1="990.1" y1="650.3" x2="1046.9" y2="552.1"/>
	<line class="st2" x1="806.6" y1="973.9" x2="777.3" y2="939"/>
	<line class="st2" x1="807.1" y1="972.9" x2="777.9" y2="938"/>
	<line class="st2" x1="805.6" y1="973.9" x2="777" y2="939.7"/>
	<line class="st2" x1="727" y1="1098.4" x2="690.6" y2="1161.5"/>
	<line class="st2" x1="880.8" y1="845.3" x2="851.6" y2="810.4"/>
	<line class="st2" x1="881.3" y1="844.3" x2="852.1" y2="809.5"/>
	<line class="st2" x1="879.8" y1="845.4" x2="851.2" y2="811.1"/>
	<line class="st2" x1="877.3" y1="908.3" x2="880.8" y2="845.3"/>
	<line class="st2" x1="769.2" y1="802.1" x2="792.4" y2="815.5"/>
	<line class="st2" x1="769" y1="800.5" x2="792.4" y2="814"/>
	<line class="st2" x1="770.5" y1="797.9" x2="793.9" y2="811.4"/>
	<line class="st2" x1="804.6" y1="1009" x2="806.6" y2="973.9"/>
	<line class="st2" x1="840.2" y1="972.6" x2="843.7" y2="909.6"/>
	<line class="st2" x1="769" y1="873.9" x2="769" y2="802"/>
	<line class="st2" x1="777.3" y1="939" x2="777.9" y2="938"/>
	<line class="st2" x1="814.6" y1="874.4" x2="814.7" y2="874.4"/>
	<line class="st2" x1="843.7" y1="909.6" x2="844.2" y2="908.6"/>
	<line class="st2" x1="769" y1="784" x2="769.5" y2="783.2"/>
	<line class="st2" x1="793.9" y1="811.4" x2="792.4" y2="814"/>
	<line class="st2" x1="770.5" y1="797.9" x2="769" y2="800.5"/>
	<line class="st2" x1="770.5" y1="797.9" x2="770.5" y2="783.8"/>
	<line class="st2" x1="769" y1="800.5" x2="769" y2="784"/>
	<line class="st2" x1="769" y1="873.9" x2="770.5" y2="871.3"/>
	<line class="st2" x1="843.7" y1="909.6" x2="814.5" y2="874.7"/>
	<line class="st2" x1="844.2" y1="908.6" x2="815" y2="873.7"/>
	<line class="st2" x1="842.7" y1="909.6" x2="814.1" y2="875.4"/>
	<line class="st2" x1="767.7" y1="783.3" x2="769" y2="784"/>
	<line class="st2" x1="767.7" y1="873.2" x2="769" y2="873.9"/>
	<line class="st2" x1="792.4" y1="815.5" x2="793.9" y2="812.9"/>
	<line class="st2" x1="792.4" y1="814" x2="792.4" y2="815.5"/>
	<line class="st2" x1="769" y1="802" x2="769.2" y2="802.1"/>
	<line class="st2" x1="851.6" y1="810.4" x2="851.7" y2="810.1"/>
	<line class="st2" x1="880.8" y1="845.3" x2="881.3" y2="844.3"/>
	<line class="st2" x1="806.6" y1="973.9" x2="807.1" y2="972.9"/>
	<line class="st2" x1="787.6" y1="1011.5" x2="787.7" y2="1011.6"/>
	<line class="st2" x1="1021" y1="524.8" x2="1118.2" y2="356.5"/>
	<line class="st2" x1="862.2" y1="877.4" x2="833" y2="842.6"/>
	<line class="st2" x1="899.3" y1="813.2" x2="870.1" y2="778.3"/>
	<line class="st2" x1="994.8" y1="622.4" x2="984.5" y2="616.5"/>
	<line class="st2" x1="906.7" y1="704.7" x2="894.1" y2="726.6"/>
	<line class="st2" x1="1118.2" y1="356.5" x2="1140.8" y2="369.6"/>
	<line class="st2" x1="795.9" y1="906.9" x2="796.5" y2="905.9"/>
	<line class="st2" x1="870.1" y1="778.3" x2="870.7" y2="777.3"/>
	<line class="st2" x1="643.3" y1="1087.2" x2="643.3" y2="988.9"/>
	<line class="st2" x1="862.2" y1="877.4" x2="862.8" y2="876.5"/>
	<line class="st2" x1="825.1" y1="941.7" x2="825.7" y2="940.7"/>
	<line class="st2" x1="899.3" y1="813.2" x2="899.9" y2="812.2"/>
</g>
<g id="new_for_web::Visible::Curves::i1.1::all_walls_3_x3F_::fascade">
	<line class="st3" x1="573" y1="1141.7" x2="573" y2="1147.5"/>
	<line class="st3" x1="573" y1="1133.5" x2="573" y2="1138.2"/>
	<line class="st3" x1="573" y1="1125.3" x2="573" y2="1128"/>
	<line class="st3" x1="573" y1="1161" x2="573" y2="1163.9"/>
	<line class="st3" x1="655.1" y1="1145.3" x2="573" y2="1097.8"/>
	<line class="st3" x1="570.4" y1="1290.9" x2="570.3" y2="1291.1"/>
	<line class="st3" x1="570.8" y1="1281.2" x2="570.3" y2="1281.9"/>
	<line class="st3" x1="573" y1="1226.4" x2="573" y2="1229.2"/>
	<line class="st3" x1="573" y1="1218" x2="573" y2="1219.1"/>
	<line class="st3" x1="606.3" y1="1238.3" x2="662" y2="1270.4"/>
	<line class="st3" x1="573" y1="1226.4" x2="568.5" y2="1223.8"/>
	<line class="st3" x1="603.1" y1="1243.8" x2="573" y2="1226.4"/>
	<line class="st3" x1="662" y1="1277.7" x2="603.1" y2="1243.8"/>
	<line class="st3" x1="573" y1="1218" x2="568.5" y2="1215.4"/>
	<line class="st3" x1="606.7" y1="1237.5" x2="573" y2="1218"/>
	<line class="st3" x1="573" y1="1117.9" x2="570.4" y2="1116.4"/>
	<line class="st3" x1="650.1" y1="1162.4" x2="573" y2="1117.9"/>
	<line class="st3" x1="662" y1="1169.2" x2="650.1" y2="1162.4"/>
	<line class="st3" x1="646.8" y1="1168" x2="662" y2="1176.7"/>
	<line class="st3" x1="573" y1="1125.3" x2="646.8" y2="1168"/>
	<line class="st3" x1="573" y1="1128" x2="570" y2="1126.3"/>
	<line class="st3" x1="645.7" y1="1170" x2="573" y2="1128"/>
	<line class="st3" x1="662" y1="1179.4" x2="645.7" y2="1170"/>
	<line class="st3" x1="643.3" y1="1174.1" x2="662" y2="1184.9"/>
	<line class="st3" x1="573" y1="1133.6" x2="643.3" y2="1174.1"/>
	<line class="st3" x1="573" y1="1161" x2="568.7" y2="1158.6"/>
	<line class="st3" x1="631.4" y1="1194.8" x2="573" y2="1161"/>
	<line class="st3" x1="570.3" y1="1281.9" x2="570.3" y2="1290.9"/>
	<line class="st3" x1="633.7" y1="1190.7" x2="662" y2="1207.1"/>
	<line class="st3" x1="568.5" y1="1188.6" x2="568.4" y2="1188.6"/>
	<line class="st3" x1="573" y1="1138.2" x2="569.7" y2="1136.4"/>
	<line class="st3" x1="641.2" y1="1177.7" x2="573" y2="1138.2"/>
	<line class="st3" x1="662" y1="1189.6" x2="641.2" y2="1177.7"/>
	<line class="st3" x1="639.7" y1="1180.3" x2="662" y2="1193.1"/>
	<line class="st3" x1="573" y1="1141.7" x2="639.7" y2="1180.3"/>
	<line class="st3" x1="573" y1="1273.3" x2="570.7" y2="1272"/>
	<line class="st3" x1="582.8" y1="1278.9" x2="573" y2="1273.3"/>
	<line class="st3" x1="662" y1="1324.6" x2="582.8" y2="1278.9"/>
	<line class="st3" x1="570" y1="1273.5" x2="570.7" y2="1281.2"/>
	<line class="st3" x1="573" y1="1171.2" x2="573" y2="1172.2"/>
	<line class="st3" x1="570.7" y1="1272" x2="570" y2="1273.5"/>
	<line class="st3" x1="570.7" y1="1281.2" x2="570.7" y2="1281.2"/>
	<line class="st3" x1="571.7" y1="1141" x2="573" y2="1141.7"/>
	<line class="st3" x1="569.1" y1="1138.3" x2="571.7" y2="1141"/>
	<line class="st3" x1="569.1" y1="1138.3" x2="569.7" y2="1136.4"/>
	<line class="st3" x1="662" y1="1275.6" x2="568.9" y2="1221.9"/>
	<line class="st3" x1="662" y1="1267.5" x2="568.7" y2="1213.6"/>
	<line class="st3" x1="662" y1="1171.4" x2="569.7" y2="1118.1"/>
	<line class="st3" x1="662" y1="1181.6" x2="569.4" y2="1128.2"/>
	<line class="st3" x1="662" y1="1210.2" x2="569.1" y2="1156.6"/>
	<line class="st3" x1="662" y1="1191.9" x2="569.1" y2="1138.3"/>
	<line class="st3" x1="570.7" y1="1281.2" x2="662" y2="1333.8"/>
	<line class="st3" x1="662" y1="1326.6" x2="570" y2="1273.5"/>
	<line class="st3" x1="662" y1="1334.8" x2="570.3" y2="1281.9"/>
	<line class="st3" x1="568.5" y1="1186.9" x2="572.7" y2="1181.1"/>
	<line class="st3" x1="568.4" y1="1188.6" x2="568.4" y2="1188.6"/>
	<line class="st3" x1="569.1" y1="1156.6" x2="572.7" y2="1155.6"/>
	<line class="st3" x1="568.7" y1="1158.6" x2="569.1" y2="1156.6"/>
	<line class="st3" x1="662.2" y1="1212.5" x2="662" y2="1212.4"/>
	<line class="st3" x1="571.7" y1="1251.3" x2="573" y2="1252"/>
	<line class="st3" x1="569.7" y1="1246.7" x2="569.1" y2="1248.6"/>
	<line class="st3" x1="569.1" y1="1248.6" x2="571.7" y2="1251.3"/>
	<line class="st3" x1="571.4" y1="1132.6" x2="573" y2="1133.6"/>
	<line class="st3" x1="569.4" y1="1128.2" x2="571.4" y2="1132.6"/>
	<line class="st3" x1="569.4" y1="1128.2" x2="570" y2="1126.3"/>
	<line class="st3" x1="571" y1="1124.2" x2="573" y2="1125.3"/>
	<line class="st3" x1="569.7" y1="1118.1" x2="571" y2="1124.2"/>
	<line class="st3" x1="662" y1="1230.7" x2="568.7" y2="1176.8"/>
	<line class="st3" x1="568.5" y1="1178.7" x2="568.7" y2="1176.8"/>
	<line class="st3" x1="662" y1="1232.7" x2="568.5" y2="1178.7"/>
	<line class="st3" x1="662" y1="1251" x2="568.5" y2="1197"/>
	<line class="st3" x1="662" y1="1252.5" x2="568.5" y2="1198.5"/>
	<line class="st3" x1="569.7" y1="1118.1" x2="570.4" y2="1116.4"/>
	<line class="st3" x1="569.1" y1="1230.1" x2="568.7" y2="1232.1"/>
	<line class="st3" x1="662.2" y1="1286.1" x2="662" y2="1286"/>
	<line class="st3" x1="569.1" y1="1230.1" x2="572.7" y2="1229.1"/>
	<line class="st3" x1="572.6" y1="1239.2" x2="573" y2="1239.5"/>
	<line class="st3" x1="569.4" y1="1238.4" x2="568.9" y2="1240.4"/>
	<line class="st3" x1="569.4" y1="1238.4" x2="572.6" y2="1239.2"/>
	<line class="st3" x1="568.9" y1="1148.4" x2="569.4" y2="1146.5"/>
	<line class="st3" x1="569.4" y1="1146.5" x2="572.6" y2="1147.3"/>
	<line class="st3" x1="572.6" y1="1147.3" x2="573" y2="1147.5"/>
	<line class="st3" x1="568.7" y1="1213.6" x2="572.6" y2="1209.4"/>
	<line class="st3" x1="662" y1="1269.4" x2="606.7" y2="1237.5"/>
	<line class="st3" x1="568.7" y1="1213.6" x2="568.5" y2="1215.4"/>
	<line class="st3" x1="568.5" y1="1198.5" x2="568.5" y2="1197"/>
	<line class="st3" x1="568.5" y1="1197" x2="572.1" y2="1190.7"/>
	<line class="st3" x1="662" y1="1232.7" x2="662" y2="1232.6"/>
	<line class="st3" x1="568.7" y1="1176.8" x2="573" y2="1172.2"/>
	<line class="st3" x1="573" y1="1172.2" x2="626.5" y2="1203.1"/>
	<line class="st3" x1="662.2" y1="1267.6" x2="662" y2="1269.4"/>
	<line class="st3" x1="568.9" y1="1221.9" x2="572.9" y2="1219"/>
	<line class="st3" x1="662" y1="1277.8" x2="662" y2="1277.7"/>
	<line class="st3" x1="568.9" y1="1221.9" x2="568.5" y2="1223.8"/>
	<line class="st3" x1="662" y1="1199.9" x2="569.4" y2="1146.5"/>
	<line class="st3" x1="662" y1="1291.8" x2="569.4" y2="1238.4"/>
	<line class="st3" x1="662" y1="1362.4" x2="662" y2="1371.4"/>
	<line class="st3" x1="573" y1="1171.2" x2="568.5" y2="1168.6"/>
	<line class="st3" x1="573" y1="1272.4" x2="583.2" y2="1278.3"/>
	<line class="st3" x1="570.4" y1="1300.1" x2="570.3" y2="1300.3"/>
	<line class="st3" x1="568.5" y1="1207" x2="568.4" y2="1207"/>
	<line class="st3" x1="662" y1="1161.1" x2="570" y2="1108"/>
	<line class="st3" x1="662" y1="1220.5" x2="568.9" y2="1166.7"/>
	<line class="st3" x1="662" y1="1318.4" x2="569.7" y2="1265.1"/>
	<line class="st3" x1="662" y1="1310.3" x2="569.4" y2="1256.9"/>
	<line class="st3" x1="662" y1="1344" x2="570.3" y2="1291.1"/>
	<line class="st3" x1="662" y1="1316.3" x2="586.4" y2="1272.7"/>
	<line class="st3" x1="662" y1="1308.1" x2="590" y2="1266.5"/>
	<line class="st3" x1="573" y1="1310.8" x2="573" y2="1311"/>
	<line class="st3" x1="570.3" y1="1318.5" x2="568.5" y2="1321.7"/>
	<line class="st3" x1="662" y1="1260.9" x2="662" y2="1261"/>
	<line class="st3" x1="662" y1="1260.9" x2="661.9" y2="1261"/>
	<line class="st3" x1="662" y1="1283.7" x2="569.1" y2="1230.1"/>
	<line class="st3" x1="572.7" y1="1229.1" x2="601.8" y2="1245.9"/>
	<line class="st3" x1="662" y1="1302.2" x2="569.1" y2="1248.6"/>
	<line class="st3" x1="662" y1="1362.2" x2="662" y2="1362.4"/>
	<line class="st3" x1="662" y1="1371.4" x2="662" y2="1375.7"/>
	<line class="st3" x1="728.8" y1="1324.3" x2="728.8" y2="1345.4"/>
	<line class="st3" x1="755.5" y1="1209.3" x2="760" y2="1201.5"/>
	<line class="st3" x1="570.4" y1="1309.3" x2="570.3" y2="1309.5"/>
	<line class="st3" x1="570.3" y1="1300.3" x2="570.3" y2="1309.3"/>
	<line class="st3" x1="570.3" y1="1309.5" x2="570.3" y2="1318.5"/>
	<line class="st3" x1="570.3" y1="1318.5" x2="662" y2="1371.4"/>
	<line class="st3" x1="570.3" y1="1290.9" x2="662" y2="1343.8"/>
	<line class="st3" x1="568.5" y1="1205.3" x2="572" y2="1200.5"/>
	<line class="st3" x1="568.5" y1="1205.3" x2="568.4" y2="1207"/>
	<line class="st3" x1="573" y1="1117" x2="650.4" y2="1161.7"/>
	<line class="st3" x1="573" y1="1097.8" x2="571.1" y2="1096.8"/>
	<line class="st3" x1="583.2" y1="1278.3" x2="662" y2="1323.8"/>
	<line class="st3" x1="587.6" y1="1270.7" x2="662" y2="1313.6"/>
	<line class="st3" x1="662" y1="1240.9" x2="568.5" y2="1186.9"/>
	<line class="st3" x1="568.4" y1="1188.6" x2="568.5" y2="1186.9"/>
	<line class="st3" x1="661.9" y1="1242.6" x2="568.5" y2="1188.6"/>
	<line class="st3" x1="572.7" y1="1155.6" x2="633.7" y2="1190.7"/>
	<line class="st3" x1="586.4" y1="1272.7" x2="573" y2="1264.9"/>
	<line class="st3" x1="590" y1="1266.5" x2="573" y2="1256.7"/>
	<line class="st3" x1="571.1" y1="1096.8" x2="573" y2="1093.5"/>
	<line class="st3" x1="573" y1="1117" x2="573" y2="1117.8"/>
	<line class="st3" x1="650.4" y1="1161.7" x2="662" y2="1168.4"/>
	<line class="st3" x1="627" y1="1202.4" x2="573" y2="1171.2"/>
	<line class="st3" x1="573" y1="1150.8" x2="573" y2="1155.7"/>
	<line class="st3" x1="570.7" y1="1115.7" x2="573" y2="1117"/>
	<line class="st3" x1="573" y1="1252" x2="573" y2="1256.7"/>
	<line class="st3" x1="573" y1="1242.7" x2="573" y2="1248.6"/>
	<line class="st3" x1="573" y1="1234.5" x2="573" y2="1239.5"/>
	<line class="st3" x1="570" y1="1108" x2="570.7" y2="1115.7"/>
	<line class="st3" x1="568.9" y1="1166.7" x2="572.9" y2="1163.9"/>
	<line class="st3" x1="572.9" y1="1219" x2="606.3" y2="1238.3"/>
	<line class="st3" x1="662" y1="1155.3" x2="755.5" y2="1209.3"/>
	<line class="st3" x1="662" y1="1375.7" x2="724.3" y2="1411.7"/>
	<line class="st3" x1="662" y1="1261" x2="662" y2="1362.2"/>
	<line class="st3" x1="662" y1="1155.3" x2="662" y2="1260.9"/>
	<line class="st3" x1="592" y1="1263" x2="662" y2="1303.4"/>
	<line class="st3" x1="573" y1="1252" x2="592" y2="1263"/>
	<line class="st3" x1="573" y1="1248.6" x2="569.7" y2="1246.7"/>
	<line class="st3" x1="593.5" y1="1260.4" x2="573" y2="1248.6"/>
	<line class="st3" x1="662" y1="1299.9" x2="593.5" y2="1260.4"/>
	<line class="st3" x1="662" y1="1155.3" x2="666.5" y2="1147.5"/>
	<line class="st3" x1="601.8" y1="1245.9" x2="662" y2="1280.6"/>
	<line class="st3" x1="573" y1="1234.6" x2="568.7" y2="1232.1"/>
	<line class="st3" x1="599.5" y1="1249.9" x2="573" y2="1234.6"/>
	<line class="st3" x1="662" y1="1286" x2="599.5" y2="1249.9"/>
	<line class="st3" x1="597.4" y1="1253.6" x2="662" y2="1290.8"/>
	<line class="st3" x1="573" y1="1239.5" x2="597.4" y2="1253.6"/>
	<line class="st3" x1="573" y1="1242.7" x2="568.9" y2="1240.4"/>
	<line class="st3" x1="596" y1="1256" x2="573" y2="1242.7"/>
	<line class="st3" x1="662" y1="1294.1" x2="596" y2="1256"/>
	<line class="st3" x1="573" y1="1150.8" x2="568.9" y2="1148.4"/>
	<line class="st3" x1="635.8" y1="1187.1" x2="573" y2="1150.8"/>
	<line class="st3" x1="662" y1="1202.2" x2="635.8" y2="1187.1"/>
	<line class="st3" x1="637.2" y1="1184.6" x2="662" y2="1198.9"/>
	<line class="st3" x1="573" y1="1147.5" x2="637.2" y2="1184.6"/>
	<line class="st3" x1="662" y1="1232.6" x2="662" y2="1232"/>
	<line class="st3" x1="626.5" y1="1203.1" x2="662" y2="1223.6"/>
	<line class="st3" x1="568.5" y1="1168.6" x2="568.9" y2="1166.7"/>
	<line class="st3" x1="570.3" y1="1107.1" x2="570.4" y2="1107.1"/>
	<line class="st3" x1="570.3" y1="1098.1" x2="570.3" y2="1107.1"/>
	<line class="st3" x1="570.3" y1="1098.1" x2="571.1" y2="1096.8"/>
	<line class="st3" x1="573" y1="1264.9" x2="570.4" y2="1263.4"/>
	<line class="st3" x1="573" y1="1262.2" x2="587.6" y2="1270.7"/>
	<line class="st3" x1="573" y1="1262.2" x2="573" y2="1264.9"/>
	<line class="st3" x1="724.3" y1="1411.7" x2="728.8" y2="1403.9"/>
	<line class="st3" x1="573" y1="1272.4" x2="573" y2="1273.3"/>
	<line class="st3" x1="569.7" y1="1265.1" x2="571" y2="1271.3"/>
	<line class="st3" x1="570.4" y1="1263.4" x2="569.7" y2="1265.1"/>
	<line class="st3" x1="568.5" y1="1321.7" x2="568.5" y2="1198.5"/>
	<line class="st3" x1="568.5" y1="1197" x2="568.5" y2="1188.6"/>
	<line class="st3" x1="568.5" y1="1186.9" x2="568.5" y2="1101.3"/>
	<line class="st3" x1="570.3" y1="1300.1" x2="662" y2="1353"/>
	<line class="st3" x1="573" y1="1256.7" x2="570" y2="1255"/>
	<line class="st3" x1="724.3" y1="1321.7" x2="724.3" y2="1411.7"/>
	<line class="st3" x1="747.7" y1="1335.2" x2="724.3" y2="1321.7"/>
	<line class="st3" x1="747.7" y1="1425.2" x2="747.7" y2="1335.2"/>
	<line class="st3" x1="752.2" y1="1197" x2="666.5" y2="1147.5"/>
	<line class="st3" x1="755.5" y1="1429.7" x2="755.5" y2="1209.3"/>
	<line class="st3" x1="663.8" y1="1152" x2="570.3" y2="1098.1"/>
	<line class="st3" x1="664.6" y1="1150.7" x2="655.1" y2="1145.3"/>
	<line class="st3" x1="570.4" y1="1107.1" x2="662" y2="1159.9"/>
	<line class="st3" x1="662" y1="1353.2" x2="570.3" y2="1300.3"/>
	<line class="st3" x1="570.3" y1="1309.3" x2="662" y2="1362.2"/>
	<line class="st3" x1="662" y1="1222.6" x2="627" y2="1202.4"/>
	<line class="st3" x1="572.9" y1="1163.9" x2="630.1" y2="1196.9"/>
	<line class="st3" x1="630.1" y1="1196.9" x2="662" y2="1215.3"/>
	<line class="st3" x1="570" y1="1108" x2="570.5" y2="1107.1"/>
	<line class="st3" x1="662" y1="1362.4" x2="570.3" y2="1309.5"/>
	<line class="st3" x1="571" y1="1271.3" x2="573" y2="1272.4"/>
	<line class="st3" x1="569.4" y1="1256.9" x2="571.4" y2="1261.3"/>
	<line class="st3" x1="570" y1="1255" x2="569.4" y2="1256.9"/>
	<line class="st3" x1="571.4" y1="1261.3" x2="573" y2="1262.2"/>
	<line class="st3" x1="573" y1="1301.6" x2="573" y2="1301.8"/>
	<line class="st3" x1="570.3" y1="1291.1" x2="570.3" y2="1300.1"/>
	<line class="st3" x1="662" y1="1259.3" x2="568.5" y2="1205.3"/>
	<line class="st3" x1="661.9" y1="1261" x2="568.5" y2="1207"/>
	<line class="st3" x1="572.7" y1="1199.4" x2="573" y2="1199"/>
	<line class="st3" x1="560.7" y1="1096.8" x2="568.5" y2="1101.3"/>
	<line class="st3" x1="573" y1="1093.5" x2="565.2" y2="1089"/>
	<line class="st3" x1="568.5" y1="1101.3" x2="570.3" y2="1098.1"/>
	<line class="st3" x1="573" y1="1093.5" x2="573" y2="1097.8"/>
	<line class="st3" x1="565.2" y1="1089" x2="560.7" y2="1096.8"/>
	<line class="st3" x1="560.7" y1="1317.2" x2="560.7" y2="1096.8"/>
	<line class="st3" x1="560.7" y1="1317.2" x2="568.5" y2="1321.7"/>
	<line class="st3" x1="662" y1="1212.4" x2="631.4" y2="1194.8"/>
</g>
<g id="new_for_web::Visible::Curves::i1.1::all_walls_3_x3F_">
	<line class="st3" x1="815.5" y1="1015.4" x2="784.3" y2="997.4"/>
	<line class="st3" x1="963.4" y1="759.1" x2="932.2" y2="741.1"/>
	<polyline class="st3" points="784.3,997.4 766.3,1028.5 761.8,1036.3 	"/>
	<line class="st3" x1="787.6" y1="1009.7" x2="811" y2="1023.2"/>
	<line class="st3" x1="824.1" y1="1072.3" x2="752.2" y2="1196.8"/>
	<line class="st3" x1="815.5" y1="1015.4" x2="963.4" y2="759.1"/>
	<line class="st3" x1="932.2" y1="759.1" x2="932.2" y2="741.1"/>
	<line class="st3" x1="981.4" y1="655.9" x2="932.2" y2="741.1"/>
	<line class="st3" x1="774.1" y1="1033" x2="787.6" y2="1009.7"/>
	<line class="st3" x1="797.5" y1="1046.5" x2="774.1" y2="1033"/>
	<line class="st3" x1="761.8" y1="1036.3" x2="824.1" y2="1072.3"/>
	<line class="st3" x1="761.8" y1="1054.3" x2="816.3" y2="1085.8"/>
	<line class="st3" x1="1078" y1="568.2" x2="1020.4" y2="668"/>
	<line class="st3" x1="1070.2" y1="563.7" x2="1012.6" y2="663.5"/>
	<line class="st3" x1="760" y1="1201.5" x2="1020.4" y2="750.4"/>
	<line class="st3" x1="1100.4" y1="760.2" x2="1100.4" y2="641.8"/>
	<line class="st3" x1="1012.6" y1="663.5" x2="1012.6" y2="745.9"/>
	<line class="st3" x1="1100.4" y1="641.8" x2="1106.7" y2="631"/>
	<line class="st3" x1="713.6" y1="751" x2="791.5" y2="795.9"/>
	<line class="st3" x1="773.1" y1="1016.7" x2="737.4" y2="996.1"/>
	<line class="st3" x1="682.1" y1="1156.4" x2="746.2" y2="1045.3"/>
	<line class="st3" x1="637.1" y1="985.4" x2="715.1" y2="1030.4"/>
	<line class="st3" x1="761.8" y1="1054.3" x2="761.8" y2="1036.3"/>
	<line class="st3" x1="1046.9" y1="550.2" x2="1070.2" y2="563.7"/>
	<line class="st3" x1="984.5" y1="514.2" x2="1039.1" y2="545.7"/>
	<line class="st3" x1="967.9" y1="751.3" x2="944.5" y2="737.8"/>
	<line class="st3" x1="1020.1" y1="388.1" x2="979.1" y2="459.1"/>
	<line class="st3" x1="1012.6" y1="663.5" x2="1020.4" y2="668"/>
	<line class="st3" x1="755.5" y1="1429.7" x2="747.7" y2="1425.2"/>
	<line class="st3" x1="984.5" y1="614.6" x2="931.4" y2="706.7"/>
	<line class="st3" x1="931.4" y1="616.7" x2="984.5" y2="524.7"/>
	<line class="st3" x1="931.4" y1="706.7" x2="931.4" y2="616.7"/>
	<line class="st3" x1="725.9" y1="846.6" x2="725.9" y2="758.1"/>
	<line class="st3" x1="794.8" y1="896.8" x2="794.8" y2="797.8"/>
	<line class="st3" x1="794.8" y1="796.4" x2="906.7" y2="602.4"/>
	<line class="st3" x1="713.6" y1="749.5" x2="794.8" y2="796.4"/>
	<line class="st3" x1="1043.6" y1="537.9" x2="1020.2" y2="524.4"/>
	<line class="st3" x1="1141.6" y1="368.1" x2="1043.6" y2="537.9"/>
	<line class="st3" x1="799.3" y1="853" x2="799.3" y2="799"/>
	<line class="st3" x1="799.3" y1="799" x2="906.7" y2="612.9"/>
	<line class="st3" x1="906.7" y1="666.9" x2="799.3" y2="853"/>
	<polyline class="st3" points="926.9,716.3 926.9,678.5 926.9,624.5 926.9,614.1 	"/>
	<line class="st3" x1="870.7" y1="777.3" x2="888.7" y2="746"/>
	<line class="st3" x1="746.2" y1="1045.4" x2="746.2" y2="1045.3"/>
	<line class="st3" x1="906.7" y1="804.8" x2="906.7" y2="774.4"/>
	<line class="st3" x1="715.1" y1="1099.3" x2="715.1" y2="1030.4"/>
	<line class="st3" x1="745.7" y1="1334.1" x2="728.8" y2="1363.4"/>
	<line class="st3" x1="797.5" y1="1046.5" x2="811" y2="1023.2"/>
	<line class="st3" x1="728.8" y1="1403.9" x2="747.7" y2="1371.2"/>
	<line class="st3" x1="655.1" y1="1145.3" x2="655.1" y2="1105.2"/>
	<line class="st3" x1="906.7" y1="704.7" x2="906.7" y2="702.9"/>
	<line class="st3" x1="883.4" y1="689.4" x2="867.8" y2="680.4"/>
	<line class="st3" x1="800.4" y1="913.4" x2="796.7" y2="919.8"/>
	<polyline class="st3" points="662.9,1109.7 662.9,1122.1 662.9,1149.7 	"/>
	<line class="st3" x1="626.5" y1="1203.1" x2="627" y2="1202.4"/>
	<line class="st3" x1="906.7" y1="702.9" x2="906.7" y2="666.9"/>
	<line class="st3" x1="719.6" y1="1019.5" x2="649.4" y2="979"/>
	<line class="st3" x1="728.6" y1="1004" x2="719.6" y2="1019.5"/>
	<line class="st3" x1="637.2" y1="1184.6" x2="639.8" y2="1180.2"/>
	<line class="st3" x1="1100.4" y1="756.2" x2="1102.1" y2="757.2"/>
	<line class="st3" x1="630.1" y1="1196.9" x2="631.4" y2="1194.8"/>
	<line class="st3" x1="791.5" y1="814.9" x2="791.5" y2="848.5"/>
	<line class="st3" x1="593.5" y1="1260.4" x2="596" y2="1256"/>
	<line class="st3" x1="597.4" y1="1253.6" x2="599.5" y2="1249.9"/>
	<line class="st3" x1="601.9" y1="1245.9" x2="603.1" y2="1243.7"/>
	<line class="st3" x1="689.8" y1="1161" x2="727" y2="1096.6"/>
	<line class="st3" x1="742.6" y1="1105.6" x2="705.4" y2="1170"/>
	<line class="st3" x1="912.1" y1="807.9" x2="906.7" y2="804.8"/>
	<line class="st3" x1="787.6" y1="1009.7" x2="787.6" y2="1011.5"/>
	<line class="st3" x1="589.9" y1="1266.5" x2="592" y2="1263"/>
	<line class="st3" x1="586.4" y1="1272.7" x2="587.6" y2="1270.6"/>
	<line class="st3" x1="1185" y1="495.3" x2="1185" y2="382.9"/>
	<line class="st3" x1="1185" y1="382.9" x2="1063.6" y2="312.7"/>
	<line class="st3" x1="1118.2" y1="354.6" x2="1141.6" y2="368.1"/>
	<line class="st3" x1="752.3" y1="1197.1" x2="752.2" y2="1196.8"/>
	<line class="st3" x1="888.7" y1="746" x2="888.7" y2="764"/>
	<line class="st3" x1="1118.2" y1="354.6" x2="1118.2" y2="356.5"/>
	<line class="st3" x1="905.7" y1="416.7" x2="713.6" y2="749.5"/>
	<line class="st3" x1="906.7" y1="602.4" x2="926.9" y2="614.1"/>
	<line class="st3" x1="976.7" y1="610.1" x2="956.6" y2="598.5"/>
	<line class="st3" x1="794.8" y1="797.8" x2="794.8" y2="796.4"/>
	<line class="st3" x1="713.6" y1="751" x2="713.6" y2="749.5"/>
	<line class="st3" x1="713.6" y1="849.9" x2="713.6" y2="751"/>
	<line class="st3" x1="791.5" y1="884.5" x2="794.8" y2="896.8"/>
	<line class="st3" x1="984.5" y1="614.6" x2="976.7" y2="610.1"/>
	<line class="st3" x1="898.9" y1="662.4" x2="898.9" y2="626.4"/>
	<line class="st3" x1="906.7" y1="612.9" x2="906.7" y2="602.4"/>
	<line class="st3" x1="791.5" y1="848.5" x2="791.5" y2="884.5"/>
	<line class="st3" x1="791.5" y1="795.9" x2="791.5" y2="810"/>
	<path class="st3" d="M713.6,849.9c0.5-0.1,0.9-0.2,1.4-0.4c0.5-0.1,0.9-0.2,1.4-0.4c0.5-0.1,0.9-0.2,1.4-0.4
		c0.5-0.1,0.9-0.2,1.4-0.4c0.5-0.1,0.9-0.2,1.4-0.4c0.5-0.1,0.9-0.2,1.4-0.4c0.5-0.1,0.9-0.2,1.4-0.4c0.5-0.1,0.9-0.2,1.4-0.4
		c0.5-0.1,0.9-0.3,1.4-0.4"/>
	<line class="st3" x1="906.7" y1="666.9" x2="898.9" y2="662.4"/>
	<line class="st3" x1="956.6" y1="598.5" x2="956.6" y2="573"/>
	<line class="st3" x1="989.2" y1="729.8" x2="989.2" y2="650.1"/>
	<line class="st3" x1="796.7" y1="912.3" x2="797.8" y2="910.3"/>
	<line class="st3" x1="981.4" y1="645.6" x2="989.2" y2="650.1"/>
	<line class="st3" x1="981.4" y1="727.9" x2="981.4" y2="645.6"/>
	<line class="st3" x1="989.2" y1="650.1" x2="1046.9" y2="550.2"/>
	<line class="st3" x1="1039.1" y1="545.7" x2="981.4" y2="645.6"/>
	<line class="st3" x1="658.4" y1="963.5" x2="728.6" y2="1004"/>
	<line class="st3" x1="725.9" y1="846.6" x2="764.3" y2="780.2"/>
	<line class="st3" x1="1102.1" y1="638.8" x2="1102.1" y2="757.2"/>
	<line class="st3" x1="944.5" y1="737.8" x2="981.4" y2="673.9"/>
	<line class="st3" x1="1063.6" y1="312.7" x2="1020.1" y2="388.1"/>
	<line class="st3" x1="979.1" y1="459.1" x2="949.2" y2="441.9"/>
	<line class="st3" x1="1020.4" y1="668" x2="1020.4" y2="750.4"/>
	<line class="st3" x1="752.2" y1="1196.8" x2="752.2" y2="1197"/>
	<line class="st3" x1="1012.6" y1="745.9" x2="1020.4" y2="750.4"/>
	<line class="st3" x1="728.8" y1="1345.4" x2="737.9" y2="1329.6"/>
	<line class="st3" x1="728.8" y1="1363.4" x2="728.8" y2="1345.4"/>
	<line class="st3" x1="967.9" y1="751.3" x2="981.4" y2="727.9"/>
	<line class="st3" x1="1100.4" y1="832.2" x2="1100.4" y2="760.2"/>
	<polyline class="st3" points="893.2,726.2 903.4,708.7 906.7,702.9 	"/>
	<line class="st3" x1="658.4" y1="963.5" x2="658.4" y2="965.3"/>
	<path class="st3" d="M637.1,1093.3c0.5-0.5,0.9-0.9,1.4-1.4s0.9-0.9,1.4-1.4c0.5-0.5,0.9-0.9,1.4-1.4s0.9-0.9,1.4-1.4
		c0.2-0.2,0.5-0.5,0.7-0.7"/>
	<line class="st3" x1="637.1" y1="1093.3" x2="637.1" y2="985.4"/>
	<line class="st3" x1="637.1" y1="985.4" x2="637.1" y2="982.4"/>
	<line class="st3" x1="888.7" y1="746" x2="888.7" y2="734"/>
	<line class="st3" x1="649.4" y1="979" x2="658.4" y2="963.5"/>
	<line class="st3" x1="637.1" y1="1094.8" x2="655.1" y2="1105.2"/>
	<line class="st3" x1="932.2" y1="813" x2="932.2" y2="759.1"/>
	<line class="st3" x1="637.1" y1="1094.8" x2="637.1" y2="1093.3"/>
	<line class="st3" x1="818.9" y1="881.2" x2="801.3" y2="911.7"/>
	<line class="st3" x1="798.8" y1="908.6" x2="816.4" y2="878.1"/>
	<line class="st3" x1="817.3" y1="876.5" x2="825.1" y2="862.9"/>
	<line class="st3" x1="796.7" y1="919.8" x2="796.7" y2="908.9"/>
	<line class="st3" x1="828.4" y1="864.8" x2="819.9" y2="879.6"/>
	<line class="st3" x1="828.4" y1="864.8" x2="825.1" y2="862.9"/>
	<line class="st3" x1="828.4" y1="850.6" x2="828.4" y2="864.8"/>
	<line class="st3" x1="828.4" y1="850.6" x2="851.6" y2="810.4"/>
	<line class="st3" x1="888.7" y1="764" x2="912.1" y2="777.5"/>
	<line class="st3" x1="1106.6" y1="749.4" x2="1100.4" y2="760.2"/>
	<line class="st3" x1="655.1" y1="1105.2" x2="697.5" y2="1129.7"/>
	<polyline class="st3" points="637.1,982.4 730.6,1036.3 741.7,1042.7 746.2,1045.3 	"/>
	<polyline class="st3" points="888.7,734 912.1,747.5 913.1,748 932.2,759.1 	"/>
	<polyline class="st3" points="912.1,847.9 912.1,780.7 912.1,777.5 	"/>
	<line class="st3" x1="713.6" y1="850" x2="637.1" y2="982.4"/>
	<polyline class="st3" points="893.2,726.2 905.6,733.4 916.6,739.7 932.2,748.7 	"/>
	<line class="st3" x1="742.6" y1="999.1" x2="777.3" y2="939"/>
	<polyline class="st3" points="777.9,938 794.8,908.8 795.9,906.9 	"/>
	<line class="st3" x1="727" y1="1096.6" x2="727" y2="1098.4"/>
	<line class="st3" x1="742.6" y1="1105.6" x2="727" y2="1096.6"/>
	<line class="st3" x1="926.9" y1="614.1" x2="984.5" y2="514.2"/>
	<line class="st3" x1="1020.2" y1="524.4" x2="1118.2" y2="354.6"/>
	<line class="st3" x1="1078" y1="568.2" x2="1185" y2="382.9"/>
	<line class="st3" x1="796.5" y1="905.9" x2="828.4" y2="850.6"/>
	<line class="st3" x1="851.7" y1="810.1" x2="870.1" y2="778.3"/>
	<line class="st3" x1="668.4" y1="1148.6" x2="683.9" y2="1121.8"/>
	<line class="st3" x1="799.3" y1="835" x2="898.9" y2="662.4"/>
	<line class="st3" x1="990.2" y1="370.8" x2="1020.1" y2="388.1"/>
	<line class="st3" x1="990.2" y1="370.8" x2="949.2" y2="441.8"/>
	<line class="st3" x1="1106.6" y1="749.4" x2="1106.6" y2="631"/>
	<polyline class="st3" points="1100.4,832.2 997.9,1009.8 858.9,1250.6 755.5,1429.7 	"/>
	<line class="st3" x1="698.2" y1="1128.6" x2="637.1" y2="1093.3"/>
	<polyline class="st3" points="737.4,996.1 794.8,896.7 830.3,835.3 888.7,734 	"/>
	<line class="st3" x1="949.2" y1="441.9" x2="905.7" y2="416.7"/>
	<line class="st3" x1="1106.7" y1="631" x2="1185" y2="495.3"/>
	<line class="st3" x1="582.8" y1="1278.9" x2="583.2" y2="1278.3"/>
	<line class="st3" x1="650.1" y1="1162.4" x2="650.4" y2="1161.7"/>
	<line class="st3" x1="645.7" y1="1170" x2="646.9" y2="1167.9"/>
	<line class="st3" x1="641.3" y1="1177.6" x2="643.3" y2="1174.1"/>
	<line class="st3" x1="633.7" y1="1190.7" x2="635.8" y2="1187.1"/>
	<line class="st3" x1="606.3" y1="1238.3" x2="606.7" y2="1237.5"/>
</g>
<g id="new_for_web::Visible">
	<line class="st3" x1="984.5" y1="524.7" x2="984.5" y2="514.2"/>
	<line class="st3" x1="825.1" y1="862.9" x2="825.1" y2="856.2"/>
	<line class="st3" x1="989.2" y1="729.8" x2="989.2" y2="732.4"/>
	<line class="st3" x1="981.4" y1="727.9" x2="989.2" y2="732.4"/>
	<line class="st3" x1="989.2" y1="732.4" x2="990.1" y2="730.8"/>
</g>
</svg>
