<?xml version="1.0" encoding="utf-8"?>
<!-- Generator: Adobe Illustrator 25.0.0, SVG Export Plug-In . SVG Version: 6.00 Build 0)  -->
<svg version="1.1" id="Layer_1" xmlns="http://www.w3.org/2000/svg" xmlns:xlink="http://www.w3.org/1999/xlink" x="0px" y="0px"
	 viewBox="0 0 717.3 717.3" style="enable-background:new 0 0 717.3 717.3;" xml:space="preserve">
<style type="text/css">
	.st0{fill:#FFFFFF;stroke:#EC2390;stroke-width:8;stroke-miterlimit:10;}
</style>
<g>
	<path d="M424.7,31.6l-20.6,28.2l-7.9-0.9l-1.8-11.1c-0.4-2.4-0.6-4.1-0.6-6.9c-1.1,2.2-2.4,4.4-3.4,5.9L383,57.5l-8.1-0.9
		l-6.5-31.1l11.2,1.2l2,9.7c0.4,2.2,0.8,4.3,0.9,7.1c1.3-2.6,1.6-3.2,3.7-6.1l6.4-9.2l7.4,0.8l1.9,9.4c0.6,2.9,0.8,4.5,1,6.7
		c1-2,1.8-3.3,3-5l7-9.7L424.7,31.6z"/>
	<path d="M433.8,52.7c-0.3,1-1,3.6,0.2,5.4c0.4,0.7,1.3,1.5,3,2c0.9,0.2,1.9,0.3,3-0.1c1-0.4,1.6-1,2-1.6l11.8,3.1
		c-1.3,2-3,3.5-4.6,4.5c-4.7,2.9-10.4,2.2-13.9,1.3c-6.1-1.6-8.9-4.9-10.2-6.8c-1.4-2.3-2.6-6.2-1.3-11.4c1.5-5.6,4.8-9.1,8-10.8
		c3.2-1.8,7.8-2.9,13.7-1.3c5.5,1.5,8.4,4.3,10,7c2.2,3.8,2,8.4,1,12.2c-0.2,0.8-0.5,1.7-0.8,2.5L433.8,52.7z M446.3,49.5
		c0.3-1.4,0.1-2.9-0.6-3.9c-0.6-0.9-1.7-1.7-3.1-2.1c-1.5-0.4-3-0.2-4.1,0.5c-1.1,0.6-1.9,1.8-2.4,2.8L446.3,49.5z"/>
	<path d="M488.7,31.9l-22.6,44.2l-10.5-3.8l22.6-44.2L488.7,31.9z"/>
	<path d="M508.6,63l-4.9,8.1c-1.2-2.7-2.3-4-4.5-5c-3.8-1.7-7.9,0.1-9.8,4.2c-1.7,3.6-0.5,6.9,3,8.5c1.8,0.8,3.4,1,6.4,0.4l-5,8.1
		c-4-0.4-5.6-0.8-7.9-1.8c-7.7-3.5-10.5-11.6-6.9-19.6c4.1-8.9,13.4-12.5,22.2-8.5C504.2,58.7,506.6,60.5,508.6,63z"/>
	<path d="M537,94.9c-5,8.4-14.7,10.4-23.8,5c-9.3-5.5-12.3-14.7-7.4-22.9c4.8-8.1,14.8-9.9,24.1-4.4C539,78.1,541.9,86.8,537,94.9z
		 M527.5,88.7c2-3.3,1.2-6.6-2-8.5c-3.5-2.1-8-0.7-10.4,3.3c-2,3.3-1.2,6.7,2,8.6C520.8,94.3,525.1,92.8,527.5,88.7z"/>
	<path d="M562.7,95.7l-3.3,2.5c4.9-0.7,7.8,0.1,11,2.7c3.4,2.9,4.4,5.4,3.4,9.6c5.1-0.7,8.5,0.3,12,3.2c4.7,3.9,5.3,8.9,1.9,13
		c-0.9,1-1.7,2-4.5,4.6l-11.8,10.9l-8.5-7.1l10.9-10.1c0.8-0.8,1.9-1.9,2.2-2.3c1.6-1.9,1.4-3.9-0.3-5.4c-2.8-2.3-5.2-1.7-9.2,2
		l-10.6,9.9l-8.6-7.2l11.6-10.8c0.8-0.7,1.4-1.3,1.8-1.8c1.4-1.7,1.2-3.6-0.5-5c-2.5-2.1-5.4-1.4-9.1,2.1l-10.6,9.9l-8.6-7.2
		l22.2-20.8L562.7,95.7z"/>
	<path d="M592.4,146.9c-0.8,0.7-2.8,2.5-2.8,4.6c0,0.8,0.2,2,1.4,3.4c0.6,0.7,1.4,1.3,2.5,1.6c1,0.3,1.9,0.1,2.5-0.2l8,9.1
		c-2.2,0.9-4.4,1.2-6.3,1.1c-5.5-0.3-9.9-4-12.3-6.7c-4.2-4.8-4.7-9-4.6-11.3c0.1-2.7,1.2-6.6,5.3-10.2c4.4-3.8,9.1-4.8,12.7-4.5
		c3.7,0.3,8.1,1.9,12.1,6.5c3.7,4.3,4.6,8.3,4.4,11.4c-0.3,4.4-3,8-6,10.6c-0.7,0.6-1.4,1.1-2,1.6L592.4,146.9z M604.5,151.2
		c1-1,1.6-2.3,1.7-3.5c0-1.1-0.4-2.3-1.4-3.4c-1-1.2-2.4-1.8-3.7-1.9c-1.2-0.1-2.6,0.4-3.6,1L604.5,151.2z"/>
	<path d="M675.6,251.3l-34.7-3.6l-3.3-7.3l8.7-7.1c1.9-1.6,3.2-2.6,5.6-4c-2.5,0.1-5,0.1-6.8,0l-12.9-1l-3.3-7.5l23.6-21.3l4.6,10.3
		l-7.3,6.6c-1.7,1.5-3.3,2.8-5.7,4.4c2.9-0.2,3.6-0.2,7.1,0.1l11.2,0.8l3,6.8l-7.1,6.4c-2.2,1.9-3.5,3-5.3,4.2
		c2.2-0.1,3.8-0.1,5.8,0.1l11.9,1.1L675.6,251.3z"/>
	<path d="M661.9,269.7c-1,0.3-3.6,1-4.5,2.9c-0.4,0.7-0.7,1.9-0.2,3.6c0.3,0.9,0.7,1.8,1.5,2.5c0.8,0.7,1.6,0.9,2.4,0.9l3.2,11.7
		c-2.3-0.1-4.5-0.8-6.2-1.7c-4.9-2.7-7.2-7.9-8.1-11.4c-1.7-6.1-0.3-10.2,0.8-12.2c1.3-2.4,4-5.4,9.2-6.8c5.6-1.5,10.3-0.4,13.4,1.4
		c3.2,1.9,6.4,5.2,8.1,11.2c1.5,5.5,0.5,9.5-1,12.1c-2.2,3.8-6.2,5.9-10,7c-0.8,0.2-1.7,0.4-2.5,0.6L661.9,269.7z M670.9,278.9
		c1.4-0.4,2.5-1.4,3-2.5c0.5-1,0.6-2.3,0.2-3.7c-0.4-1.5-1.4-2.7-2.5-3.3c-1.1-0.6-2.5-0.8-3.6-0.7L670.9,278.9z"/>
	<path d="M707.5,306.8l-49.6,2.7l-2-11l49.6-2.7L707.5,306.8z"/>
	<path d="M690.7,339.6l-9.5-0.2c1.7-2.4,2.3-4,2.1-6.4c-0.4-4.2-4-6.8-8.6-6.3c-4,0.4-6.2,3-5.8,6.8c0.2,2,0.9,3.4,2.9,5.7l-9.5-0.2
		c-1.7-3.7-2.2-5.2-2.4-7.8c-0.9-8.4,4.7-15,13.5-15.9c9.8-1,17.6,5.3,18.6,14.9C692.2,333.6,691.8,336.6,690.7,339.6z"/>
	<path d="M677.3,380.3c-9.7-0.2-16.4-7.6-16.2-18.1c0.2-10.8,6.7-18,16.2-17.9c9.4,0.2,16,7.9,15.8,18.7
		C692.9,373.6,686.7,380.4,677.3,380.3z M677.9,368.9c3.9,0.1,6.3-2.2,6.4-5.9c0.1-4.1-3.4-7.3-8-7.4c-3.9-0.1-6.4,2.3-6.5,6.1
		C669.8,365.8,673.2,368.8,677.9,368.9z"/>
	<path d="M689.8,402.7l-3.9-1.5c3.1,3.9,3.9,6.8,3.2,10.8c-0.7,4.4-2.5,6.5-6.6,7.8c3.2,4,4,7.5,3.3,11.9c-1,6-5,9.1-10.3,8.2
		c-1.3-0.2-2.6-0.5-6.2-1.6l-15.3-4.6l1.8-10.9l14.2,4.2c1.1,0.3,2.6,0.7,3.1,0.8c2.4,0.4,4.1-0.8,4.5-3c0.6-3.5-1.1-5.3-6.4-6.9
		l-13.9-4.1l1.8-11l15.2,4.5c1,0.3,1.8,0.5,2.5,0.6c2.1,0.4,3.7-0.8,4.1-3c0.5-3.2-1.5-5.3-6.4-6.8l-13.9-4.1l1.8-11l29.2,8.6
		L689.8,402.7z"/>
	<path d="M660.6,454.2c-1-0.3-3.5-1.2-5.4-0.1c-0.7,0.3-1.6,1.2-2.2,2.9c-0.3,0.9-0.4,1.9-0.1,3s0.9,1.6,1.5,2.1l-3.8,11.5
		c-1.9-1.4-3.3-3.2-4.2-4.9c-2.6-4.9-1.5-10.6-0.4-14c2-6,5.4-8.6,7.4-9.7c2.4-1.3,6.3-2.2,11.4-0.5c5.5,1.8,8.7,5.4,10.3,8.6
		c1.6,3.3,2.4,7.9,0.5,13.8c-1.8,5.4-4.9,8.1-7.6,9.5c-3.9,2-8.5,1.5-12.2,0.2c-0.8-0.3-1.6-0.6-2.4-0.9L660.6,454.2z M663,466.9
		c1.4,0.4,2.8,0.2,3.9-0.3c1-0.5,1.8-1.5,2.3-3c0.5-1.5,0.4-3-0.2-4.1c-0.6-1.1-1.7-2.1-2.6-2.6L663,466.9z"/>
	<path d="M612.4,578.7L598,546.9l4.7-6.5l10.5,3.9c2.3,0.8,3.8,1.5,6.3,2.8c-1.4-2.1-2.6-4.2-3.4-5.9l-5.6-11.6l4.8-6.6l30.3,9.7
		l-6.6,9.2l-9.4-3c-2.2-0.7-4.1-1.5-6.6-2.7c1.6,2.4,2,3,3.5,6.2l4.9,10.1l-4.3,6l-9.1-3c-2.8-0.9-4.3-1.5-6.3-2.5
		c1.2,1.9,2,3.2,2.9,5.1l5,10.9L612.4,578.7z"/>
	<path d="M589.5,576.1c-0.8-0.8-2.7-2.6-4.8-2.5c-0.8,0-2,0.4-3.2,1.7c-0.7,0.7-1.2,1.5-1.4,2.6s0.1,1.9,0.4,2.5l-8.5,8.7
		c-1.1-2.1-1.6-4.3-1.6-6.2c-0.2-5.5,3.2-10.2,5.7-12.8c4.4-4.6,8.6-5.4,10.9-5.5c2.7-0.1,6.7,0.7,10.5,4.5
		c4.2,4.1,5.5,8.7,5.5,12.3c0,3.7-1.3,8.2-5.6,12.6c-4,4.1-7.9,5.2-11,5.3c-4.4,0.1-8.3-2.4-11.1-5.1c-0.6-0.6-1.2-1.3-1.7-1.9
		L589.5,576.1z M586.2,588.6c1.1,0.9,2.5,1.4,3.7,1.4c1.1-0.1,2.3-0.6,3.3-1.7c1.1-1.1,1.6-2.6,1.6-3.8c0-1.2-0.6-2.6-1.2-3.5
		L586.2,588.6z"/>
	<path d="M580.7,634.2l-27.5-41.4l8.5-7.3l27.5,41.4L580.7,634.2z"/>
	<path d="M543.9,636.4l-4.6-8.3c2.9,0.3,4.7-0.1,6.6-1.5c3.4-2.5,3.8-6.9,1.1-10.6c-2.4-3.2-5.7-3.8-8.9-1.6
		c-1.6,1.2-2.5,2.5-3.4,5.4l-4.7-8.3c2.3-3.3,3.4-4.5,5.5-6c6.8-5,15.3-3.5,20.5,3.6c5.8,7.9,4.4,17.8-3.4,23.6
		C549.8,634.6,547.1,635.8,543.9,636.4z"/>
	<path d="M502.2,645.5c-4.9-8.4-1.9-17.9,7.2-23.2c9.4-5.4,18.9-3.5,23.6,4.7c4.7,8.1,1.4,17.8-8,23.2
		C515.9,655.5,506.9,653.7,502.2,645.5z M512.2,640.2c1.9,3.3,5.1,4.3,8.4,2.4c3.6-2.1,4.5-6.7,2.2-10.6c-1.9-3.3-5.3-4.3-8.5-2.4
		C510.7,631.6,509.9,636.1,512.2,640.2z"/>
	<path d="M488.9,667.5l-0.6-4.1c-1.8,4.6-3.9,6.8-7.7,8.2c-4.2,1.6-6.9,1.2-10.1-1.8c-1.9,4.8-4.5,7.3-8.6,8.9
		c-5.7,2.2-10.4,0.3-12.3-4.7c-0.5-1.3-0.9-2.5-1.8-6.2l-3.7-15.6l10.4-3.9l3.5,14.4c0.3,1.1,0.7,2.6,0.9,3.1
		c0.9,2.3,2.7,3.2,4.9,2.3c3.4-1.3,4-3.6,2.7-9l-3.5-14.1l10.4-4l3.8,15.4c0.3,1.1,0.5,1.8,0.7,2.5c0.8,2,2.5,2.8,4.7,2
		c3-1.2,3.8-4,2.6-8.9l-3.5-14.1l10.4-4l7.2,29.6L488.9,667.5z"/>
	<path d="M429.7,668.3c-0.2-1.1-0.8-3.6-2.6-4.7c-0.6-0.4-1.8-0.8-3.6-0.4c-0.9,0.2-1.9,0.6-2.6,1.4c-0.7,0.8-1,1.6-1,2.3l-11.9,2.5
		c0.3-2.3,1.1-4.4,2.1-6c3-4.7,8.3-6.7,11.9-7.4c6.2-1.3,10.2,0.4,12.1,1.5c2.3,1.5,5.1,4.3,6.2,9.6c1.2,5.7-0.3,10.3-2.3,13.3
		c-2.1,3.1-5.6,6.1-11.7,7.3c-5.6,1.2-9.5-0.1-12-1.8c-3.7-2.4-5.5-6.6-6.3-10.4c-0.2-0.9-0.3-1.7-0.4-2.5L429.7,668.3z M420,676.7
		c0.4,1.4,1.2,2.6,2.3,3.2c0.9,0.6,2.2,0.8,3.7,0.5c1.5-0.3,2.8-1.2,3.5-2.2c0.7-1,0.9-2.5,0.9-3.6L420,676.7z"/>
	<path d="M281.5,686l21.5-27.5l7.9,1.1l1.4,11.1c0.3,2.4,0.4,4.1,0.4,6.9c1.2-2.2,2.5-4.3,3.6-5.8l7.7-10.4l8.1,1.2l5.4,31.3
		l-11.2-1.6l-1.7-9.7c-0.4-2.2-0.6-4.3-0.7-7.1c-1.4,2.5-1.7,3.2-3.9,6l-6.7,9l-7.4-1l-1.6-9.4c-0.5-2.9-0.7-4.5-0.7-6.7
		c-1.1,2-1.9,3.3-3.2,4.9l-7.3,9.5L281.5,686z"/>
	<path d="M273.2,664.6c0.3-1,1.1-3.6,0-5.4c-0.4-0.7-1.2-1.6-3-2.1c-0.9-0.3-1.9-0.4-3,0c-1,0.3-1.6,0.9-2,1.5l-11.7-3.5
		c1.4-1.9,3.1-3.4,4.8-4.3c4.8-2.7,10.5-1.9,13.9-0.8c6.1,1.8,8.8,5.2,9.9,7.2c1.3,2.4,2.4,6.2,0.9,11.4c-1.7,5.6-5.2,8.9-8.3,10.6
		c-3.3,1.7-7.9,2.7-13.8,0.9c-5.4-1.6-8.3-4.6-9.7-7.3c-2.1-3.9-1.7-8.4-0.6-12.2c0.3-0.8,0.6-1.7,0.9-2.4L273.2,664.6z
		 M260.6,667.4c-0.3,1.4-0.2,2.9,0.5,3.9c0.6,0.9,1.6,1.8,3,2.2c1.5,0.4,3,0.3,4.1-0.3c1.1-0.6,2-1.7,2.5-2.7L260.6,667.4z"/>
	<path d="M217.6,683.5l24.1-43.4l10.3,4.2l-24.1,43.4L217.6,683.5z"/>
	<path d="M198.7,651.8l5.2-7.9c1.1,2.7,2.2,4.1,4.3,5.2c3.8,1.9,7.9,0.2,9.9-3.9c1.8-3.6,0.8-6.9-2.7-8.6c-1.8-0.9-3.4-1.1-6.4-0.6
		l5.2-8c4,0.6,5.6,0.9,7.9,2.1c7.6,3.8,10.1,12,6.2,19.9c-4.4,8.8-13.8,12.1-22.5,7.8C203,656.2,200.7,654.4,198.7,651.8z"/>
	<path d="M171.4,618.9c5.3-8.2,15.1-9.9,23.9-4.2c9.1,5.8,11.8,15.1,6.7,23.2c-5.1,7.9-15.1,9.4-24.2,3.6
		C168.9,635.7,166.4,626.8,171.4,618.9z M180.8,625.4c-2.1,3.2-1.5,6.5,1.7,8.5c3.5,2.2,8,0.9,10.5-2.9c2.1-3.2,1.4-6.7-1.7-8.7
		C187.7,620.1,183.3,621.4,180.8,625.4z"/>
	<path d="M145.8,617.2l3.4-2.4c-4.9,0.5-7.8-0.4-10.9-3.1c-3.3-3-4.2-5.6-3.1-9.7c-5.1,0.5-8.5-0.6-11.8-3.6
		c-4.5-4.1-5-9.1-1.4-13.1c0.9-1,1.8-1.9,4.7-4.4l12.1-10.5l8.3,7.4l-11.2,9.8c-0.9,0.8-2,1.8-2.3,2.2c-1.6,1.8-1.6,3.9,0.2,5.4
		c2.7,2.4,5.1,1.9,9.2-1.7l10.9-9.6l8.3,7.4l-12,10.4c-0.8,0.7-1.4,1.3-1.9,1.8c-1.4,1.6-1.3,3.5,0.4,5.1c2.4,2.2,5.3,1.6,9.1-1.8
		l10.9-9.6l8.3,7.4l-22.9,20.1L145.8,617.2z"/>
	<path d="M117.9,565.1c0.8-0.7,2.9-2.4,3-4.5c0.1-0.8-0.1-2-1.3-3.4c-0.6-0.7-1.4-1.4-2.4-1.7c-1-0.3-1.9-0.1-2.5,0.1l-7.7-9.4
		c2.2-0.8,4.4-1.1,6.3-0.9c5.5,0.5,9.8,4.3,12,7.1c4,4.9,4.4,9.2,4.2,11.5c-0.2,2.7-1.5,6.5-5.6,10c-4.5,3.7-9.2,4.5-12.8,4.1
		c-3.7-0.4-8-2.2-11.9-6.9c-3.6-4.4-4.3-8.5-4-11.5c0.4-4.4,3.3-7.9,6.3-10.4c0.7-0.6,1.4-1.1,2.1-1.5L117.9,565.1z M105.9,560.4
		c-1.1,1-1.7,2.3-1.8,3.5c-0.1,1.1,0.3,2.3,1.3,3.5c1,1.2,2.4,1.9,3.6,2c1.2,0.1,2.6-0.3,3.6-0.8L105.9,560.4z"/>
	<path d="M38.2,458l34.6,4.8l3,7.4l-8.9,6.8c-1.9,1.5-3.3,2.4-5.8,3.8c2.5-0.1,5,0,6.8,0.2l12.8,1.4l3.1,7.6l-24.3,20.5L55.4,500
		l7.6-6.4c1.7-1.4,3.4-2.7,5.8-4.2c-2.9,0.1-3.6,0.1-7.1-0.3l-11.2-1.2l-2.8-6.9l7.4-6.1c2.2-1.9,3.6-2.8,5.4-4
		c-2.2,0-3.8,0-5.8-0.3l-11.9-1.5L38.2,458z"/>
	<path d="M52.6,440c1.1-0.3,3.6-0.9,4.6-2.7c0.4-0.7,0.7-1.8,0.3-3.6c-0.2-0.9-0.7-1.9-1.5-2.6c-0.8-0.7-1.6-0.9-2.3-1l-2.8-11.8
		c2.3,0.2,4.5,0.9,6.1,1.9c4.8,2.8,6.9,8.2,7.7,11.6c1.5,6.2-0.1,10.2-1.2,12.2c-1.4,2.3-4.2,5.2-9.4,6.5c-5.7,1.4-10.3,0-13.3-1.9
		c-3.1-2-6.2-5.5-7.7-11.4c-1.3-5.5-0.2-9.5,1.4-12.1c2.3-3.8,6.4-5.7,10.2-6.6c0.9-0.2,1.7-0.3,2.5-0.5L52.6,440z M43.8,430.5
		c-1.4,0.4-2.5,1.3-3.1,2.3c-0.5,1-0.7,2.3-0.4,3.7c0.4,1.5,1.3,2.8,2.3,3.4c1.1,0.7,2.5,0.9,3.6,0.8L43.8,430.5z"/>
	<path d="M8.3,401.5l49.7-1.1l1.6,11l-49.7,1.1L8.3,401.5z"/>
	<path d="M26.1,369.2l9.5,0.5c-1.8,2.3-2.4,4-2.3,6.3c0.3,4.2,3.8,6.9,8.4,6.6c4-0.3,6.3-2.8,6.1-6.7c-0.1-2-0.8-3.5-2.7-5.8
		l9.5,0.5c1.5,3.8,2,5.3,2.2,7.9c0.6,8.4-5.2,14.8-14,15.4c-9.8,0.7-17.4-5.9-18.1-15.5C24.4,375.2,24.9,372.2,26.1,369.2z"/>
	<path d="M40.6,329.1c9.7,0.4,16.2,8,15.8,18.5c-0.4,10.8-7.1,17.9-16.6,17.5c-9.4-0.4-15.8-8.3-15.3-19.1
		C24.9,335.3,31.2,328.7,40.6,329.1z M39.8,340.4c-3.9-0.2-6.4,2-6.5,5.8c-0.2,4.1,3.2,7.4,7.8,7.6c3.9,0.2,6.5-2.2,6.6-5.9
		C47.8,343.7,44.5,340.6,39.8,340.4z"/>
	<path d="M29.1,306.2l3.8,1.7c-2.9-4-3.6-6.9-2.8-10.9c0.9-4.4,2.7-6.4,6.8-7.6c-3-4.1-3.8-7.7-2.9-12c1.2-6,5.3-8.9,10.6-7.9
		c1.3,0.3,2.6,0.6,6.2,1.8l15.2,5.1l-2.2,10.9l-14.1-4.7c-1.1-0.4-2.5-0.8-3.1-0.9c-2.4-0.5-4.1,0.6-4.6,2.9
		c-0.7,3.5,0.9,5.4,6.2,7.1l13.8,4.6l-2.2,10.9l-15.1-5c-1-0.3-1.8-0.6-2.5-0.7c-2.1-0.4-3.7,0.6-4.2,2.9c-0.6,3.2,1.3,5.4,6.2,7
		l13.8,4.6l-2.2,10.9l-28.9-9.6L29.1,306.2z"/>
	<path d="M60,255.7c1,0.4,3.5,1.3,5.4,0.3c0.7-0.3,1.6-1.1,2.3-2.8c0.3-0.9,0.5-1.9,0.2-2.9c-0.3-1-0.8-1.7-1.4-2.1l4.2-11.4
		c1.8,1.5,3.2,3.3,4,5c2.4,5,1.2,10.6-0.1,14c-2.2,6-5.7,8.4-7.8,9.5c-2.5,1.2-6.4,2-11.5,0.2c-5.5-2-8.6-5.7-10-9
		c-1.5-3.4-2.1-8,0-13.8c2-5.3,5.1-8,7.9-9.3c4-1.8,8.5-1.2,12.2,0.2c0.8,0.3,1.6,0.7,2.4,1L60,255.7z M58,242.9
		c-1.4-0.4-2.8-0.3-3.9,0.2c-1,0.5-1.8,1.5-2.4,2.9c-0.5,1.5-0.5,3,0.1,4.1s1.6,2.1,2.5,2.7L58,242.9z"/>
	<path d="M112.4,132.9l13.3,32.3l-4.9,6.3l-10.4-4.2c-2.3-0.9-3.8-1.6-6.2-3.1c1.3,2.1,2.5,4.3,3.2,6l5.2,11.8l-5,6.5l-29.9-10.7
		l6.9-8.9l9.3,3.3c2.1,0.8,4.1,1.6,6.6,2.9c-1.5-2.5-1.9-3.1-3.3-6.3l-4.6-10.3l4.5-5.9l9,3.3c2.7,1,4.3,1.7,6.2,2.7
		c-1.2-1.9-1.9-3.3-2.7-5.1l-4.7-11L112.4,132.9z"/>
	<path d="M135.1,136.2c0.8,0.8,2.6,2.7,4.7,2.6c0.8,0,2-0.3,3.3-1.6c0.7-0.7,1.3-1.5,1.5-2.6c0.2-1,0-1.9-0.3-2.5l8.8-8.4
		c1,2.1,1.4,4.3,1.4,6.2c0,5.5-3.5,10.1-6.1,12.6c-4.6,4.4-8.8,5.1-11.1,5.1c-2.7,0-6.6-0.9-10.4-4.8c-4-4.2-5.2-8.9-5.1-12.4
		c0.1-3.7,1.5-8.1,6-12.4c4.1-3.9,8.1-5,11.1-4.9c4.4,0.1,8.2,2.6,10.9,5.5c0.6,0.6,1.2,1.3,1.7,1.9L135.1,136.2z M138.9,123.9
		c-1-1-2.4-1.5-3.6-1.5c-1.1,0-2.3,0.5-3.4,1.6c-1.1,1.1-1.7,2.5-1.7,3.7c0,1.2,0.5,2.6,1.1,3.5L138.9,123.9z"/>
	<path d="M145.9,78.5l26.1,42.3l-8.7,7l-26.1-42.3L145.9,78.5z"/>
	<path d="M182.8,77.6l4.4,8.4c-2.9-0.4-4.7-0.1-6.6,1.2c-3.5,2.4-4,6.8-1.5,10.6c2.3,3.3,5.6,4,8.8,1.8c1.7-1.1,2.6-2.4,3.6-5.3
		l4.4,8.5c-2.5,3.2-3.6,4.4-5.7,5.8c-7,4.8-15.4,3-20.4-4.3c-5.5-8.1-3.8-18,4.2-23.4C176.8,79.1,179.6,78,182.8,77.6z"/>
	<path d="M224.8,69.8c4.6,8.6,1.3,18-8,23c-9.6,5.1-19,2.9-23.5-5.5c-4.4-8.3-0.8-17.8,8.7-22.9C211.5,59.4,220.4,61.5,224.8,69.8z
		 M214.6,74.8c-1.8-3.4-5-4.5-8.3-2.7c-3.6,1.9-4.7,6.5-2.6,10.6c1.8,3.4,5.1,4.5,8.4,2.7C215.8,83.4,216.8,78.9,214.6,74.8z"/>
	<path d="M238.8,48.3l0.5,4.1c2-4.5,4.2-6.6,8-7.9c4.2-1.4,6.9-0.9,10,2.1c2-4.7,4.7-7.1,8.9-8.6c5.8-2,10.4,0.1,12.1,5.2
		c0.4,1.3,0.8,2.5,1.6,6.3l3.2,15.7l-10.5,3.6l-3-14.5c-0.2-1.1-0.6-2.6-0.8-3.1c-0.8-2.3-2.6-3.3-4.8-2.5c-3.4,1.2-4.2,3.5-3,8.9
		l3,14.2l-10.6,3.6l-3.2-15.5c-0.2-1.1-0.4-1.9-0.6-2.5c-0.7-2-2.4-2.9-4.6-2.1c-3.1,1-4,3.9-2.9,8.9l3,14.2l-10.6,3.6l-6.2-29.8
		L238.8,48.3z"/>
	<path d="M298,49.5c0.2,1.1,0.6,3.7,2.4,4.8c0.6,0.4,1.8,0.9,3.6,0.5c0.9-0.2,1.9-0.5,2.7-1.3c0.8-0.8,1-1.6,1.1-2.3l12-2.1
		c-0.3,2.3-1.2,4.4-2.3,6c-3.1,4.6-8.6,6.4-12.1,7c-6.3,1.1-10.1-0.7-12.1-1.9c-2.3-1.5-5-4.5-5.9-9.8c-1-5.7,0.6-10.3,2.7-13.2
		c2.2-3,5.8-5.9,11.9-7c5.6-1,9.5,0.4,12,2.2c3.6,2.5,5.3,6.8,6,10.6c0.2,0.9,0.2,1.7,0.3,2.6L298,49.5z M308,41.4
		c-0.3-1.4-1.1-2.6-2.1-3.3c-0.9-0.6-2.2-0.9-3.7-0.6c-1.5,0.3-2.8,1.1-3.5,2.1c-0.7,1-1,2.4-1,3.5L308,41.4z"/>
</g>
</svg>
