<?xml version="1.0" encoding="utf-8"?>
<!-- Generator: Adobe Illustrator 25.0.0, SVG Export Plug-In . SVG Version: 6.00 Build 0)  -->
<svg version="1.1" id="Layer_1" xmlns="http://www.w3.org/2000/svg" xmlns:xlink="http://www.w3.org/1999/xlink" x="0px" y="0px"
	 viewBox="0 0 717.3 717.3" style="enable-background:new 0 0 717.3 717.3;" xml:space="preserve">
<style type="text/css">
	.st0{fill:none;}
</style>
<path d="M684.1,435.2l-27.6-21.3l1.1-7.9l11.1-1.5c2.4-0.3,4.1-0.5,6.9-0.4c-2.2-1.2-4.3-2.5-5.8-3.6l-10.5-7.7l1.1-8.1l31.3-5.7
	l-1.5,11.2l-9.7,1.7c-2.2,0.3-4.3,0.7-7.1,0.7c2.6,1.4,3.2,1.7,6,3.9l9,6.6l-1,7.4l-9.4,1.6c-2.9,0.5-4.5,0.7-6.7,0.8
	c2,1.1,3.3,1.9,4.9,3.1l9.5,7.3L684.1,435.2z"/>
<path d="M662.8,443.7c-1-0.3-3.6-1.1-5.4,0.1c-0.7,0.4-1.5,1.3-2.1,2.9c-0.2,0.9-0.4,1.9,0,3c0.4,1,1,1.6,1.5,2l-3.4,11.7
	c-2-1.4-3.4-3.1-4.4-4.7c-2.8-4.8-1.9-10.5-0.9-13.9c1.8-6.1,5.1-8.8,7.1-10c2.3-1.3,6.3-2.4,11.4-1c5.6,1.6,9,5,10.6,8.3
	c1.7,3.2,2.7,7.9,0.9,13.7c-1.6,5.5-4.5,8.3-7.3,9.8c-3.9,2.1-8.5,1.8-12.2,0.7c-0.8-0.2-1.7-0.5-2.5-0.9L662.8,443.7z M665.6,456.3
	c1.4,0.3,2.9,0.2,3.9-0.5c0.9-0.6,1.7-1.7,2.2-3c0.4-1.5,0.3-3-0.4-4.1c-0.6-1.1-1.7-1.9-2.7-2.5L665.6,456.3z"/>
<path d="M682.1,499.2l-43.6-23.8l4.1-10.4l43.6,23.8L682.1,499.2z"/>
<path d="M650.5,518.2l-8-5.1c2.7-1.1,4.1-2.2,5.1-4.4c1.8-3.8,0.1-7.9-3.9-9.9c-3.6-1.8-6.9-0.7-8.6,2.8c-0.8,1.8-1.1,3.4-0.6,6.4
	l-8-5.2c0.5-4,0.9-5.6,2-7.8c3.7-7.6,11.9-10.2,19.8-6.4c8.8,4.3,12.1,13.7,7.9,22.4C654.9,514,653,516.3,650.5,518.2z"/>
<path d="M617.8,545.8c-8.3-5.2-10-15-4.4-23.9c5.7-9.2,15-11.9,23.1-6.8c8,5,9.5,15.1,3.8,24.2C634.6,548.2,625.8,550.9,617.8,545.8
	z M624.3,536.5c3.2,2.1,6.6,1.4,8.6-1.8c2.2-3.4,0.9-8-3-10.5c-3.2-2.1-6.7-1.4-8.7,1.8C618.9,529.6,620.3,533.9,624.3,536.5z"/>
<path d="M616.4,571.5l-2.4-3.4c0.6,4.9-0.3,7.8-3,10.9c-3,3.3-5.5,4.3-9.7,3.1c0.6,5.1-0.5,8.5-3.5,11.9c-4,4.6-9,5.1-13,1.6
	c-1-0.9-2-1.8-4.5-4.6l-10.6-12.1l7.3-8.3l9.8,11.2c0.8,0.8,1.8,1.9,2.2,2.3c1.9,1.7,3.9,1.5,5.4-0.2c2.4-2.7,1.8-5.2-1.8-9.2
	l-9.6-10.9l7.4-8.4l10.5,11.9c0.7,0.8,1.3,1.4,1.8,1.8c1.7,1.4,3.6,1.3,5-0.4c2.2-2.4,1.5-5.4-1.9-9.2l-9.6-10.9l7.4-8.4l20.2,22.7
	L616.4,571.5z"/>
<path d="M564.4,599.8c-0.7-0.8-2.4-2.9-4.5-2.9c-0.8,0-2,0.1-3.4,1.3c-0.7,0.6-1.3,1.4-1.7,2.5c-0.3,1-0.2,1.9,0.1,2.5l-9.3,7.8
	c-0.8-2.2-1.1-4.4-0.9-6.3c0.4-5.5,4.3-9.8,7-12.1c4.9-4.1,9.1-4.5,11.4-4.3c2.7,0.2,6.6,1.4,10.1,5.6c3.7,4.5,4.6,9.2,4.2,12.8
	c-0.4,3.7-2.1,8-6.8,11.9c-4.4,3.6-8.4,4.4-11.5,4.1c-4.4-0.4-7.9-3.2-10.4-6.3c-0.6-0.7-1.1-1.4-1.5-2L564.4,599.8z M559.8,611.8
	c1,1,2.3,1.7,3.5,1.8c1.1,0,2.3-0.3,3.4-1.3c1.2-1,1.9-2.4,2-3.6c0.1-1.2-0.3-2.6-0.9-3.6L559.8,611.8z"/>
<path class="st0" d="M457.8,680.2l4.5-34.6l7.4-3.1l6.9,8.9c1.5,1.9,2.5,3.3,3.8,5.7c0-2.5,0-5,0.2-6.8l1.3-12.9l7.6-3.1l20.7,24.2
	l-10.4,4.3l-6.4-7.5c-1.5-1.7-2.7-3.4-4.2-5.8c0.1,2.9,0.1,3.6-0.3,7.1l-1.1,11.2l-6.9,2.8l-6.2-7.3c-1.8-2.2-2.9-3.6-4.1-5.4
	c0,2.2,0,3.8-0.3,5.8l-1.4,11.9L457.8,680.2z"/>
<path class="st0" d="M439.8,666c-0.3-1-0.9-3.6-2.8-4.6c-0.7-0.4-1.9-0.8-3.6-0.3c-0.9,0.3-1.8,0.7-2.5,1.4c-0.7,0.8-0.9,1.6-1,2.4
	l-11.8,2.9c0.2-2.3,0.9-4.5,1.9-6.2c2.8-4.8,8.1-7,11.6-7.8c6.1-1.5,10.2,0,12.2,1.1c2.4,1.4,5.3,4.1,6.6,9.4
	c1.4,5.6,0.1,10.3-1.8,13.4c-2,3.1-5.4,6.3-11.4,7.8c-5.5,1.4-9.5,0.2-12.1-1.3c-3.7-2.3-5.7-6.4-6.7-10.2c-0.2-0.8-0.4-1.7-0.5-2.5
	L439.8,666z M430.3,674.7c0.4,1.4,1.3,2.5,2.4,3.1c1,0.5,2.3,0.7,3.7,0.3c1.5-0.4,2.7-1.3,3.4-2.4c0.6-1.1,0.9-2.5,0.8-3.6
	L430.3,674.7z"/>
<path class="st0" d="M401.5,710.6l-1.4-49.7l11-1.7l1.4,49.7L401.5,710.6z"/>
<path class="st0" d="M369.1,692.9l0.5-9.5c2.4,1.8,3.9,2.4,6.3,2.3c4.2-0.3,6.9-3.8,6.5-8.4c-0.3-4-2.8-6.3-6.6-6
	c-2,0.1-3.4,0.8-5.8,2.7l0.5-9.5c3.7-1.6,5.3-2.1,7.9-2.2c8.4-0.7,14.9,5.1,15.5,13.9c0.7,9.8-5.8,17.5-15.4,18.2
	C375.1,694.6,372.1,694.1,369.1,692.9z"/>
<path class="st0" d="M328.8,678.4c0.5-9.7,8-16.2,18.5-15.7c10.8,0.5,17.8,7.2,17.5,16.7c-0.5,9.4-8.3,15.8-19.1,15.3
	C335.1,694.2,328.5,687.8,328.8,678.4z M340.2,679.3c-0.2,3.9,2,6.4,5.7,6.6c4.1,0.2,7.4-3.2,7.6-7.8c0.2-3.9-2.1-6.5-5.9-6.7
	C343.5,671.3,340.4,674.6,340.2,679.3z"/>
<path class="st0" d="M306.1,690.3l1.6-3.9c-4,3-6.9,3.7-10.9,2.9c-4.4-0.8-6.4-2.7-7.6-6.8c-4.1,3.1-7.6,3.8-12,3
	c-6-1.2-9-5.2-7.9-10.5c0.2-1.3,0.6-2.6,1.8-6.2l5-15.2l10.8,2.1l-4.6,14.1c-0.3,1.1-0.8,2.6-0.9,3.1c-0.5,2.4,0.7,4.1,2.9,4.6
	c3.5,0.7,5.3-1,7.1-6.2l4.5-13.8l10.9,2.1l-4.9,15.1c-0.3,1-0.5,1.8-0.7,2.5c-0.5,2.1,0.7,3.7,2.9,4.2c3.2,0.6,5.3-1.4,7-6.2
	l4.5-13.8l10.9,2.1l-9.4,29L306.1,690.3z"/>
<path class="st0" d="M255.4,659.8c0.3-1,1.3-3.5,0.2-5.4c-0.3-0.7-1.2-1.6-2.8-2.3c-0.9-0.3-1.9-0.5-3-0.2c-1.1,0.3-1.6,0.9-2.1,1.4
	l-11.4-4.1c1.5-1.9,3.3-3.2,5-4.1c5-2.5,10.6-1.2,14,0c5.9,2.2,8.5,5.6,9.5,7.7c1.2,2.4,2,6.4,0.2,11.4c-1.9,5.5-5.6,8.6-8.9,10.1
	c-3.3,1.5-8,2.2-13.8,0.1c-5.4-1.9-8-5.1-9.3-7.9c-1.9-4-1.3-8.5,0.1-12.2c0.3-0.8,0.6-1.6,1-2.4L255.4,659.8z M242.6,661.8
	c-0.4,1.4-0.3,2.8,0.2,3.9c0.5,1,1.5,1.8,2.9,2.4c1.5,0.5,3,0.5,4.1-0.1c1.1-0.6,2.1-1.6,2.7-2.5L242.6,661.8z"/>
<path d="M132.2,608.3l32.2-13.5l6.4,4.9l-4.2,10.4c-0.9,2.3-1.6,3.8-3,6.2c2.1-1.3,4.3-2.5,6-3.2l11.7-5.3l6.5,5l-10.5,30l-9-6.8
	l3.2-9.3c0.8-2.2,1.6-4.1,2.9-6.5c-2.4,1.5-3.1,1.9-6.3,3.3l-10.2,4.6l-5.9-4.5l3.2-9c1-2.8,1.6-4.3,2.7-6.2
	c-1.9,1.1-3.3,1.9-5.2,2.8l-11,4.7L132.2,608.3z"/>
<path d="M135.4,585.5c0.8-0.8,2.7-2.6,2.6-4.7c0-0.8-0.3-2-1.6-3.2c-0.7-0.7-1.5-1.2-2.6-1.5c-1.1-0.2-1.9,0-2.5,0.3l-8.5-8.7
	c2.1-1,4.3-1.5,6.2-1.4c5.5-0.1,10.1,3.5,12.6,6c4.5,4.5,5.2,8.7,5.2,11c0,2.7-0.9,6.7-4.8,10.4c-4.2,4.1-8.8,5.3-12.4,5.2
	c-3.7-0.1-8.2-1.5-12.4-5.9c-4-4.1-5-8-5-11.1c0-4.4,2.6-8.2,5.4-11c0.6-0.6,1.3-1.2,1.9-1.6L135.4,585.5z M123,581.8
	c-0.9,1.1-1.5,2.5-1.5,3.7c0.1,1.1,0.5,2.3,1.6,3.3c1.1,1.1,2.6,1.7,3.8,1.7c1.2,0,2.6-0.5,3.5-1.1L123,581.8z"/>
<path d="M77.6,575.1l42.1-26.4l7.1,8.7l-42.1,26.4L77.6,575.1z"/>
<path d="M76.3,538.3l8.4-4.4c-0.4,2.9,0,4.7,1.3,6.6c2.4,3.5,6.8,4,10.6,1.4c3.3-2.3,4-5.6,1.8-8.9c-1.2-1.6-2.4-2.6-5.3-3.5
	l8.4-4.5c3.2,2.4,4.4,3.5,5.9,5.7c4.8,6.9,3.1,15.4-4.1,20.4c-8.1,5.6-17.9,3.9-23.5-4C78,544.2,76.9,541.5,76.3,538.3z"/>
<path d="M68.4,496.3c8.5-4.7,17.9-1.4,23,7.8c5.1,9.5,3,19-5.3,23.5c-8.2,4.5-17.8,0.9-23-8.6C58,509.8,60,500.8,68.4,496.3z
	 M73.4,506.5c-3.3,1.8-4.4,5-2.6,8.3c2,3.7,6.6,4.7,10.5,2.5c3.3-1.8,4.4-5.2,2.6-8.4C82,505.2,77.6,504.3,73.4,506.5z"/>
<path d="M46.7,482.5l4.1-0.5c-4.6-1.9-6.7-4.1-8-7.9c-1.5-4.2-1-6.9,2.1-10c-4.7-2-7.2-4.7-8.7-8.8c-2-5.8,0-10.4,5-12.2
	c1.3-0.5,2.5-0.8,6.2-1.6l15.7-3.3l3.6,10.5l-14.5,3.1c-1.1,0.3-2.6,0.6-3.1,0.8c-2.3,0.8-3.3,2.6-2.4,4.8c1.2,3.4,3.5,4.1,8.9,2.9
	l14.2-3.1l3.7,10.5l-15.5,3.4c-1.1,0.3-1.8,0.5-2.5,0.6c-2,0.7-2.9,2.4-2.1,4.6c1.1,3,3.9,3.9,8.8,2.8l14.2-3.1l3.7,10.5L50.4,493
	L46.7,482.5z"/>
<path d="M47.5,423.3c1.1-0.2,3.6-0.7,4.8-2.5c0.4-0.6,0.8-1.8,0.5-3.6c-0.2-0.9-0.5-1.9-1.3-2.6c-0.8-0.7-1.6-1-2.3-1.1l-2.2-12
	c2.3,0.4,4.4,1.2,5.9,2.3c4.6,3.1,6.5,8.5,7.1,12.1c1.1,6.2-0.7,10.2-1.8,12.1c-1.6,2.3-4.4,5-9.8,5.9c-5.7,1-10.3-0.6-13.2-2.7
	c-3-2.2-5.9-5.8-7-11.9c-1.1-5.6,0.4-9.5,2.1-11.9c2.5-3.6,6.7-5.3,10.6-6c0.9-0.2,1.7-0.3,2.5-0.3L47.5,423.3z M39.4,413.3
	c-1.4,0.4-2.6,1.1-3.3,2.2c-0.6,0.9-0.9,2.2-0.6,3.7s1.1,2.8,2.1,3.6c1,0.7,2.5,1,3.6,1L39.4,413.3z"/>
<path class="st0" d="M33.7,274.6l26.9,22.2l-1.3,7.9l-11.1,1.1c-2.4,0.2-4.1,0.3-6.9,0.2c2.2,1.3,4.2,2.6,5.7,3.8l10.2,8l-1.4,8.1
	l-31.4,4.6l1.9-11.2l9.7-1.4c2.2-0.3,4.3-0.5,7.1-0.5c-2.5-1.5-3.2-1.8-5.9-4.1l-8.8-6.9l1.2-7.4l9.4-1.3c2.9-0.4,4.5-0.6,6.7-0.5
	c-2-1.2-3.2-2-4.8-3.3l-9.3-7.6L33.7,274.6z"/>
<path class="st0" d="M55.4,266.9c1,0.3,3.6,1.2,5.4,0.1c0.7-0.4,1.6-1.2,2.2-2.9c0.3-0.9,0.5-1.9,0.1-3c-0.3-1-0.9-1.6-1.4-2
	l3.8-11.6c1.9,1.5,3.3,3.2,4.2,4.9c2.6,4.9,1.6,10.5,0.4,13.9c-2,6-5.4,8.7-7.5,9.7c-2.4,1.2-6.3,2.2-11.4,0.6
	c-5.6-1.8-8.8-5.4-10.4-8.6c-1.6-3.3-2.5-8-0.5-13.8c1.7-5.4,4.8-8.2,7.6-9.5c4-2,8.4-1.5,12.2-0.3c0.8,0.3,1.7,0.6,2.4,1
	L55.4,266.9z M52.9,254.2c-1.4-0.3-2.9-0.3-3.9,0.4c-0.9,0.6-1.8,1.6-2.3,2.9c-0.4,1.5-0.4,3,0.2,4.1c0.6,1.1,1.6,2,2.6,2.6
	L52.9,254.2z"/>
<path class="st0" d="M37.9,210.8l42.7,25.2l-4.5,10.2L33.5,221L37.9,210.8z"/>
<path class="st0" d="M70.1,192.8l7.8,5.4c-2.7,1-4.2,2.1-5.3,4.2c-2,3.7-0.4,7.9,3.6,10c3.6,1.9,6.9,1,8.7-2.5
	c0.9-1.8,1.2-3.4,0.8-6.4l7.9,5.4c-0.7,4-1,5.6-2.3,7.8c-4,7.5-12.3,9.8-20.1,5.7c-8.7-4.6-11.7-14.1-7.2-22.7
	C65.6,197,67.5,194.7,70.1,192.8z"/>
<path class="st0" d="M103.8,166.4c8.1,5.5,9.5,15.4,3.6,24c-6,8.9-15.4,11.4-23.4,6.1c-7.8-5.3-9-15.3-3-24.3
	C87,163.4,96,161.2,103.8,166.4z M97,175.6c-3.1-2.2-6.5-1.7-8.5,1.5c-2.3,3.4-1.1,8,2.6,10.6c3.1,2.2,6.7,1.6,8.7-1.5
	C102.1,182.6,100.9,178.2,97,175.6z"/>
<path class="st0" d="M106.1,140.8l2.3,3.5c-0.4-4.9,0.6-7.8,3.4-10.8c3.1-3.2,5.7-4,9.8-2.8c-0.4-5.1,0.8-8.5,3.9-11.7
	c4.2-4.4,9.2-4.8,13.1-1.1c1,0.9,1.9,1.8,4.3,4.8l10.2,12.4l-7.6,8.1l-9.5-11.5c-0.8-0.9-1.7-2-2.1-2.4c-1.8-1.6-3.9-1.7-5.4,0.1
	c-2.5,2.6-2,5,1.5,9.2l9.3,11.2l-7.6,8.1l-10.1-12.3c-0.7-0.8-1.3-1.4-1.7-1.9c-1.6-1.4-3.5-1.4-5.1,0.3c-2.3,2.3-1.7,5.3,1.6,9.1
	l9.3,11.2l-7.6,8.1l-19.5-23.4L106.1,140.8z"/>
<path class="st0" d="M159,114.3c0.7,0.8,2.3,3,4.4,3.1c0.8,0.1,2,0,3.4-1.2c0.7-0.6,1.4-1.4,1.8-2.4c0.3-1,0.2-1.9,0-2.5l9.6-7.4
	c0.7,2.2,1,4.4,0.7,6.3c-0.6,5.5-4.6,9.7-7.4,11.8c-5,3.9-9.3,4.2-11.6,3.9c-2.7-0.3-6.5-1.7-9.8-5.9c-3.6-4.6-4.3-9.3-3.8-12.9
	c0.5-3.7,2.4-7.9,7.2-11.7c4.5-3.5,8.6-4.1,11.6-3.7c4.4,0.5,7.8,3.5,10.2,6.6c0.6,0.7,1.1,1.4,1.4,2.1L159,114.3z M164,102.4
	c-1-1.1-2.3-1.8-3.5-1.9c-1.1-0.1-2.3,0.2-3.5,1.2c-1.2,1-2,2.3-2.1,3.5c-0.1,1.2,0.2,2.6,0.7,3.6L164,102.4z"/>
<path d="M268.1,37.5L262.4,72l-7.5,2.8l-6.6-9.1c-1.4-1.9-2.3-3.4-3.6-5.9c0,2.5-0.1,5-0.4,6.8l-1.7,12.8l-7.7,2.9l-19.8-24.8
	l10.6-3.8l6.2,7.8c1.4,1.7,2.6,3.5,4,5.9c0-2.9,0-3.6,0.5-7.1l1.5-11.2l7-2.6l5.9,7.6c1.8,2.2,2.7,3.7,3.9,5.5
	c0.1-2.2,0.1-3.8,0.5-5.8l1.8-11.9L268.1,37.5z"/>
<path d="M285.8,52.4c0.3,1.1,0.8,3.6,2.6,4.7c0.7,0.4,1.8,0.7,3.6,0.4c0.9-0.2,1.9-0.6,2.6-1.4s0.9-1.6,1.1-2.3l11.9-2.5
	c-0.3,2.3-1,4.5-2.1,6c-2.9,4.7-8.4,6.7-11.8,7.4c-6.2,1.3-10.2-0.4-12.2-1.5c-2.3-1.5-5.1-4.3-6.2-9.6c-1.2-5.7,0.3-10.3,2.3-13.2
	c2.1-3,5.7-6.1,11.6-7.4c5.5-1.2,9.5,0.1,12.1,1.7c3.7,2.4,5.5,6.5,6.3,10.4c0.2,0.9,0.3,1.7,0.4,2.5L285.8,52.4z M295.5,43.8
	c-0.4-1.4-1.2-2.5-2.2-3.2c-1-0.5-2.3-0.8-3.7-0.5c-1.5,0.4-2.8,1.2-3.5,2.2c-0.7,1.1-1,2.5-0.9,3.6L295.5,43.8z"/>
<path d="M325.4,9.1l-0.2,49.7l-11,1.3l0.2-49.7L325.4,9.1z"/>
<path d="M357.2,27.8l-0.8,9.5c-2.3-1.9-3.9-2.5-6.2-2.5c-4.2,0.2-7,3.6-6.8,8.2c0.2,4,2.6,6.4,6.5,6.3c2,0,3.5-0.7,5.9-2.5l-0.8,9.5
	c-3.8,1.4-5.4,1.9-8,2c-8.4,0.4-14.7-5.6-15-14.4c-0.4-9.8,6.4-17.2,16-17.7C351.3,25.9,354.3,26.5,357.2,27.8z"/>
<path d="M396.9,43.3c-0.7,9.7-8.4,16-18.9,15.3c-10.8-0.7-17.7-7.6-17.1-17.1c0.7-9.4,8.7-15.6,19.5-14.8
	C391.2,27.5,397.6,33.9,396.9,43.3z M385.7,42.2c0.3-3.9-1.8-6.5-5.6-6.7c-4.1-0.3-7.5,3-7.8,7.6c-0.3,3.9,2,6.6,5.7,6.8
	C382.1,50.1,385.3,46.9,385.7,42.2z"/>
<path d="M420.1,32.4l-1.8,3.8c4.1-2.8,7-3.4,11-2.5c4.4,1,6.3,2.9,7.4,7c4.2-2.9,7.8-3.6,12.1-2.6c6,1.4,8.8,5.5,7.6,10.8
	c-0.3,1.3-0.7,2.6-2,6.1l-5.5,15.1l-10.8-2.5l5.1-14c0.4-1.1,0.9-2.5,1-3.1c0.6-2.4-0.5-4.1-2.8-4.7c-3.5-0.8-5.4,0.8-7.3,6l-5,13.7
	l-10.8-2.5l5.4-15c0.3-1,0.6-1.8,0.8-2.5c0.5-2.1-0.5-3.7-2.8-4.3c-3.2-0.7-5.4,1.2-7.2,6l-5,13.7l-10.8-2.5l10.4-28.6L420.1,32.4z"
	/>
<path d="M469.8,64.7c-0.4,1-1.4,3.5-0.4,5.4c0.3,0.7,1.1,1.6,2.7,2.4c0.9,0.3,1.9,0.6,2.9,0.3c1-0.3,1.7-0.8,2.1-1.3l11.3,4.5
	c-1.5,1.8-3.4,3.1-5.1,3.9c-5.1,2.3-10.6,0.9-14-0.5c-5.9-2.4-8.2-5.9-9.3-8.1c-1.1-2.5-1.8-6.5,0.1-11.5c2.1-5.4,5.9-8.4,9.3-9.8
	c3.4-1.4,8.1-1.9,13.8,0.4c5.2,2.1,7.9,5.3,9.1,8.1c1.7,4,1,8.5-0.5,12.2c-0.3,0.8-0.7,1.6-1.1,2.4L469.8,64.7z M482.6,63
	c0.4-1.4,0.4-2.8-0.1-3.9c-0.5-1-1.5-1.8-2.8-2.5c-1.5-0.5-3-0.6-4.1,0c-1.1,0.6-2.1,1.5-2.8,2.4L482.6,63z"/>
<path class="st0" d="M591.2,120.3l-32.6,12.4l-6.2-5.1l4.5-10.3c1-2.3,1.7-3.8,3.3-6.1c-2.1,1.2-4.4,2.4-6.1,3l-11.9,4.9l-6.4-5.2
	l11.5-29.6l8.7,7.1l-3.5,9.2c-0.9,2.1-1.7,4.1-3.1,6.5c2.5-1.4,3.1-1.8,6.4-3.1l10.4-4.3l5.8,4.7l-3.5,8.9c-1.1,2.7-1.8,4.3-2.9,6.1
	c1.9-1.1,3.3-1.8,5.2-2.6l11.1-4.4L591.2,120.3z"/>
<path class="st0" d="M587.3,142.9c-0.8,0.8-2.8,2.5-2.7,4.6c0,0.8,0.2,2,1.5,3.3c0.7,0.7,1.5,1.3,2.6,1.6c1,0.2,1.9,0.1,2.5-0.2
	l8.2,9c-2.1,0.9-4.3,1.3-6.2,1.2c-5.5-0.1-10-3.8-12.4-6.4c-4.3-4.7-4.9-8.9-4.8-11.2c0.1-2.7,1.1-6.6,5.1-10.3
	c4.3-3.9,9-5,12.5-4.8c3.7,0.2,8.1,1.7,12.2,6.3c3.8,4.2,4.8,8.2,4.6,11.2c-0.2,4.4-2.8,8.1-5.8,10.7c-0.6,0.6-1.3,1.2-1.9,1.6
	L587.3,142.9z M599.4,147.1c1-1,1.6-2.4,1.6-3.6c0-1.1-0.4-2.3-1.5-3.4c-1.1-1.1-2.5-1.8-3.7-1.8c-1.2,0-2.6,0.4-3.5,1L599.4,147.1z
	"/>
<path class="st0" d="M644.6,155.3l-43,25l-6.8-8.9l43-25L644.6,155.3z"/>
<path class="st0" d="M644.6,192.2l-8.5,4.2c0.5-2.9,0.2-4.7-1-6.6c-2.3-3.6-6.7-4.2-10.6-1.8c-3.4,2.2-4.1,5.5-2,8.7
	c1.1,1.7,2.3,2.7,5.2,3.7l-8.6,4.2c-3.1-2.6-4.3-3.7-5.6-5.9c-4.6-7.1-2.6-15.5,4.8-20.3c8.2-5.3,18.1-3.3,23.3,4.8
	C643.2,186.1,644.2,189,644.6,192.2z"/>
<path class="st0" d="M651.2,234.4c-8.7,4.4-18,0.8-22.8-8.6c-4.8-9.7-2.4-19.1,6.1-23.3c8.4-4.2,17.8-0.3,22.7,9.3
	C662,221.3,659.7,230.2,651.2,234.4z M646.5,224c3.4-1.7,4.6-4.9,2.9-8.2c-1.8-3.6-6.4-4.9-10.5-2.9c-3.4,1.7-4.6,5-2.9,8.3
	C637.9,225,642.4,226.1,646.5,224z"/>
<path class="st0" d="M672.4,248.9l-4.1,0.4c4.4,2.1,6.5,4.4,7.7,8.2c1.3,4.2,0.7,6.9-2.4,9.9c4.6,2.1,7,4.9,8.4,9.1
	c1.8,5.9-0.4,10.4-5.5,12c-1.3,0.4-2.5,0.7-6.3,1.4l-15.8,2.8l-3.3-10.6l14.6-2.6c1.1-0.2,2.6-0.5,3.1-0.7c2.3-0.7,3.4-2.5,2.6-4.7
	c-1.1-3.4-3.4-4.3-8.8-3.2l-14.3,2.6l-3.3-10.7l15.6-2.8c1.1-0.2,1.9-0.3,2.5-0.5c2-0.6,3-2.3,2.2-4.5c-0.9-3.1-3.8-4.1-8.8-3.1
	l-14.3,2.6l-3.3-10.7l30-5.4L672.4,248.9z"/>
<path class="st0" d="M669.6,308.1c-1.1,0.2-3.7,0.5-4.9,2.3c-0.4,0.6-0.9,1.8-0.6,3.6c0.2,0.9,0.4,1.9,1.2,2.7
	c0.8,0.8,1.6,1,2.3,1.2l1.8,12.1c-2.3-0.4-4.4-1.3-5.9-2.5c-4.5-3.2-6.2-8.8-6.7-12.3c-0.9-6.3,1-10.1,2.2-12
	c1.6-2.3,4.6-4.9,10-5.6c5.7-0.8,10.3,0.9,13.1,3.1c2.9,2.3,5.7,6,6.7,12.1c0.9,5.6-0.7,9.5-2.5,11.9c-2.6,3.5-6.9,5.1-10.8,5.7
	c-0.9,0.2-1.7,0.2-2.6,0.2L669.6,308.1z M677.4,318.3c1.4-0.3,2.6-1,3.4-2c0.6-0.9,1-2.2,0.7-3.7s-1-2.8-2-3.6
	c-1-0.7-2.4-1.1-3.5-1.1L677.4,318.3z"/>
</svg>
