<?xml version="1.0" encoding="utf-8"?>
<!-- Generator: Adobe Illustrator 25.0.0, SVG Export Plug-In . SVG Version: 6.00 Build 0)  -->
<svg version="1.1" xmlns="http://www.w3.org/2000/svg" xmlns:xlink="http://www.w3.org/1999/xlink" x="0px" y="0px"
	 viewBox="0 0 1728 1728" style="enable-background:new 0 0 1728 1728;" xml:space="preserve">
<style type="text/css">
	.st0{fill:none;stroke:#000000;stroke-width:0.7056;stroke-linecap:round;stroke-linejoin:round;}
	.st1{fill:none;stroke:#000000;stroke-width:1.176;stroke-linejoin:round;}
	.st2{fill:none;stroke:#000000;stroke-width:1.4112;stroke-linejoin:round;}
</style>
<g id="new_for_web::Visible::Curves::Default">
	<line class="st0" x1="846.6" y1="875.2" x2="897.8" y2="904.7"/>
	<line class="st0" x1="760.4" y1="770.1" x2="824.3" y2="807"/>
	<line class="st0" x1="829.2" y1="724.6" x2="797.3" y2="706.2"/>
	<line class="st0" x1="998.4" y1="837.3" x2="1005.8" y2="824.5"/>
	<line class="st0" x1="1022.4" y1="814.2" x2="1022.4" y2="681.4"/>
	<line class="st0" x1="760.4" y1="884.4" x2="760.4" y2="770.1"/>
	<line class="st0" x1="677.8" y1="927.9" x2="687.4" y2="933.4"/>
	<line class="st0" x1="670.4" y1="937" x2="681.6" y2="943.4"/>
	<line class="st0" x1="663" y1="946.1" x2="675.8" y2="953.4"/>
	<line class="st0" x1="797.3" y1="687.7" x2="797.3" y2="632.4"/>
	<line class="st0" x1="1022.4" y1="681.4" x2="1022.4" y2="626.1"/>
	<line class="st0" x1="797.3" y1="632.4" x2="861.2" y2="669.3"/>
	<line class="st0" x1="861.2" y1="669.3" x2="824.3" y2="733.2"/>
	<line class="st0" x1="977.1" y1="638.2" x2="926" y2="608.7"/>
	<line class="st0" x1="824.3" y1="733.2" x2="824.3" y2="788.5"/>
	<line class="st0" x1="843.6" y1="699.7" x2="832.4" y2="693.3"/>
	<line class="st0" x1="926.5" y1="792.2" x2="1022.4" y2="626.1"/>
	<line class="st0" x1="1022.4" y1="626.1" x2="856.3" y2="530.2"/>
	<line class="st0" x1="655.7" y1="955.2" x2="670" y2="963.5"/>
	<line class="st0" x1="648.3" y1="964.2" x2="664.3" y2="973.5"/>
	<line class="st0" x1="640.9" y1="973.3" x2="663.2" y2="986.2"/>
	<line class="st0" x1="633.5" y1="982.4" x2="663.2" y2="999.6"/>
	<line class="st0" x1="626.1" y1="991.5" x2="663.2" y2="1012.9"/>
	<line class="st0" x1="618.8" y1="1000.6" x2="663.2" y2="1026.3"/>
	<line class="st0" x1="611.4" y1="1009.7" x2="660.2" y2="1037.9"/>
	<line class="st0" x1="604" y1="1018.8" x2="650.2" y2="1045.5"/>
	<line class="st0" x1="596.6" y1="1027.9" x2="640.2" y2="1053"/>
	<line class="st0" x1="589.3" y1="1037" x2="630.2" y2="1060.6"/>
	<line class="st0" x1="685.2" y1="918.8" x2="693.2" y2="923.4"/>
	<line class="st0" x1="692.5" y1="909.7" x2="698.9" y2="913.4"/>
	<line class="st0" x1="1022.4" y1="640.8" x2="1109" y2="490.9"/>
	<line class="st0" x1="752.3" y1="1093.9" x2="576.4" y2="1398.6"/>
	<line class="st0" x1="764" y1="1029.4" x2="825.2" y2="923.4"/>
	<line class="st0" x1="764" y1="1117.8" x2="850.1" y2="987.3"/>
	<line class="st0" x1="1022.4" y1="704.1" x2="1082.9" y2="739"/>
	<line class="st0" x1="753.9" y1="1094.9" x2="577.1" y2="1401.1"/>
	<line class="st0" x1="764" y1="951" x2="770.3" y2="954.6"/>
	<line class="st0" x1="1022.4" y1="763.1" x2="1057.3" y2="783.3"/>
	<line class="st0" x1="1022.4" y1="629.8" x2="1086.2" y2="519.4"/>
	<line class="st0" x1="926.5" y1="972.4" x2="926.5" y2="847.5"/>
	<line class="st0" x1="846.6" y1="926.3" x2="846.6" y2="875.2"/>
	<line class="st0" x1="850.1" y1="928.3" x2="866.9" y2="899.1"/>
	<line class="st0" x1="929.9" y1="974.4" x2="1022.4" y2="814.2"/>
	<line class="st0" x1="824.5" y1="913.5" x2="760.2" y2="962.2"/>
	<line class="st0" x1="554.1" y1="1385.7" x2="723.9" y2="1091.5"/>
	<line class="st0" x1="557.3" y1="1387.5" x2="727.1" y2="1093.3"/>
	<line class="st0" x1="577.1" y1="1401.1" x2="602.7" y2="1415.8"/>
	<line class="st0" x1="577.1" y1="1401.1" x2="753.9" y2="1133.1"/>
	<line class="st0" x1="602.7" y1="1415.8" x2="753.9" y2="1153.9"/>
	<line class="st0" x1="694.2" y1="910.6" x2="760.4" y2="795.9"/>
	<line class="st0" x1="1109" y1="483.6" x2="1131.3" y2="496.5"/>
	<line class="st0" x1="1109" y1="483.6" x2="1109" y2="490.9"/>
	<line class="st0" x1="1109" y1="490.9" x2="1128.1" y2="502"/>
	<line class="st0" x1="825.2" y1="923.4" x2="844.4" y2="934.5"/>
	<line class="st0" x1="1060.6" y1="504.6" x2="1011.5" y2="619.8"/>
	<line class="st0" x1="581.9" y1="1046.1" x2="797.3" y2="673"/>
	<line class="st0" x1="1060.6" y1="504.6" x2="998.5" y2="612.2"/>
	<line class="st0" x1="1060.6" y1="504.6" x2="1086.2" y2="519.4"/>
	<line class="st0" x1="850.1" y1="928.3" x2="850.1" y2="987.3"/>
	<line class="st0" x1="692.5" y1="909.7" x2="686.8" y2="919.7"/>
	<line class="st0" x1="685.2" y1="918.8" x2="679.4" y2="928.8"/>
	<line class="st0" x1="589.3" y1="1037" x2="583.5" y2="1047"/>
	<line class="st0" x1="596.6" y1="1027.9" x2="590.9" y2="1037.9"/>
	<line class="st0" x1="604" y1="1018.8" x2="598.2" y2="1028.8"/>
	<line class="st0" x1="611.4" y1="1009.7" x2="605.6" y2="1019.7"/>
	<line class="st0" x1="618.8" y1="1000.6" x2="613" y2="1010.6"/>
	<line class="st0" x1="626.1" y1="991.5" x2="620.4" y2="1001.5"/>
	<line class="st0" x1="633.5" y1="982.4" x2="627.8" y2="992.4"/>
	<line class="st0" x1="640.9" y1="973.3" x2="635.1" y2="983.3"/>
	<line class="st0" x1="648.3" y1="964.2" x2="642.5" y2="974.3"/>
	<line class="st0" x1="655.7" y1="955.2" x2="649.9" y2="965.1"/>
	<line class="st0" x1="663" y1="946.1" x2="657.3" y2="956.1"/>
	<line class="st0" x1="670.4" y1="937" x2="664.6" y2="947"/>
	<line class="st0" x1="677.8" y1="927.9" x2="672" y2="937.9"/>
	<line class="st0" x1="824.3" y1="733.2" x2="926.5" y2="792.2"/>
	<line class="st0" x1="815.8" y1="755.2" x2="824.3" y2="760.1"/>
	<line class="st0" x1="824.3" y1="788.5" x2="824.3" y2="807"/>
	<line class="st0" x1="832.4" y1="708" x2="832.4" y2="719.1"/>
	<line class="st0" x1="1005.8" y1="828.2" x2="1004.2" y2="827.3"/>
	<line class="st0" x1="1005.8" y1="824.5" x2="1005.8" y2="828.2"/>
	<line class="st0" x1="1005.8" y1="828.2" x2="998.4" y2="841"/>
	<line class="st0" x1="998.4" y1="841" x2="998.4" y2="837.3"/>
	<line class="st0" x1="897.8" y1="904.7" x2="897.8" y2="955.8"/>
	<line class="st0" x1="797.3" y1="706.2" x2="760.4" y2="770.1"/>
	<line class="st0" x1="797.3" y1="706.2" x2="797.3" y2="687.7"/>
	<line class="st0" x1="815.8" y1="755.2" x2="824.3" y2="740.6"/>
	<line class="st0" x1="866.9" y1="899.1" x2="866.9" y2="886.9"/>
	<line class="st0" x1="760.4" y1="884.4" x2="818.6" y2="918"/>
	<line class="st0" x1="663.2" y1="1035.6" x2="620.2" y2="1068.2"/>
	<line class="st0" x1="764" y1="1136.4" x2="875.6" y2="943"/>
	<line class="st0" x1="875.6" y1="943" x2="942.7" y2="981.8"/>
	<line class="st0" x1="850.1" y1="928.3" x2="764" y2="1077.4"/>
	<line class="st0" x1="850.1" y1="928.3" x2="824.5" y2="913.5"/>
	<line class="st0" x1="1082.9" y1="739" x2="942.7" y2="981.8"/>
	<line class="st0" x1="825.2" y1="916.1" x2="825.2" y2="923.4"/>
	<line class="st0" x1="576.4" y1="1398.6" x2="554.1" y2="1385.7"/>
	<line class="st0" x1="825.2" y1="916.1" x2="847.6" y2="929"/>
	<line class="st0" x1="764" y1="1022.1" x2="825.2" y2="916.1"/>
	<line class="st0" x1="847.6" y1="929" x2="764" y2="1073.7"/>
	<line class="st0" x1="1131.3" y1="496.5" x2="1022.4" y2="685.1"/>
	<line class="st0" x1="620.2" y1="1068.2" x2="581.9" y2="1046.1"/>
	<line class="st0" x1="926.5" y1="847.5" x2="926.5" y2="792.2"/>
	<line class="st0" x1="927.8" y1="609.8" x2="927.8" y2="605.5"/>
	<line class="st0" x1="926" y1="608.7" x2="927.8" y2="605.5"/>
	<line class="st0" x1="927.8" y1="605.5" x2="978.9" y2="635"/>
	<line class="st0" x1="978.9" y1="635" x2="977.1" y2="638.2"/>
	<line class="st0" x1="832.4" y1="693.3" x2="832.4" y2="708"/>
	<line class="st0" x1="856.3" y1="530.2" x2="797.3" y2="632.4"/>
	<line class="st0" x1="1022.4" y1="633.5" x2="1109" y2="483.6"/>
</g>
<g id="new_for_web::Visible::Curves::2_REF">
	<line class="st0" x1="764" y1="1151.2" x2="760.3" y2="1157.6"/>
	<line class="st0" x1="753.9" y1="1153.9" x2="760.3" y2="1157.6"/>
	<line class="st0" x1="706.5" y1="1118" x2="706.5" y2="1081.4"/>
	<line class="st0" x1="669.6" y1="1181.9" x2="663.2" y2="1178.2"/>
	<polyline class="st0" points="669.6,1181.9 702.8,1124.4 706.5,1118 	"/>
	<line class="st0" x1="663.2" y1="1178.2" x2="663.2" y2="1104.4"/>
	<line class="st0" x1="669.6" y1="1181.9" x2="669.6" y2="1108.1"/>
	<line class="st0" x1="764" y1="948.3" x2="700.1" y2="911.4"/>
	<line class="st0" x1="727.1" y1="1086" x2="727.1" y2="1012.2"/>
	<line class="st0" x1="735.2" y1="1005.5" x2="764" y2="1022.1"/>
	<line class="st0" x1="730.8" y1="1079.6" x2="730.8" y2="1013.2"/>
	<line class="st0" x1="760.3" y1="1028.5" x2="730.8" y2="1079.6"/>
	<line class="st0" x1="1113.2" y1="324.9" x2="1076.3" y2="388.8"/>
	<line class="st0" x1="1177.1" y1="361.8" x2="1113.2" y2="324.9"/>
	<line class="st0" x1="1076.3" y1="462.6" x2="1082.7" y2="466.3"/>
	<line class="st0" x1="1140.2" y1="499.5" x2="1177.1" y2="435.6"/>
	<line class="st0" x1="764" y1="1022.1" x2="760.3" y2="1028.5"/>
	<line class="st0" x1="727.1" y1="1093.3" x2="727.1" y2="1086"/>
	<line class="st0" x1="669.6" y1="1108.1" x2="669.6" y2="1060.1"/>
	<line class="st0" x1="1076.3" y1="462.6" x2="1076.3" y2="388.8"/>
	<line class="st0" x1="1177.1" y1="435.6" x2="1177.1" y2="361.8"/>
	<line class="st0" x1="1173.4" y1="383" x2="1173.4" y2="375.6"/>
	<line class="st0" x1="1143.9" y1="426.7" x2="1143.9" y2="434.1"/>
	<line class="st0" x1="1173.4" y1="383" x2="1170.2" y2="381.1"/>
	<polyline class="st0" points="1082.7,466.3 1086.4,459.9 1108.3,422.1 	"/>
	<polyline class="st0" points="1108.3,481 1133.8,495.8 1140.2,499.5 	"/>
	<line class="st0" x1="1082.7" y1="407.3" x2="1108.3" y2="422"/>
	<line class="st0" x1="1076.3" y1="388.8" x2="1140.2" y2="425.7"/>
	<line class="st0" x1="1140.2" y1="425.7" x2="1177.1" y2="361.8"/>
	<line class="st0" x1="1140.2" y1="499.5" x2="1140.2" y2="425.7"/>
	<line class="st0" x1="1143.9" y1="434.1" x2="1173.4" y2="383"/>
	<line class="st0" x1="1082.7" y1="466.3" x2="1082.7" y2="407.3"/>
	<line class="st0" x1="760.3" y1="962.1" x2="764" y2="955.7"/>
	<line class="st0" x1="663.2" y1="1104.4" x2="663.2" y2="1049.1"/>
	<line class="st0" x1="753.9" y1="1094.9" x2="753.9" y2="1153.9"/>
	<line class="st0" x1="753.9" y1="1094.9" x2="733.1" y2="1082.9"/>
	<line class="st0" x1="760.3" y1="1157.6" x2="760.3" y2="1083.8"/>
	<line class="st0" x1="764" y1="1151.2" x2="764" y2="1077.4"/>
	<line class="st0" x1="764" y1="955.7" x2="764" y2="948.3"/>
	<line class="st0" x1="727.1" y1="1012.2" x2="764" y2="948.3"/>
	<line class="st0" x1="700.1" y1="911.4" x2="663.2" y2="975.3"/>
	<line class="st0" x1="663.2" y1="975.3" x2="727.1" y2="1012.2"/>
	<line class="st0" x1="730.8" y1="1013.2" x2="760.2" y2="962.2"/>
	<line class="st0" x1="760.2" y1="962.2" x2="760.3" y2="962.1"/>
	<line class="st0" x1="663.2" y1="1049.1" x2="663.2" y2="975.3"/>
	<line class="st0" x1="727.1" y1="1093.3" x2="669.6" y2="1060.1"/>
	<line class="st0" x1="760.3" y1="1035.8" x2="727.1" y2="1093.3"/>
	<line class="st0" x1="760.3" y1="1083.8" x2="760.3" y2="1035.8"/>
	<line class="st0" x1="764" y1="1077.4" x2="764" y2="1022.1"/>
	<line class="st0" x1="1143.9" y1="426.7" x2="1173.4" y2="375.6"/>
	<line class="st0" x1="1108.3" y1="422" x2="1108.3" y2="481"/>
</g>
<g id="new_for_web::PROF::PROF_2">
	<polyline class="st1" points="663.2,1035.6 663.2,975.3 700.1,911.4 764,948.3 764,955.7 730.8,1013.2 730.8,1079.6 	"/>
	<polyline class="st1" points="735.2,1005.5 764,1022.1 764,1136.4 	"/>
	<polyline class="st1" points="753.9,1153.9 753.9,1094.9 733.1,1082.9 	"/>
	<polyline class="st1" points="760.3,1035.8 727.1,1093.3 669.6,1060.1 	"/>
	<polyline class="st1" points="846.6,875.2 897.8,904.7 897.8,955.8 	"/>
	<line class="st1" x1="866.9" y1="899.1" x2="866.9" y2="886.9"/>
	<polyline class="st1" points="824.3,807 824.3,733.2 861.2,669.3 	"/>
	<line class="st1" x1="815.8" y1="755.2" x2="824.3" y2="760.1"/>
	<line class="st1" x1="832.4" y1="693.3" x2="843.6" y2="699.7"/>
	<polyline class="st1" points="797.3,673 797.3,706.2 760.4,770.1 760.4,884.4 	"/>
	<polyline class="st1" points="998.5,612.2 1022.4,626.1 1022.4,814.2 	"/>
	<polyline class="st1" points="926,608.7 977.1,638.2 978.9,635 	"/>
	<polyline class="st1" points="998.4,841 998.4,837.3 1005.8,824.5 	"/>
	<line class="st1" x1="1082.7" y1="407.3" x2="1108.3" y2="422"/>
	<polyline class="st1" points="1143.9,434.1 1143.9,426.7 1173.4,375.6 	"/>
	<polyline class="st1" points="760.2,962.2 824.5,913.5 850.1,928.3 850.1,987.3 	"/>
	<line class="st1" x1="847.6" y1="929" x2="764" y2="1073.7"/>
</g>
<g id="new_for_web::PROF">
	<polygon class="st2" points="1076.3,462.6 1076.3,388.8 1113.2,324.9 1177.1,361.8 1177.1,435.6 1140.2,499.5 1108.3,481 
		1108.3,422 1082.7,466.3 	"/>
	<polygon class="st2" points="577.1,1401.1 602.7,1415.8 753.9,1153.9 760.3,1157.6 764,1151.2 764,1136.4 875.6,943 942.7,981.8 
		1082.9,739 1022.4,704.1 1022.4,685.1 1131.3,496.5 1109,483.6 1022.4,633.5 1022.4,629.8 1086.2,519.4 1060.6,504.6 998.5,612.2 
		856.3,530.2 797.3,632.4 797.3,673 581.9,1046.1 620.2,1068.2 663.2,1035.6 663.2,1178.2 669.6,1181.9 706.5,1118 706.5,1081.4 
		723.9,1091.5 554.1,1385.7 576.4,1398.6 752.3,1093.9 753.9,1094.9 	"/>
</g>
</svg>
